<svg width="128" height="128" viewBox="0 0 128 128" fill="none" xmlns="http://www.w3.org/2000/svg">
<path d="M15.8237 26.8232C15.8237 23.5095 18.51 20.8232 21.8237 20.8232H82.6179C85.9316 20.8232 88.6179 23.5095 88.6179 26.8232V108C88.6179 111.313 85.9316 114 82.6179 114H21.8237C18.51 114 15.8237 111.313 15.8237 108V26.8232Z" fill="black"/>
<path d="M10 19C10 16.7909 11.7909 15 14 15H78.7942C81.0033 15 82.7942 16.7909 82.7942 19V104.177C82.7942 106.386 81.0033 108.177 78.7942 108.177H14C11.7909 108.177 10 106.386 10 104.177V19Z" fill="white"/>
<path fill-rule="evenodd" clip-rule="evenodd" d="M14 13H78.7942C82.1079 13 84.7942 15.6863 84.7942 19V104.177C84.7942 107.49 82.1079 110.177 78.7942 110.177H14C10.6863 110.177 8 107.49 8 104.177V19C8 15.6863 10.6863 13 14 13ZM14 15C11.7909 15 10 16.7909 10 19V104.177C10 106.386 11.7909 108.177 14 108.177H78.7942C81.0033 108.177 82.7942 106.386 82.7942 104.177V19C82.7942 16.7909 81.0033 15 78.7942 15H14Z" fill="black"/>
<path fill-rule="evenodd" clip-rule="evenodd" d="M23.6523 31.1895C23.6523 30.0849 24.5478 29.1895 25.6523 29.1895H65.5072C66.6117 29.1895 67.5072 30.0849 67.5072 31.1895C67.5072 32.294 66.6117 33.1895 65.5072 33.1895H25.6523C24.5478 33.1895 23.6523 32.294 23.6523 31.1895Z" fill="black"/>
<path fill-rule="evenodd" clip-rule="evenodd" d="M23.6523 41.5068C23.6523 40.4023 24.5478 39.5068 25.6523 39.5068H65.5072C66.6117 39.5068 67.5072 40.4023 67.5072 41.5068C67.5072 42.6114 66.6117 43.5068 65.5072 43.5068H25.6523C24.5478 43.5068 23.6523 42.6114 23.6523 41.5068Z" fill="black"/>
<path fill-rule="evenodd" clip-rule="evenodd" d="M23.0977 51.1318C23.0977 50.0273 23.9931 49.1318 25.0977 49.1318H64.9525C66.057 49.1318 66.9525 50.0273 66.9525 51.1318C66.9525 52.2364 66.057 53.1318 64.9525 53.1318H25.0977C23.9931 53.1318 23.0977 52.2364 23.0977 51.1318Z" fill="black"/>
<path fill-rule="evenodd" clip-rule="evenodd" d="M23.6523 60.5088C23.6523 59.4042 24.5478 58.5088 25.6523 58.5088H46.3987C47.5033 58.5088 48.3987 59.4042 48.3987 60.5088C48.3987 61.6134 47.5033 62.5088 46.3987 62.5088H25.6523C24.5478 62.5088 23.6523 61.6134 23.6523 60.5088Z" fill="black"/>
<path d="M83.2428 86.2396C81.8653 87.6171 80.2479 88.7314 78.4702 89.5278L69.0046 93.768C68.1663 94.1436 67.3076 93.2849 67.6832 92.4466L71.9234 82.981C72.7198 81.2032 73.8341 79.5858 75.2115 78.2084L108.538 44.8821C109.204 44.2163 110.244 44.1052 111.013 44.6479C112.003 45.3463 113.331 46.3399 114.221 47.2302C115.111 48.1205 116.105 49.4477 116.803 50.4379C117.346 51.2074 117.235 52.2476 116.569 52.9134L83.2428 86.2396Z" fill="white"/>
<path fill-rule="evenodd" clip-rule="evenodd" d="M73.7973 76.7939L107.124 43.4676C108.447 42.1444 110.566 41.8849 112.166 43.0133C113.166 43.7185 114.615 44.7952 115.635 45.8157C116.656 46.8361 117.732 48.285 118.438 49.2848C119.566 50.8845 119.306 53.0041 117.983 54.3273L84.657 87.6535C83.1074 89.2032 81.2878 90.4568 79.2878 91.3527L69.8222 95.5929C67.3072 96.7196 64.7313 94.1437 65.8579 91.6286L70.0982 82.1631C70.9941 80.1631 72.2477 78.3435 73.7973 76.7939ZM78.4702 89.5275C80.2479 88.7311 81.8653 87.6168 83.2428 86.2393L116.569 52.9131C117.235 52.2473 117.346 51.2071 116.803 50.4376C116.105 49.4474 115.111 48.1202 114.221 47.2299C113.331 46.3396 112.003 45.346 111.013 44.6476C110.244 44.1049 109.204 44.216 108.538 44.8818L75.2115 78.2081C73.8341 79.5855 72.7198 81.2029 71.9234 82.9807L67.6832 92.4463C67.3076 93.2846 68.1663 94.1433 69.0046 93.7677L78.4702 89.5275Z" fill="black"/>
<path fill-rule="evenodd" clip-rule="evenodd" d="M115.155 50.4291C115.544 50.821 115.542 51.4542 115.15 51.8433L84.3194 82.4608C83.9275 82.85 83.2944 82.8478 82.9052 82.4559C82.516 82.064 82.5182 81.4309 82.9101 81.0417L113.741 50.4242C114.133 50.0351 114.766 50.0373 115.155 50.4291Z" fill="black"/>
<path fill-rule="evenodd" clip-rule="evenodd" d="M110.995 46.0551C111.384 46.447 111.382 47.0802 110.99 47.4693L97.7881 60.5794C97.3963 60.9686 96.7631 60.9664 96.3739 60.5745C95.9848 60.1826 95.987 59.5495 96.3789 59.1603L109.581 46.0502C109.973 45.661 110.606 45.6632 110.995 46.0551Z" fill="black"/>
<path d="M69.0046 93.768L81.1593 88.3232C78.768 83.1094 74.8087 80.7966 73.128 80.2919L67.6832 92.4466C67.3076 93.2849 68.1663 94.1436 69.0046 93.768Z" fill="black"/>
<path fill-rule="evenodd" clip-rule="evenodd" d="M54.4692 90.5454C53.2699 90.6935 52.6899 91.0559 52.4657 91.3318C51.5595 92.4472 50.4761 93.2358 49.1879 93.6948C47.9296 94.1432 46.5875 94.2376 45.2078 94.1466C42.7514 93.9846 39.7333 93.1873 36.1922 92.2519C35.884 92.1704 35.5719 92.088 35.2558 92.0048C29.669 90.5346 27.3259 93.2485 26.8997 94.1365C26.4217 95.1323 25.227 95.5521 24.2312 95.0741C23.2354 94.5961 22.8156 93.4014 23.2936 92.4056C24.5743 89.7376 28.8881 86.1929 36.2738 88.1365C36.5263 88.203 36.7741 88.2683 37.0172 88.3323C40.7777 89.3236 43.4197 90.02 45.471 90.1553C46.5183 90.2243 47.2698 90.1319 47.8451 89.9269C48.3905 89.7326 48.8806 89.401 49.3613 88.8095C50.5239 87.3785 52.3176 86.7808 53.9787 86.5755C55.6885 86.3643 57.5949 86.522 59.4168 86.9156C61.2469 87.3109 63.0876 87.9647 64.6744 88.8203C66.228 89.658 67.7084 90.7809 68.6066 92.2031C69.1965 93.137 68.9175 94.3722 67.9836 94.9621C67.0497 95.5519 65.8145 95.273 65.2247 94.3391C64.8427 93.7343 64.0295 93.017 62.776 92.3411C61.5558 91.6832 60.076 91.1502 58.5723 90.8254C57.0605 90.4988 55.6198 90.4032 54.4692 90.5454Z" fill="black"/>
</svg>
