<svg id="Icon" xmlns="http://www.w3.org/2000/svg" width="80.008" height="108.001" viewBox="0 0 80.008 108.001">
  <g id="Bag_btc" data-name="Bag btc" transform="translate(0 -0.001)">
    <path id="Path" d="M0,74.505C0,50.49,15.406,35.85,23.11,31.531,24.5,21.167,15.037,8.78,10.13,3.882c1.425-3.95,8.231-5.056,12.03-2.528s6.015,2.528,9.814,0,6.965,0,10.605,1.264S48.91,5.146,54.292,1.354c4.305-3.033,9.286.421,11.238,2.528-6.2,5.182-11.449,19.328-13.3,25.753,6.331,5.372,22.794,22.751,23.743,47.082S56.125,104,38.622,104C24.125,104,0,104.524,0,74.505Z" transform="translate(2 2)" fill="#fff"/>
    <path id="Shape" d="M38.862,108a101.677,101.677,0,0,1-11.656-.512,39.6,39.6,0,0,1-12.17-3.163,25.466,25.466,0,0,1-5.943-3.78A23.281,23.281,0,0,1,4.279,94.8,28.487,28.487,0,0,1,1.12,86.859,44.511,44.511,0,0,1,0,76.5a54.566,54.566,0,0,1,2.449-16.31A53.473,53.473,0,0,1,16.055,38.022a41.728,41.728,0,0,1,7.165-5.7c.244-3.873-1.133-8.607-3.982-13.687A55.455,55.455,0,0,0,10.717,7.3,2.007,2.007,0,0,1,10.249,5.2a6.935,6.935,0,0,1,2.692-3.384A10.5,10.5,0,0,1,16.876.225,12.558,12.558,0,0,1,19.251,0a10.953,10.953,0,0,1,6.018,1.688,7.179,7.179,0,0,0,3.8,1.562,7.176,7.176,0,0,0,3.8-1.562A7.9,7.9,0,0,1,37.353.273a9.389,9.389,0,0,1,2.514.363A21.846,21.846,0,0,1,42.714,1.7l.2.088.16.069.028.012c.735.319,1.428.62,2.13.863l.54.189.006,0a12.043,12.043,0,0,0,4,.963c.982,0,2.607-.224,5.358-2.163A8.291,8.291,0,0,1,60,.16a10.082,10.082,0,0,1,3.487.653A15.1,15.1,0,0,1,69,4.523a2,2,0,0,1-.185,2.894c-3.114,2.6-5.934,7.808-7.751,11.718a98.262,98.262,0,0,0-4.543,11.839,70.464,70.464,0,0,1,6.52,6.758A78.5,78.5,0,0,1,70.55,48.2a63.761,63.761,0,0,1,9.425,30.437,35.212,35.212,0,0,1-.657,8.652,24.355,24.355,0,0,1-2.575,6.938,22.831,22.831,0,0,1-9.6,9.029,40.649,40.649,0,0,1-12.87,3.879,91.505,91.505,0,0,1-13.65.863h-1.76ZM19.249,2C16.4,2,13.1,3.2,12.13,5.882c5.091,5.082,14.356,17.4,12.98,27.649C17.116,38.011,2,52.759,2,76.5,2,89.326,6.285,97.71,15.1,102.136,22.8,106,32.639,106,39.15,106h1.472c10.694,0,23.933-1,31.452-8.821,4.224-4.393,6.211-10.6,5.9-18.462a62.128,62.128,0,0,0-9.853-30.651,73.2,73.2,0,0,0-13.89-16.432,98.42,98.42,0,0,1,4.607-12.453C61.357,13.6,63.913,9.463,66.436,6.9c.363-.369.731-.711,1.094-1.014a12.591,12.591,0,0,0-1.494-1.355A10.459,10.459,0,0,0,60.008,2.16a6.343,6.343,0,0,0-3.716,1.194c-2.448,1.725-4.517,2.528-6.51,2.528a13.9,13.9,0,0,1-4.634-1.065l-.569-.2c-.789-.274-1.56-.609-2.306-.933a12.637,12.637,0,0,0-4.915-1.413,5.97,5.97,0,0,0-3.384,1.081c-2,1.329-3.465,1.9-4.907,1.9s-2.91-.567-4.907-1.9A8.942,8.942,0,0,0,19.249,2Z" transform="translate(0 0.001)"/>
    <path id="Shape-2" data-name="Shape" d="M26,52A26.007,26.007,0,0,1,15.88,2.043,26.007,26.007,0,0,1,36.121,49.957,25.837,25.837,0,0,1,26,52ZM26,2A24,24,0,1,0,50,26,24.027,24.027,0,0,0,26,2Z" transform="translate(14 41)"/>
    <path id="Path-2" data-name="Path" d="M.649.064A1,1,0,0,1,1.937.649,82.534,82.534,0,0,1,5.991,16.368a1,1,0,1,1-1.982.264A80.592,80.592,0,0,0,.064,1.351,1,1,0,0,1,.649.064Z" transform="translate(26.5 13)"/>
    <path id="Path-3" data-name="Path" d="M1,0A1,1,0,0,1,2,1V11a1,1,0,0,1-2,0V1A1,1,0,0,1,1,0Z" transform="translate(39 16.5)"/>
    <path id="Path-4" data-name="Path" d="M9.257.529a1,1,0,0,1-.41,1.354,23.965,23.965,0,0,0-3.6,2.439A13.542,13.542,0,0,0,1.883,8.1,1,1,0,0,1,.118,7.155,15.476,15.476,0,0,1,3.983,2.773,25.946,25.946,0,0,1,7.9.118,1,1,0,0,1,9.257.529Z" transform="translate(24.125 32.75)"/>
    <path id="Path-5" data-name="Path" d="M.1.561A1,1,0,0,1,1.439.1,29.343,29.343,0,0,1,10.8,7.769a1,1,0,1,1-1.59,1.213A27.374,27.374,0,0,0,.561,1.9,1,1,0,0,1,.1.561Z" transform="translate(45.875 31.875)"/>
    <path id="Path-6" data-name="Path" d="M6.426.1A1,1,0,0,1,6.9,1.426,61.985,61.985,0,0,0,1.993,18.117a1,1,0,0,1-1.986-.234A63.942,63.942,0,0,1,5.1.574,1,1,0,0,1,6.426.1Z" transform="translate(46.5 12)"/>
    <path id="Path-7" data-name="Path" d="M0,4.066A3.375,3.375,0,0,1,3.048.68C6.187.387,11.4,0,17,0S27.813.387,30.952.68A3.375,3.375,0,0,1,34,4.066h0A3.586,3.586,0,0,1,30.088,7.6C26.9,7.323,22.114,7,17,7s-9.9.323-13.089.6A3.586,3.586,0,0,1,0,4.066Z" transform="translate(24 26)"/>
    <path id="Shape-3" data-name="Shape" d="M32.406,11.615c-.163,0-.329-.007-.492-.022C28.815,11.323,24.06,11,19,11s-9.815.323-12.914.594c-.163.014-.329.022-.492.022a5.6,5.6,0,0,1-3.925-1.6A5.471,5.471,0,0,1,0,6.066,5.358,5.358,0,0,1,4.862.689C8.229.374,13.415,0,19,0S29.771.374,33.138.689A5.358,5.358,0,0,1,38,6.066,5.578,5.578,0,0,1,32.406,11.615ZM19,9c5.129,0,9.948.327,13.089.6.106.009.213.014.319.014a3.6,3.6,0,0,0,2.526-1.032A3.5,3.5,0,0,0,36,6.066a3.368,3.368,0,0,0-3.047-3.387C29.625,2.369,24.5,2,19,2s-10.625.37-13.952.68A3.368,3.368,0,0,0,2,6.066,3.575,3.575,0,0,0,5.592,9.615c.106,0,.213,0,.319-.014C9.051,9.327,13.871,9,19,9Z" transform="translate(22 24)"/>
    <path id="Path-8" data-name="Path" d="M5.949.684a1,1,0,0,1-.632,1.265,5.774,5.774,0,0,0-3.422,3A1,1,0,0,1,.106,4.053a7.772,7.772,0,0,1,4.578-4A1,1,0,0,1,5.949.684Z" transform="translate(38 26.5)" fill="#fff"/>
    <path id="Path-9" data-name="Path" d="M5.949.684a1,1,0,0,1-.632,1.265,5.774,5.774,0,0,0-3.422,3A1,1,0,0,1,.106,4.053a7.772,7.772,0,0,1,4.578-4A1,1,0,0,1,5.949.684Z" transform="translate(32.125 26.75)" fill="#fff"/>
    <path id="Path-10" data-name="Path" d="M5.949.684a1,1,0,0,1-.632,1.265,5.774,5.774,0,0,0-3.422,3A1,1,0,0,1,.106,4.053a7.772,7.772,0,0,1,4.578-4A1,1,0,0,1,5.949.684Z" transform="translate(25.562 27.25)" fill="#fff"/>
    <path id="Path-11" data-name="Path" d="M5.949.684a1,1,0,0,1-.632,1.265,5.774,5.774,0,0,0-3.422,3A1,1,0,0,1,.106,4.053a7.772,7.772,0,0,1,4.578-4A1,1,0,0,1,5.949.684Z" transform="translate(44.062 26.75)" fill="#fff"/>
    <path id="Path-12" data-name="Path" d="M5.949.684a1,1,0,0,1-.632,1.265,5.774,5.774,0,0,0-3.422,3A1,1,0,0,1,.106,4.053a7.772,7.772,0,0,1,4.578-4A1,1,0,0,1,5.949.684Z" transform="translate(50.626 27.25)" fill="#fff"/>
    <g id="그룹_2" data-name="그룹 2" transform="matrix(0.996, 0.087, -0.087, 0.996, 9.435, 927.468)">
      <path id="패스_1" data-name="패스 1" d="M-51.526-868s-1.3,16.32,4.93,16.32S-41.925-868-41.925-868s-.525,16.32,5.449,16.32S-32.065-868-32.065-868" transform="translate(-3.016 0)" fill="none" stroke="#000" stroke-linecap="round" stroke-width="3"/>
      <path id="패스_2" data-name="패스 2" d="M-58.322-856.835h27.038" transform="translate(0 -3)" fill="none" stroke="#000" stroke-linecap="round" stroke-width="3"/>
      <path id="패스_3" data-name="패스 3" d="M-58.322-856.835h27.038" transform="translate(0 -6.656)" fill="none" stroke="#000" stroke-linecap="round" stroke-width="3"/>
    </g>
  </g>
</svg>
