<svg xmlns="http://www.w3.org/2000/svg" viewBox="0 0 64 64"><defs><style>.cls-1{isolation:isolate;}.cls-2{fill:#fbb040;}.cls-3{opacity:0.25;mix-blend-mode:multiply;}.cls-4{fill:#231f20;}.cls-5{mix-blend-mode:overlay;}.cls-6{fill:#fff;}.cls-7{fill:none;stroke:#231f20;stroke-linecap:round;stroke-linejoin:round;stroke-width:2px;}</style></defs><title>Icon Color</title><g class="cls-1"><g id="Color"><rect class="cls-2" x="9.13" y="15.96" width="46" height="28.39"/><polygon class="cls-2" points="32.13 25.56 9.13 44.35 55.13 44.35 32.13 25.56"/><polygon class="cls-2" points="32.13 34.75 55.13 15.96 9.13 15.96 32.13 34.75"/></g><g id="Shadow" class="cls-3"><polygon class="cls-4" points="48.06 44.35 55.13 44.35 55.13 44.35 55.13 15.96 55.13 15.96 48.06 15.96 48.06 44.35"/></g><g id="Highlight" class="cls-5"><polygon class="cls-6" points="9.13 44.35 9.13 44.35 15.45 44.35 15.45 44.35 15.45 15.96 15.45 15.96 9.13 15.96 9.13 15.96 9.13 15.96 9.13 44.35 9.13 44.35"/></g><g id="Line"><polygon class="cls-7" points="55.13 15.96 55.13 44.35 9.13 44.35 9.13 15.96 26.51 30.16 32.13 34.75 37.75 30.16 55.13 15.96"/><polygon class="cls-7" points="55.13 44.35 9.13 44.35 26.51 30.16 32.13 34.75 37.75 30.16 55.13 44.35"/><polygon class="cls-7" points="55.13 15.96 37.75 30.16 32.13 34.75 26.51 30.16 9.13 15.96 55.13 15.96"/></g></g></svg>