<svg xmlns="http://www.w3.org/2000/svg" viewBox="0 0 64 64"><defs><style>.cls-1{isolation:isolate;}.cls-2{fill:#414042;}.cls-3{fill:#fbb040;}.cls-4{opacity:0.25;mix-blend-mode:multiply;}.cls-5{fill:#231f20;}.cls-6{mix-blend-mode:overlay;}.cls-7{fill:#fff;}.cls-8{fill:none;stroke:#231f20;stroke-linecap:round;stroke-linejoin:round;stroke-width:2px;}</style></defs><title>Icon Color</title><g class="cls-1"><g id="Color"><rect class="cls-2" x="8.92" y="20" width="23.08" height="34.93"/><rect class="cls-3" x="12.32" y="27.5" width="6.86" height="6.86" rx="0.98"/><rect class="cls-3" x="21.59" y="34.89" width="6.26" height="6.26" rx="1.23"/><rect class="cls-3" x="13.48" y="42.91" width="5.18" height="5.18" rx="1.21"/><path class="cls-2" d="M26.41,12.08H53.85a1.24,1.24,0,0,1,1.24,1.24V54.93a0,0,0,0,1,0,0H25.18a0,0,0,0,1,0,0V13.32A1.24,1.24,0,0,1,26.41,12.08Z"/><rect class="cls-3" x="30.58" y="22.47" width="6.86" height="6.86" rx="0.98"/><rect class="cls-3" x="43.39" y="34.34" width="6.26" height="6.26" rx="1.23"/><rect class="cls-3" x="43.39" y="18.8" width="6.26" height="6.26" rx="1.23"/><rect class="cls-3" x="31.42" y="40.03" width="6.29" height="6.29" rx="1.47"/></g><g id="Shadow" class="cls-4"><path class="cls-5" d="M48,13.32V54.93h7.07V13.32a1.24,1.24,0,0,0-1.23-1.24H46.78A1.24,1.24,0,0,1,48,13.32Z"/></g><g id="Highlight" class="cls-6"><rect class="cls-7" x="8.92" y="20" width="6.32" height="34.93"/></g><g id="Line"><rect class="cls-8" x="8.92" y="20" width="16.26" height="34.93"/><path class="cls-8" d="M32,22.46v6.86h-.44a1,1,0,0,1-1-1v-4.9a1,1,0,0,1,1-1Z"/><path class="cls-8" d="M32,40.34V46a1.45,1.45,0,0,1-.58-1.16V41.51A1.47,1.47,0,0,1,32,40.34Z"/><rect class="cls-8" x="12.32" y="27.5" width="6.86" height="6.86" rx="0.98"/><path class="cls-8" d="M25.18,34.89v6.26H22.82a1.23,1.23,0,0,1-1.23-1.23V36.11a1.23,1.23,0,0,1,1.23-1.22Z"/><rect class="cls-8" x="13.48" y="42.91" width="5.18" height="5.18" rx="1.21"/><path class="cls-8" d="M53.85,12.08H26.41a1.23,1.23,0,0,0-1.23,1.24V54.93h29.9V13.32A1.23,1.23,0,0,0,53.85,12.08ZM30.58,28.34v-4.9a1,1,0,0,1,1-1h4.9a1,1,0,0,1,1,1v4.9a1,1,0,0,1-1,1h-4.9A1,1,0,0,1,30.58,28.34Zm7.13,16.51a1.47,1.47,0,0,1-1.47,1.47H32.9A1.42,1.42,0,0,1,32,46a1.45,1.45,0,0,1-.58-1.16V41.51A1.47,1.47,0,0,1,32,40.34a1.42,1.42,0,0,1,.9-.31h3.34a1.47,1.47,0,0,1,1.47,1.48Zm11.94-5.49a1.23,1.23,0,0,1-1.23,1.23H44.61a1.23,1.23,0,0,1-1.22-1.23v-3.8a1.23,1.23,0,0,1,1.22-1.23h3.81a1.23,1.23,0,0,1,1.23,1.23Zm0-15.53a1.23,1.23,0,0,1-1.23,1.23H44.61a1.23,1.23,0,0,1-1.22-1.23V20a1.22,1.22,0,0,1,1.22-1.22h3.81A1.23,1.23,0,0,1,49.65,20Z"/><rect class="cls-8" x="30.58" y="22.46" width="6.86" height="6.86" rx="0.98"/><path class="cls-8" d="M37.71,41.51v3.34a1.47,1.47,0,0,1-1.47,1.47H32.9A1.42,1.42,0,0,1,32,46a1.45,1.45,0,0,1-.58-1.16V41.51A1.47,1.47,0,0,1,32,40.34a1.42,1.42,0,0,1,.9-.31h3.34A1.47,1.47,0,0,1,37.71,41.51Z"/><path class="cls-8" d="M49.65,20v3.81a1.23,1.23,0,0,1-1.23,1.23H44.61a1.23,1.23,0,0,1-1.22-1.23V20a1.22,1.22,0,0,1,1.22-1.22h3.81A1.23,1.23,0,0,1,49.65,20Z"/><path class="cls-8" d="M49.65,35.56v3.8a1.23,1.23,0,0,1-1.23,1.23H44.61a1.23,1.23,0,0,1-1.22-1.23v-3.8a1.23,1.23,0,0,1,1.22-1.23h3.81A1.23,1.23,0,0,1,49.65,35.56Z"/><rect class="cls-8" x="30.58" y="22.46" width="6.86" height="6.86" rx="0.98"/><path class="cls-8" d="M49.65,35.56v3.8a1.23,1.23,0,0,1-1.23,1.23H44.61a1.23,1.23,0,0,1-1.22-1.23v-3.8a1.23,1.23,0,0,1,1.22-1.23h3.81A1.23,1.23,0,0,1,49.65,35.56Z"/><path class="cls-8" d="M49.65,20v3.81a1.23,1.23,0,0,1-1.23,1.23H44.61a1.23,1.23,0,0,1-1.22-1.23V20a1.22,1.22,0,0,1,1.22-1.22h3.81A1.23,1.23,0,0,1,49.65,20Z"/><path class="cls-8" d="M37.71,41.51v3.34a1.47,1.47,0,0,1-1.47,1.47H32.9A1.42,1.42,0,0,1,32,46a1.45,1.45,0,0,1-.58-1.16V41.51A1.47,1.47,0,0,1,32,40.34a1.42,1.42,0,0,1,.9-.31h3.34A1.47,1.47,0,0,1,37.71,41.51Z"/></g></g></svg>