<svg xmlns="http://www.w3.org/2000/svg" viewBox="0 0 64 64"><defs><style>.cls-1{isolation:isolate;}.cls-2,.cls-9{fill:#fff;}.cls-3{fill:#f8a80e;}.cls-4{fill:#1a1a1a;}.cls-5{fill:#b3b3b3;}.cls-6{fill:none;stroke:#000;stroke-linecap:round;stroke-linejoin:round;stroke-width:2px;}.cls-7{opacity:0.25;mix-blend-mode:multiply;}.cls-8{mix-blend-mode:soft-light;}.cls-9{mix-blend-mode:overlay;}</style></defs><title>Icon Color</title><g class="cls-1"><g id="Layer_1" data-name="Layer 1"><g id="Vector"><path class="cls-2" d="M53.79,23.13V49.76a2.89,2.89,0,0,1-2.89,2.9H13.16a2.9,2.9,0,0,1-2.9-2.9V26.11H53.73v-3Z"/><path class="cls-3" d="M53.73,18v8.12H10.2V18a3.37,3.37,0,0,1,3.38-3.37H15v1.77a3.34,3.34,0,1,0,6.67,0V14.62h7v1.77a3.34,3.34,0,1,0,6.67,0V14.62h7v1.77a3.34,3.34,0,1,0,6.67,0V14.62h1.34A3.37,3.37,0,0,1,53.73,18Z"/><path class="cls-4" d="M21.71,14.62v1.77a3.34,3.34,0,1,1-6.67,0V14.62a3.34,3.34,0,0,1,6.67,0Z"/><path class="cls-4" d="M35.36,14.62v1.77a3.34,3.34,0,1,1-6.67,0V14.62a3.34,3.34,0,0,1,6.67,0Z"/><path class="cls-4" d="M49,14.62v1.77a3.34,3.34,0,1,1-6.67,0V14.62a3.34,3.34,0,0,1,6.67,0Z"/><rect class="cls-5" x="16.16" y="30.98" width="6.01" height="6.01"/><rect class="cls-5" x="29.03" y="30.98" width="6.01" height="6.01"/><rect class="cls-5" x="41.9" y="30.98" width="6.01" height="6.01"/><rect class="cls-5" x="16.16" y="42.53" width="6.01" height="6.01"/><rect class="cls-5" x="29.03" y="42.53" width="6.01" height="6.01"/><rect class="cls-5" x="41.9" y="42.53" width="6.01" height="6.01"/></g><g id="Line"><path class="cls-6" d="M53.79,23.13V49.76a2.89,2.89,0,0,1-2.89,2.9H13.16a2.9,2.9,0,0,1-2.9-2.9V26.11H53.73v-3Z"/><path class="cls-6" d="M53.73,18v8.12H10.2V18a3.37,3.37,0,0,1,3.38-3.37H15v1.77a3.34,3.34,0,1,0,6.67,0V14.62h7v1.77a3.34,3.34,0,1,0,6.67,0V14.62h7v1.77a3.34,3.34,0,1,0,6.67,0V14.62h1.34A3.37,3.37,0,0,1,53.73,18Z"/><path class="cls-6" d="M21.71,14.62v1.77a3.34,3.34,0,1,1-6.67,0V14.62a3.34,3.34,0,0,1,6.67,0Z"/><path class="cls-6" d="M35.36,14.62v1.77a3.34,3.34,0,1,1-6.67,0V14.62a3.34,3.34,0,0,1,6.67,0Z"/><path class="cls-6" d="M49,14.62v1.77a3.34,3.34,0,1,1-6.67,0V14.62a3.34,3.34,0,0,1,6.67,0Z"/><rect class="cls-6" x="16.16" y="30.98" width="6.01" height="6.01"/><rect class="cls-6" x="29.03" y="30.98" width="6.01" height="6.01"/><rect class="cls-6" x="41.9" y="30.98" width="6.01" height="6.01"/><rect class="cls-6" x="16.16" y="42.53" width="6.01" height="6.01"/><rect class="cls-6" x="29.03" y="42.53" width="6.01" height="6.01"/><rect class="cls-6" x="41.9" y="42.53" width="6.01" height="6.01"/></g><g id="Shadow" class="cls-7"><path d="M47.77,12.11a3.26,3.26,0,0,0-2.09-.76,3.34,3.34,0,0,0-3.34,3.27h4.19A3.33,3.33,0,0,1,47.77,12.11Z"/><path d="M34.12,12.11A3.26,3.26,0,0,0,32,11.35a3.34,3.34,0,0,0-3.34,3.27h4.19A3.31,3.31,0,0,1,34.12,12.11Z"/><path d="M17.35,52.66a2.9,2.9,0,0,1-2.9-2.9V26.11h-.06V18a3.37,3.37,0,0,1,3.38-3.37h1.46a3.33,3.33,0,0,1,1.24-2.51,3.26,3.26,0,0,0-2.09-.76A3.34,3.34,0,0,0,15,14.62H13.58A3.37,3.37,0,0,0,10.2,18v8.12h.06V49.76a2.9,2.9,0,0,0,2.9,2.9Z"/></g><g id="Highligth" class="cls-8"><path class="cls-9" d="M53.73,18a3.37,3.37,0,0,0-3.38-3.37H49a3.32,3.32,0,0,0-6-2,3.27,3.27,0,0,1,.7,2h1.34A3.37,3.37,0,0,1,48.47,18v5.14h.06V49.76a2.89,2.89,0,0,1-2.89,2.9H50.9a2.89,2.89,0,0,0,2.89-2.9V23.13h-.06Z"/></g></g></g></svg>