<svg xmlns="http://www.w3.org/2000/svg" viewBox="0 0 64 64"><defs><style>.cls-1{isolation:isolate;}.cls-2{fill:#00aeef;}.cls-3{fill:#fbb040;}.cls-4{opacity:0.25;mix-blend-mode:multiply;}.cls-5{fill:#231f20;}.cls-6{mix-blend-mode:overlay;}.cls-7{fill:#fff;}.cls-8,.cls-9{fill:none;stroke:#231f20;stroke-linecap:round;stroke-linejoin:round;}.cls-8{stroke-width:2.13px;}.cls-9{stroke-width:2px;}</style></defs><title>Icon Color</title><g class="cls-1"><g id="Color"><rect class="cls-2" x="11.92" y="19.54" width="43.13" height="29.89" rx="3.22"/><path class="cls-3" d="M51.83,19.54H15.14a3.22,3.22,0,0,0-3.22,3.22v9H55.05v-9A3.22,3.22,0,0,0,51.83,19.54Z"/><rect class="cls-3" x="16.52" y="37.54" width="7.5" height="6.05" rx="1.43"/></g><g id="Shadow" class="cls-4"><path class="cls-5" d="M48,22.76V46.21a3.22,3.22,0,0,1-3.22,3.22h7.07a3.22,3.22,0,0,0,3.22-3.22V22.76a3.22,3.22,0,0,0-3.22-3.22H44.76A3.22,3.22,0,0,1,48,22.76Z"/></g><g id="Highlight" class="cls-6"><path class="cls-7" d="M15.14,49.43h6.32a3.22,3.22,0,0,1-3.22-3.22V22.76a3.22,3.22,0,0,1,3.22-3.22H15.14a3.22,3.22,0,0,0-3.22,3.22V46.21A3.22,3.22,0,0,0,15.14,49.43Z"/></g><g id="Line"><rect class="cls-8" x="11.92" y="19.54" width="43.13" height="29.89" rx="3.22"/><path class="cls-9" d="M51.83,19.54H15.14a3.22,3.22,0,0,0-3.22,3.22v9H55.05v-9A3.22,3.22,0,0,0,51.83,19.54Z"/><rect class="cls-9" x="16.52" y="37.54" width="7.5" height="6.05" rx="1.43"/><line class="cls-9" x1="37.79" y1="38.12" x2="49.36" y2="38.12"/><line class="cls-9" x1="37.79" y1="43" x2="49.36" y2="43"/><line class="cls-9" x1="11.92" y1="27.46" x2="19.04" y2="27.46"/><line class="cls-9" x1="55.05" y1="22.76" x2="49.57" y2="22.76"/></g></g></svg>