<svg xmlns="http://www.w3.org/2000/svg" viewBox="0 0 64 64"><defs><style>.cls-1{isolation:isolate;}.cls-2{fill:#fff;}.cls-3{fill:red;}.cls-4{opacity:0.25;mix-blend-mode:multiply;}.cls-5{mix-blend-mode:overlay;}.cls-6,.cls-7,.cls-8,.cls-9{fill:none;stroke:#000;}.cls-6,.cls-8,.cls-9{stroke-miterlimit:10;}.cls-6,.cls-7,.cls-9{stroke-width:2px;}.cls-7{stroke-linejoin:round;}.cls-8{stroke-width:1.66px;}.cls-9{stroke-linecap:round;}</style></defs><title>Icon Color</title><g class="cls-1"><g id="Color"><path class="cls-2" d="M35.87,9h-23a4.5,4.5,0,0,0-4.5,4.5v36a4.09,4.09,0,0,0,4.08,4.09H39a4.09,4.09,0,0,0,4.08-4.09v-33Z"/><polygon class="cls-2" points="43.07 16.17 35.87 16.17 35.87 8.96 43.07 16.17"/><rect class="cls-3" x="13.21" y="18.07" width="6.11" height="6.11" rx="1.25"/><rect class="cls-3" x="13.21" y="28.95" width="6.11" height="6.11" rx="1.25"/><rect class="cls-3" x="13.21" y="39.82" width="6.11" height="6.11" rx="1.25"/></g><g id="Shadow" class="cls-4"><path d="M35.87,9H29.6l7.2,7.21h-.29l.29.31v33a4.09,4.09,0,0,1-4.08,4.09H39a4.09,4.09,0,0,0,4.08-4.09v-33l-.29-.31h.29Z"/></g><g id="Highlight" class="cls-5"><path class="cls-2" d="M12.44,53.54h6a4.09,4.09,0,0,1-4.08-4.09v-36A4.5,4.5,0,0,1,18.86,9h-6a4.5,4.5,0,0,0-4.5,4.5v36A4.09,4.09,0,0,0,12.44,53.54Z"/></g><g id="Line"><path class="cls-6" d="M35.87,9h-23a4.5,4.5,0,0,0-4.5,4.5v36a4.09,4.09,0,0,0,4.08,4.09H39a4.09,4.09,0,0,0,4.08-4.09v-33Z"/><polygon class="cls-7" points="43.07 16.17 35.87 16.17 35.87 8.96 43.07 16.17"/><rect class="cls-8" x="13.21" y="18.07" width="6.11" height="6.11" rx="1.25"/><rect class="cls-8" x="13.21" y="28.95" width="6.11" height="6.11" rx="1.25"/><rect class="cls-8" x="13.21" y="39.82" width="6.11" height="6.11" rx="1.25"/><line class="cls-9" x1="23.01" y1="19.06" x2="34.26" y2="19.06"/><line class="cls-9" x1="23.01" y1="23" x2="31.39" y2="23"/><line class="cls-9" x1="23.01" y1="29.28" x2="34.26" y2="29.28"/><line class="cls-9" x1="23.01" y1="33.22" x2="31.39" y2="33.22"/><line class="cls-9" x1="23.01" y1="39.5" x2="34.26" y2="39.5"/><line class="cls-9" x1="23.01" y1="43.44" x2="31.39" y2="43.44"/></g></g></svg>