<svg xmlns="http://www.w3.org/2000/svg" viewBox="0 0 64 64"><defs><style>.cls-1{isolation:isolate;}.cls-2{fill:#ed1c24;}.cls-3{fill:#fff;}.cls-4{fill:#414042;}.cls-5{opacity:0.25;mix-blend-mode:multiply;}.cls-6{fill:#231f20;}.cls-7{mix-blend-mode:overlay;}.cls-10,.cls-8,.cls-9{fill:none;stroke:#231f20;}.cls-8,.cls-9{stroke-linecap:round;stroke-linejoin:round;}.cls-10,.cls-8{stroke-width:2px;}.cls-9{stroke-width:2.21px;}.cls-10{stroke-miterlimit:10;}</style></defs><title>Icon Color</title><g class="cls-1"><g id="Color"><path class="cls-2" d="M23.39,12.82H48.46a5.3,5.3,0,0,1,5.3,5.3V49a0,0,0,0,1,0,0H23.39a0,0,0,0,1,0,0V12.82A0,0,0,0,1,23.39,12.82Z"/><path class="cls-3" d="M23.39,45H50.55a3.21,3.21,0,0,1,3.21,3.21V49a3.21,3.21,0,0,1-3.21,3.21H23.39a0,0,0,0,1,0,0V45A0,0,0,0,1,23.39,45Z"/><rect class="cls-4" x="18.09" y="12.82" width="5.3" height="32.14"/><rect class="cls-4" x="18.09" y="44.96" width="5.3" height="7.23"/><rect class="cls-3" x="28.54" y="19.41" width="17.68" height="11.49"/></g><g id="Shadow" class="cls-5"><polygon class="cls-6" points="29.18 52.2 29.18 44.96 29.18 12.82 26.03 12.82 18.09 12.82 18.09 44.96 18.09 52.2 26.03 52.2 29.18 52.2"/></g><g id="Highlight" class="cls-7"><path class="cls-3" d="M49.27,18.12V49a3.22,3.22,0,0,1-3.22,3.22h4.5A3.22,3.22,0,0,0,53.77,49V18.12a5.31,5.31,0,0,0-5.31-5.3H44A5.31,5.31,0,0,1,49.27,18.12Z"/></g><g id="Line"><path class="cls-8" d="M23.39,12.82H48.46a5.3,5.3,0,0,1,5.3,5.3V49a0,0,0,0,1,0,0H23.39a0,0,0,0,1,0,0V12.82A0,0,0,0,1,23.39,12.82Z"/><path class="cls-9" d="M23.39,45H50.55a3.21,3.21,0,0,1,3.21,3.21V49a3.21,3.21,0,0,1-3.21,3.21H23.39a0,0,0,0,1,0,0V45A0,0,0,0,1,23.39,45Z"/><rect class="cls-10" x="18.09" y="12.82" width="5.3" height="32.14"/><rect class="cls-10" x="18.09" y="44.96" width="5.3" height="7.23"/><rect class="cls-9" x="28.54" y="19.41" width="17.68" height="11.49"/></g></g></svg>