<svg xmlns="http://www.w3.org/2000/svg" viewBox="0 0 64 64"><defs><style>.cls-1{isolation:isolate;}.cls-2{opacity:0.2;}.cls-3,.cls-9{fill:none;stroke:#070606;}.cls-3{stroke-miterlimit:10;stroke-width:0.25px;}.cls-4{fill:#f8c310;}.cls-5{fill:#f6cd57;}.cls-6{fill:#fff;}.cls-7{opacity:0.25;mix-blend-mode:multiply;}.cls-8{mix-blend-mode:overlay;}.cls-9{stroke-linecap:round;stroke-linejoin:round;stroke-width:2px;}</style></defs><title>Icon Color</title><g class="cls-1"><g id="guide" class="cls-2"><g id="guide-2" data-name="guide"><rect class="cls-3" x="0.13" y="0.16" width="64" height="64" transform="translate(-0.03 64.29) rotate(-90)"/><circle class="cls-3" cx="32.13" cy="32.16" r="32"/><circle class="cls-3" cx="32.13" cy="32.16" r="23"/><line class="cls-3" x1="64.13" y1="64.16" x2="0.13" y2="0.16"/><line class="cls-3" x1="0.13" y1="64.16" x2="64.13" y2="0.16"/><rect class="cls-3" x="16.13" y="0.16" width="32" height="64"/><line class="cls-3" x1="32.13" y1="64.16" x2="32.13" y2="0.16"/><rect class="cls-3" x="0.13" y="16.16" width="64" height="32"/><line class="cls-3" x1="0.13" y1="32.16" x2="64.13" y2="32.16"/><rect class="cls-3" x="9.13" y="9.16" width="46" height="46" transform="translate(-0.03 64.29) rotate(-90)"/><circle class="cls-3" cx="32.13" cy="32.16" r="16"/><circle class="cls-3" cx="32.13" cy="32.16" r="9"/></g></g><g id="Color"><path class="cls-4" d="M9.13,16.16h46a0,0,0,0,1,0,0v34a5,5,0,0,1-5,5h-36a5,5,0,0,1-5-5v-34A0,0,0,0,1,9.13,16.16Z"/><path class="cls-5" d="M32.13,16.16h-23l3.79,10a6.67,6.67,0,0,0,6.24,4.3H45.1a6.67,6.67,0,0,0,6.24-4.3l3.79-9.95Z"/><circle class="cls-6" cx="50.48" cy="47.94" r="10.87"/><path class="cls-6" d="M52.64,44.29a5,5,0,1,1-6.4,1.77"/><polygon class="cls-6" points="51.92 42.47 52.29 46.43 55.54 44.13 51.92 42.47"/><path class="cls-4" d="M9.13,16.16h46a0,0,0,0,1,0,0v34a5,5,0,0,1-5,5h-36a5,5,0,0,1-5-5v-34A0,0,0,0,1,9.13,16.16Z"/><path class="cls-5" d="M32.13,16.16h-23l3.79,10a6.67,6.67,0,0,0,6.24,4.3H45.1a6.67,6.67,0,0,0,6.24-4.3l3.79-9.95Z"/><circle class="cls-6" cx="50.48" cy="47.94" r="10.87"/><path class="cls-6" d="M52.64,44.29a5,5,0,1,1-6.4,1.77"/><polygon class="cls-6" points="51.92 42.47 52.29 46.43 55.54 44.13 51.92 42.47"/></g><g id="Shadow" class="cls-7"><path d="M15.77,50.17v-34H9.13v34a5,5,0,0,0,5,5h6.64A5,5,0,0,1,15.77,50.17Z"/></g><g id="Highlight" class="cls-8"><path class="cls-6" d="M55.13,38.12v-22H50.47v22a10.87,10.87,0,0,1-2.33,20.44,11.33,11.33,0,0,0,2.34.25,10.87,10.87,0,0,0,4.65-20.69Z"/></g><g id="Line"><path class="cls-9" d="M55.13,16.16V38.1a11.11,11.11,0,0,0-4.65-1,10.87,10.87,0,0,0-8.12,18.09H14.11a5,5,0,0,1-5-5v-34Z"/><path class="cls-9" d="M51.92,42.46,55.13,44V47A4.86,4.86,0,0,0,54,45.23l-1.69,1.2Z"/><path class="cls-9" d="M32.13,16.16h-23l3.79,10a6.67,6.67,0,0,0,6.24,4.3H45.1a6.67,6.67,0,0,0,6.24-4.3l3.79-9.95Z"/><path class="cls-9" d="M55.13,47a5,5,0,0,1,.33,1.78,5,5,0,0,1-.36,1.86,3.91,3.91,0,0,0,0-.49Z"/><path class="cls-9" d="M55.13,44.41V47A4.86,4.86,0,0,0,54,45.23l-1.69,1.2-.36-4L55.13,44l.4.19Z"/><path class="cls-9" d="M46.24,46.06a4.94,4.94,0,0,0-.82,2.74,5,5,0,0,0,9.68,1.88"/><path class="cls-9" d="M54,45.23a5,5,0,0,0-1.33-.95"/><polygon class="cls-9" points="55.53 44.13 55.13 44.41 53.97 45.23 52.28 46.44 51.92 42.47 55.13 43.95 55.53 44.13"/><path class="cls-9" d="M55.13,16.16V38.1a11.11,11.11,0,0,0-4.65-1,10.87,10.87,0,0,0-8.12,18.09H14.11a5,5,0,0,1-5-5v-34Z"/><path class="cls-9" d="M51.92,42.46,55.13,44V47A4.86,4.86,0,0,0,54,45.23l-1.69,1.2Z"/><path class="cls-9" d="M32.13,16.16h-23l3.79,10a6.67,6.67,0,0,0,6.24,4.3H45.1a6.67,6.67,0,0,0,6.24-4.3l3.79-9.95Z"/><path class="cls-9" d="M55.13,38.1a11.11,11.11,0,0,0-4.65-1,10.83,10.83,0,1,0,4.65,1Zm.33,10.7a5,5,0,0,1-.36,1.86,3.91,3.91,0,0,0,0-.49V47A4.86,4.86,0,0,0,54,45.23l-1.69,1.2-.36-4L55.13,44l.4.19-.4.27V47A5,5,0,0,1,55.46,48.8Z"/><path class="cls-9" d="M55.13,47a5,5,0,0,1,.33,1.78,5,5,0,0,1-.36,1.86,3.91,3.91,0,0,0,0-.49Z"/><path class="cls-9" d="M55.13,44.41V47A4.86,4.86,0,0,0,54,45.23l-1.69,1.2-.36-4L55.13,44l.4.19Z"/><path class="cls-9" d="M46.24,46.06a4.94,4.94,0,0,0-.82,2.74,5,5,0,0,0,9.68,1.88"/><path class="cls-9" d="M54,45.23a5,5,0,0,0-1.33-.95"/><polygon class="cls-9" points="55.53 44.13 55.13 44.41 53.97 45.23 52.28 46.44 51.92 42.47 55.13 43.95 55.53 44.13"/></g></g></svg>