<svg xmlns="http://www.w3.org/2000/svg" viewBox="0 0 64 64"><defs><style>.cls-1{isolation:isolate;}.cls-2{fill:#f98b10;}.cls-3{opacity:0.25;mix-blend-mode:multiply;}.cls-4{mix-blend-mode:overlay;}.cls-5{fill:#fff;}.cls-6{fill:none;stroke:#000;stroke-linecap:round;stroke-linejoin:round;stroke-width:2px;}</style></defs><title>Icon Color</title><g class="cls-1"><g id="Color"><circle class="cls-2" cx="31.89" cy="13.05" r="5.63"/><circle class="cls-2" cx="31.89" cy="48.36" r="7.63"/><path class="cls-2" d="M44.3,27.5v-2A12.41,12.41,0,0,0,31.89,13.05h0a12.41,12.41,0,0,0-12.4,12.41v2a23,23,0,0,1-5.74,15.19l-.51.58h37.3l-.5-.58A23,23,0,0,1,44.3,27.5Z"/><path class="cls-2" d="M13.24,43.27h37.3a0,0,0,0,1,0,0v4.17a3.11,3.11,0,0,1-3.11,3.11H16.35a3.11,3.11,0,0,1-3.11-3.11V43.27A0,0,0,0,1,13.24,43.27Z"/></g><g id="Shadow" class="cls-3"><path d="M32.73,50.55H24.58A7.64,7.64,0,0,0,31.89,56,7.53,7.53,0,0,0,36,54.79,7.64,7.64,0,0,1,32.73,50.55Z"/><path d="M21.38,47.44V43.27l.51-.58A23,23,0,0,0,27.63,27.5v-2a12.39,12.39,0,0,1,6.93-11.12,6.07,6.07,0,0,1-.15-1.29A5.6,5.6,0,0,1,36,9.18a5.57,5.57,0,0,0-4.07-1.75,5.62,5.62,0,0,0-5.62,5.62,5.49,5.49,0,0,0,.15,1.29,12.39,12.39,0,0,0-6.93,11.12v2a23,23,0,0,1-5.74,15.19l-.51.58v4.17a3.11,3.11,0,0,0,3.11,3.11h8.14A3.11,3.11,0,0,1,21.38,47.44Z"/></g><g id="Highlight" class="cls-4"><path class="cls-5" d="M44.3,27.5v-2a12.38,12.38,0,0,0-6.94-11.12,5.49,5.49,0,0,0,.16-1.29,5.62,5.62,0,0,0-8.36-4.91,5.6,5.6,0,0,1,2.89,4.91,5.49,5.49,0,0,1-.15,1.29,12.39,12.39,0,0,1,6.94,11.12v2a23,23,0,0,0,5.73,15.19l.51.58v4.17A3.11,3.11,0,0,1,42,50.55h5.46a3.11,3.11,0,0,0,3.11-3.11V43.27l-.5-.58A23,23,0,0,1,44.3,27.5Z"/><path class="cls-5" d="M29.16,55.47a7.53,7.53,0,0,0,2.73.52,7.63,7.63,0,0,0,7.31-5.44H33.74A7.63,7.63,0,0,1,29.16,55.47Z"/></g><g id="Line"><path class="cls-6" d="M37.52,13.05a5.47,5.47,0,0,1-.15,1.28,12.35,12.35,0,0,0-10.95,0,5.47,5.47,0,0,1-.15-1.28,5.63,5.63,0,1,1,11.25,0Z"/><path class="cls-6" d="M39.21,50.55a7.64,7.64,0,0,1-14.63,0Z"/><path class="cls-6" d="M50.54,43.27H13.24l.51-.59a22.93,22.93,0,0,0,5.74-15.17V25.45a12.36,12.36,0,0,1,3.63-8.77,12,12,0,0,1,3.3-2.35A12.41,12.41,0,0,1,44.3,25.45v2.06A22.93,22.93,0,0,0,50,42.68Z"/><path class="cls-6" d="M50.54,43.27v4.18a3.1,3.1,0,0,1-3.11,3.1H16.35a3.1,3.1,0,0,1-3.11-3.1V43.27Z"/></g></g></svg>