<svg xmlns="http://www.w3.org/2000/svg" viewBox="0 0 64 64"><defs><style>.cls-1{isolation:isolate;}.cls-2{fill:#414042;}.cls-3{fill:#00aeef;}.cls-4{fill:#fbb040;}.cls-5{fill:#c49a6c;}.cls-6{fill:#808285;}.cls-7{fill:#c2b59b;}.cls-13,.cls-14,.cls-15,.cls-16,.cls-17,.cls-8{fill:none;}.cls-9{opacity:0.25;mix-blend-mode:multiply;}.cls-10{fill:#231f20;}.cls-11{mix-blend-mode:overlay;}.cls-12{fill:#fff;}.cls-13,.cls-14,.cls-15,.cls-16,.cls-17{stroke:#231f20;}.cls-13,.cls-14,.cls-17{stroke-miterlimit:10;}.cls-13{stroke-width:2.3px;}.cls-14{stroke-width:1.76px;}.cls-15,.cls-16{stroke-linejoin:round;}.cls-15{stroke-width:1.94px;}.cls-16{stroke-linecap:round;stroke-width:1.97px;}.cls-17{stroke-width:1.79px;}</style></defs><title>Icon Color</title><g class="cls-1"><g id="Color"><rect class="cls-2" x="17.23" y="6.57" width="27.39" height="47.09" rx="3.89"/><path class="cls-3" d="M24.65,11.49h13.2a3.06,3.06,0,0,1,3.06,3.06v28.7a2.81,2.81,0,0,1-2.81,2.81H24.4a2.81,2.81,0,0,1-2.81-2.81V14.55A3.06,3.06,0,0,1,24.65,11.49Z"/><path class="cls-4" d="M28.32,34.64h5.86a5.29,5.29,0,0,1,5.29,5.29v5.79a0,0,0,0,1,0,0H23a0,0,0,0,1,0,0V39.92A5.29,5.29,0,0,1,28.32,34.64Z"/><path class="cls-5" d="M25.88,24.53H36.61a0,0,0,0,1,0,0v5.53a5.2,5.2,0,0,1-5.2,5.2h-.32a5.2,5.2,0,0,1-5.2-5.2V24.53A0,0,0,0,1,25.88,24.53Z"/><path class="cls-2" d="M25.69,30.29a6.74,6.74,0,0,1,.95-3,6.48,6.48,0,0,1,1.41-1.63A27.51,27.51,0,0,0,31,26.4a27,27,0,0,0,5.42.5l1.3-.4a6.59,6.59,0,0,0-2-4c-2.52-2.27-5.91-1.47-6.6-1.31a5.56,5.56,0,0,0-3.39,1.94A5.27,5.27,0,0,0,24.8,26,7.89,7.89,0,0,0,25.69,30.29Z"/><ellipse class="cls-6" cx="31.25" cy="46.55" rx="3.27" ry="3.19"/><path class="cls-7" d="M51.77,45.34v6.22c0,1.1-3.69,3.86-3.69,3.86V58.5h-14s-.08-2.23,0-3.88-3.88-2.86-5.17-7.32-.79-9.11.5-9.61c.93-.37,2.92,2,4,3.37V32.59a2.3,2.3,0,0,1,2.29-2.3,2.29,2.29,0,0,1,2.3,2.3v9.8a2.3,2.3,0,0,1,2.29-2.29,2.29,2.29,0,0,1,2.3,2.29V43.9a2.3,2.3,0,0,1,4.6,0v1.44a2.29,2.29,0,0,1,2.3-2.29,2.29,2.29,0,0,1,2.29,2.29Z"/><line class="cls-8" x1="42.58" y1="43.9" x2="42.77" y2="48.69"/></g><g id="Shadow" class="cls-9"><path class="cls-10" d="M24.63,49.77V10.46a3.89,3.89,0,0,1,3.89-3.89h-7.4a3.89,3.89,0,0,0-3.89,3.89V49.77a3.89,3.89,0,0,0,3.89,3.89h7.4A3.89,3.89,0,0,1,24.63,49.77Z"/></g><g id="Highlight" class="cls-11"><path class="cls-12" d="M40.73,6.57h-4.5a3.89,3.89,0,0,1,3.89,3.89V41.63l.26,0a2.3,2.3,0,0,1,2.3,2.29v1.44A2.29,2.29,0,0,1,45,43.05a2.26,2.26,0,0,1,2.2,1.69V43.9a2.3,2.3,0,0,0-2.3-2.29l-.26,0V10.46A3.89,3.89,0,0,0,40.73,6.57Z"/><path class="cls-12" d="M49.48,43.05a2.29,2.29,0,0,0-2.25,1.84,2.28,2.28,0,0,1,0,.45v6.22c0,.49-.73,1.31-1.54,2.06a6.67,6.67,0,0,0-2.15,4.88h4.5V55.42s3.69-2.76,3.69-3.86V45.34a2.29,2.29,0,0,0-2.29-2.29Z"/></g><g id="Line"><path class="cls-13" d="M33.39,34.63V32.58a2.29,2.29,0,0,1,2.3-2.29,2.3,2.3,0,0,1,1.63.67A2.31,2.31,0,0,1,38,32.58v9.81a2.3,2.3,0,0,1,1.48-2.15,2.21,2.21,0,0,1,.82-.15,2.16,2.16,0,0,1,.62.09,2.27,2.27,0,0,1,1,.58,2.34,2.34,0,0,1,.67,1.63V43.9a2.3,2.3,0,0,1,2-2.29V10.46a3.89,3.89,0,0,0-3.89-3.89H21.11a3.89,3.89,0,0,0-3.89,3.89v39.3a3.89,3.89,0,0,0,3.89,3.89H33.69c-.78-1-2.58-2.12-3.83-4.22a8.75,8.75,0,0,1-.94-2.14c-.12-.41-.22-.82-.31-1.23,0-.12-.05-.23-.07-.35s-.1-.49-.14-.74c-.58-3.63,0-6.88,1-7.29s2.92,2,4,3.38v-6.2"/><path class="cls-14" d="M33.39,34.63V32.58a2.29,2.29,0,0,1,2.3-2.29,2.3,2.3,0,0,1,1.63.67A2.31,2.31,0,0,1,38,32.58v9.81a2.3,2.3,0,0,1,1.48-2.15,2.21,2.21,0,0,1,.82-.15,2.16,2.16,0,0,1,.62.09V14.55a3.06,3.06,0,0,0-3.06-3.06H24.64a3.06,3.06,0,0,0-3.06,3.06v28.7A2.82,2.82,0,0,0,23,45.71a2.87,2.87,0,0,0,1.37.35h4.21c0-.12-.05-.23-.07-.35s-.1-.49-.14-.74c-.58-3.63,0-6.88,1-7.29s2.92,2,4,3.38v-6.2"/><path class="cls-15" d="M33.39,34.86v6.21c-1-1.37-3-3.74-4-3.39s-1.6,3.66-1,7.29c0,.25.08.49.14.74H23V39.92a5.28,5.28,0,0,1,5.28-5.28S33.55,34.79,33.39,34.86Z"/><path class="cls-15" d="M39.46,39.92v.32A2.31,2.31,0,0,0,38,42.39V36.27A5.22,5.22,0,0,1,39.46,39.92Z"/><path class="cls-16" d="M36.61,26.84v3.21c0,.15,0,.28,0,.42a2.45,2.45,0,0,0-.9-.18,2.3,2.3,0,0,0-2.3,2.29v2.06s.16.15,0,.22a5.22,5.22,0,0,1-2,.4h-.33a5.17,5.17,0,0,1-2.44-.62h0a5.22,5.22,0,0,1-2.74-4.59v-1a6.29,6.29,0,0,1,.75-1.8,6.7,6.7,0,0,1,1.42-1.63A25.32,25.32,0,0,0,31,26.4a27.71,27.71,0,0,0,5.41.5Z"/><path class="cls-17" d="M37.72,26.51l-1.11.33-.2.06A27.71,27.71,0,0,1,31,26.4a25.32,25.32,0,0,1-2.95-.75,6.7,6.7,0,0,0-1.42,1.63,6.66,6.66,0,0,0-.94,3A7.93,7.93,0,0,1,24.8,26a5.28,5.28,0,0,1,.91-2.89A5.51,5.51,0,0,1,29.1,21.2c.69-.17,4.09-1,6.61,1.32A6.63,6.63,0,0,1,37.72,26.51Z"/><path class="cls-14" d="M29.86,49.43A3.17,3.17,0,0,1,28,46.55a1.91,1.91,0,0,1,.05-.48,1.53,1.53,0,0,1,.07-.36A3.22,3.22,0,0,1,28.4,45c0,.25.08.49.14.74s0,.24.07.36c.09.4.19.82.31,1.22A8.59,8.59,0,0,0,29.86,49.43Z"/><path class="cls-17" d="M51.77,45.34v6.21c0,1.1-3.69,3.86-3.69,3.86v3.08h-14s-.08-2.22,0-3.87a1.47,1.47,0,0,0-.39-1c-.78-1-2.58-2.12-3.83-4.22a8.59,8.59,0,0,1-.94-2.14c-.12-.4-.22-.82-.31-1.22,0-.12-.05-.24-.07-.36s-.1-.49-.14-.74c-.58-3.63,0-6.88,1-7.29s2.92,2,4,3.39V32.58a2.3,2.3,0,0,1,2.3-2.29,2.45,2.45,0,0,1,.9.18,2.67,2.67,0,0,1,.73.49A2.33,2.33,0,0,1,38,32.58v9.81a2.31,2.31,0,0,1,1.48-2.15,2.21,2.21,0,0,1,.82-.15,2.16,2.16,0,0,1,.62.09,2.2,2.2,0,0,1,1,.59,2.32,2.32,0,0,1,.67,1.62V43.9a2.3,2.3,0,0,1,2-2.29h.26a2.3,2.3,0,0,1,2.31,2.3v1.44A2.3,2.3,0,0,1,49.47,43a2.29,2.29,0,0,1,2.3,2.3Z"/><line class="cls-17" x1="47.18" y1="45.34" x2="47.18" y2="50.13"/><line class="cls-17" x1="42.58" y1="43.9" x2="42.77" y2="48.69"/><line class="cls-17" x1="38.03" y1="45.71" x2="38.03" y2="41.98"/><line class="cls-17" x1="33.4" y1="41.06" x2="33.4" y2="46.87"/></g></g></svg>