<svg xmlns="http://www.w3.org/2000/svg" viewBox="0 0 64 64"><defs><style>.cls-1{isolation:isolate;}.cls-2{fill:#19a8cb;}.cls-3{fill:#fff;}.cls-4{opacity:0.25;mix-blend-mode:multiply;}.cls-5{mix-blend-mode:overlay;}.cls-6,.cls-7{fill:none;stroke:#000;stroke-width:2px;}.cls-6{stroke-linecap:round;stroke-linejoin:round;}.cls-7{stroke-miterlimit:10;}</style></defs><title>Icon Color</title><g class="cls-1"><g id="Color"><path class="cls-2" d="M9.55,17.54H54.45a1.93,1.93,0,0,1,1.93,1.93V46.22a6.51,6.51,0,0,1-6.51,6.51H14.13a6.51,6.51,0,0,1-6.51-6.51V19.47A1.93,1.93,0,0,1,9.55,17.54Z"/><path class="cls-3" d="M17.55,12.45h9A5.46,5.46,0,0,1,32,17.91V47.76a0,0,0,0,1,0,0H15.6a3.51,3.51,0,0,1-3.51-3.51V17.91A5.46,5.46,0,0,1,17.55,12.45Z"/><path class="cls-3" d="M37.46,12.45h9a5.46,5.46,0,0,1,5.46,5.46V44.25a3.51,3.51,0,0,1-3.51,3.51H32a0,0,0,0,1,0,0V17.91A5.46,5.46,0,0,1,37.46,12.45Z"/></g><g id="Shadow" class="cls-4"><path d="M22.28,52.73a6.5,6.5,0,0,1-6.51-6.51V19.47a1.92,1.92,0,0,1,1.93-1.93h0a3.34,3.34,0,0,0,3-1.92,5.47,5.47,0,0,1,5-3.17H17.55a5.46,5.46,0,0,0-5.44,5.09H9.55a1.92,1.92,0,0,0-1.92,1.93V46.22a6.5,6.5,0,0,0,6.5,6.51Z"/></g><g id="Highlight" class="cls-5"><path class="cls-3" d="M26.52,17.54h0a5.46,5.46,0,0,1,2.72-4.34,5.4,5.4,0,0,0-2.73-.75H21.07A5.47,5.47,0,0,1,26.52,17.54Z"/><path class="cls-3" d="M54.45,17.54H51.89a5.46,5.46,0,0,0-5.44-5.09H41a5.47,5.47,0,0,1,5,3.17,3.33,3.33,0,0,0,3,1.92h0a1.92,1.92,0,0,1,1.93,1.93V46.22a6.5,6.5,0,0,1-6.51,6.51h5.47a6.51,6.51,0,0,0,6.51-6.51V19.47A1.93,1.93,0,0,0,54.45,17.54Z"/></g><g id="Line"><path class="cls-6" d="M32,17.91V47.76H15.6a3.51,3.51,0,0,1-3.51-3.51V17.91a2.3,2.3,0,0,1,0-.37,5.45,5.45,0,0,1,5.44-5.09h9A5.45,5.45,0,0,1,32,17.54,2.3,2.3,0,0,1,32,17.91Z"/><path class="cls-6" d="M32,17.91a2.3,2.3,0,0,0,0-.37h0A2.3,2.3,0,0,0,32,17.91Z"/><path class="cls-6" d="M56.37,19.47V46.23a6.51,6.51,0,0,1-6.5,6.51H14.13a6.52,6.52,0,0,1-6.51-6.51V19.47a1.94,1.94,0,0,1,1.93-1.93h2.56a2.3,2.3,0,0,0,0,.37V44.25a3.51,3.51,0,0,0,3.51,3.51H48.4a3.51,3.51,0,0,0,3.51-3.51V17.91a2.3,2.3,0,0,0,0-.37h2.56A1.93,1.93,0,0,1,56.37,19.47Z"/><path class="cls-7" d="M51.91,17.91V44.25a3.51,3.51,0,0,1-3.51,3.51H32V17.91a2.3,2.3,0,0,1,0-.37,5.45,5.45,0,0,1,5.44-5.09h9a5.45,5.45,0,0,1,5.44,5.09A2.3,2.3,0,0,1,51.91,17.91Z"/><line class="cls-6" x1="16.73" y1="21.79" x2="26.86" y2="21.79"/><line class="cls-6" x1="16.73" y1="26.21" x2="26.86" y2="26.21"/><line class="cls-6" x1="16.73" y1="30.63" x2="26.86" y2="30.63"/><line class="cls-6" x1="16.73" y1="35.05" x2="26.86" y2="35.05"/><line class="cls-6" x1="16.73" y1="39.47" x2="26.86" y2="39.47"/><line class="cls-6" x1="37.14" y1="21.79" x2="47.27" y2="21.79"/><line class="cls-6" x1="37.14" y1="26.21" x2="47.27" y2="26.21"/><line class="cls-6" x1="37.14" y1="30.63" x2="47.27" y2="30.63"/><line class="cls-6" x1="37.14" y1="35.05" x2="47.27" y2="35.05"/><line class="cls-6" x1="37.14" y1="39.47" x2="47.27" y2="39.47"/></g></g></svg>