<svg xmlns="http://www.w3.org/2000/svg" viewBox="0 0 64 64"><defs><style>.cls-1{isolation:isolate;}.cls-2{fill:#bdd3dd;}.cls-3{fill:#00aeef;}.cls-4{fill:#414042;}.cls-5{fill:#fbb040;}.cls-6{fill:#c49a6c;}.cls-7{opacity:0.25;mix-blend-mode:multiply;}.cls-8{fill:#231f20;}.cls-9{mix-blend-mode:overlay;}.cls-10{fill:#fff;}.cls-11,.cls-12,.cls-13,.cls-14{fill:none;stroke:#231f20;}.cls-11,.cls-12{stroke-miterlimit:10;}.cls-11{stroke-width:2px;}.cls-12{stroke-width:1.53px;}.cls-13,.cls-14{stroke-linejoin:round;}.cls-13{stroke-width:2.17px;}.cls-14{stroke-linecap:round;stroke-width:2.21px;}</style></defs><title>Icon Color</title><g class="cls-1"><g id="Color"><rect class="cls-2" x="7.87" y="20.11" width="40.82" height="24.43" rx="1.83"/><rect class="cls-3" x="11.78" y="23.48" width="33" height="17.69" rx="1.96"/><path class="cls-4" d="M6.46,44.54H50.09a0,0,0,0,1,0,0v.68a3.33,3.33,0,0,1-3.33,3.33H9.8a3.33,3.33,0,0,1-3.33-3.33v-.68A0,0,0,0,1,6.46,44.54Z"/><path class="cls-5" d="M25,28.77h6.56a5.92,5.92,0,0,1,5.92,5.92v6.48a0,0,0,0,1,0,0H19.08a0,0,0,0,1,0,0V34.69A5.92,5.92,0,0,1,25,28.77Z"/><path class="cls-6" d="M22.27,17.46h12a0,0,0,0,1,0,0v6.19a5.83,5.83,0,0,1-5.83,5.83H28.1a5.83,5.83,0,0,1-5.83-5.83V17.46A0,0,0,0,1,22.27,17.46Z"/><path class="cls-4" d="M21.66,23.69A7.26,7.26,0,0,1,24.3,18.5a33,33,0,0,0,3.3.84,30.91,30.91,0,0,0,6.06.56l1.46-.45A7.36,7.36,0,0,0,32.87,15c-2.82-2.54-6.62-1.65-7.39-1.46a6.13,6.13,0,0,0-3.79,2.17,5.92,5.92,0,0,0-1,3.24A8.74,8.74,0,0,0,21.66,23.69Z"/></g><g id="Shadow" class="cls-7"><path class="cls-8" d="M28.06,18.93a6,6,0,0,1,1-3.24A5.15,5.15,0,0,1,31.38,14a9,9,0,0,0-5.9-.46,6.13,6.13,0,0,0-3.79,2.17,5.92,5.92,0,0,0-1,3.24,7.78,7.78,0,0,0,0,1.18h7.41A9.29,9.29,0,0,1,28.06,18.93Z"/><path class="cls-8" d="M9.8,48.55h7.4a3.33,3.33,0,0,1-3.33-3.33v-.68H17.1a1.82,1.82,0,0,1-1.83-1.82V21.94a1.83,1.83,0,0,1,1.83-1.83H9.69a1.82,1.82,0,0,0-1.82,1.83V42.72a1.81,1.81,0,0,0,1.82,1.82H6.46v.68A3.33,3.33,0,0,0,9.8,48.55Z"/></g><g id="Highlight" class="cls-9"><path class="cls-10" d="M42.26,48.55h4.5a3.33,3.33,0,0,0,3.33-3.33v-.68H46.86a1.82,1.82,0,0,0,1.83-1.82V21.94a1.83,1.83,0,0,0-1.83-1.83h-4.5a1.83,1.83,0,0,1,1.83,1.83V42.72a1.82,1.82,0,0,1-1.83,1.82h3.23v.68A3.33,3.33,0,0,1,42.26,48.55Z"/><path class="cls-10" d="M25.6,13.49A6.68,6.68,0,0,1,28.37,15a7.36,7.36,0,0,1,2.25,4.47l-.84.26v.4h4.5v-.4l.84-.26A7.36,7.36,0,0,0,32.87,15C30.17,12.55,26.57,13.27,25.6,13.49Z"/></g><g id="Line"><path class="cls-11" d="M48.68,21.94V42.71a1.82,1.82,0,0,1-1.82,1.83H9.69a1.83,1.83,0,0,1-1.83-1.83V21.94a1.83,1.83,0,0,1,1.83-1.83H21a8.62,8.62,0,0,0,.81,3.37h.25a6.65,6.65,0,0,1,.17-.93v1.09a5.84,5.84,0,0,0,3.05,5.13,5.75,5.75,0,0,0,2.77.7h.36a5.82,5.82,0,0,0,5.83-5.83V20.11H46.86A1.82,1.82,0,0,1,48.68,21.94Z"/><path class="cls-12" d="M44.77,25.44V39.21a2,2,0,0,1-2,2H13.74a2,2,0,0,1-2-2V25.44a2,2,0,0,1,2-2h8.53v.16a5.84,5.84,0,0,0,3.05,5.13,5.75,5.75,0,0,0,2.77.7h.36a5.82,5.82,0,0,0,5.83-5.83v-.16h8.53A2,2,0,0,1,44.77,25.44Z"/><path class="cls-11" d="M6.46,44.54H50.09a0,0,0,0,1,0,0v.68a3.33,3.33,0,0,1-3.33,3.33H9.8a3.33,3.33,0,0,1-3.33-3.33v-.68A0,0,0,0,1,6.46,44.54Z"/><path class="cls-13" d="M37.47,34.69v6.48H19.07V34.69A5.92,5.92,0,0,1,25,28.77h.33a5.75,5.75,0,0,0,2.77.7h.36a5.79,5.79,0,0,0,2.78-.7h.32A5.92,5.92,0,0,1,37.47,34.69Z"/><path class="cls-14" d="M34.28,20.11v3.53a5.82,5.82,0,0,1-5.83,5.83h-.36a5.75,5.75,0,0,1-2.77-.7,5.84,5.84,0,0,1-3.05-5.13V22.55a7,7,0,0,1,.84-2c.09-.15.19-.3.28-.43a7.26,7.26,0,0,1,1.31-1.4,32.28,32.28,0,0,0,3.3.84,31.22,31.22,0,0,0,5.88.56Z"/><polygon class="cls-14" points="34.28 20.04 34.28 20.11 34.06 20.11 34.28 20.04"/><path class="cls-11" d="M35.52,19.66,34.28,20l-.22.07h-.18A31.22,31.22,0,0,1,28,19.55a32.28,32.28,0,0,1-3.3-.84,7.26,7.26,0,0,0-1.31,1.4c-.09.13-.19.28-.28.43a7,7,0,0,0-.84,2,6.65,6.65,0,0,0-.17.93h-.25A8.62,8.62,0,0,1,21,20.11a6.36,6.36,0,0,1,0-1,5.89,5.89,0,0,1,1-3.24,6.2,6.2,0,0,1,3.8-2.17c.77-.19,4.57-1.08,7.39,1.46A7.41,7.41,0,0,1,35.52,19.66Z"/><path class="cls-11" d="M22.1,23.48c0,.16,0,.3,0,.42q-.11-.2-.21-.42Z"/></g></g></svg>