<svg xmlns="http://www.w3.org/2000/svg" width="117.715" height="117.115"><g data-name="Box money btc"><path d="M18.648 95.081V59.95l39.786-20.175 41.2 20.175v35.13l-41.2 20.035z"/><path d="M58.435 117.115a2.016 2.016 0 01-.9-.214L17.748 96.866a1.988 1.988 0 01-1.1-1.785V59.95a1.992 1.992 0 011.1-1.784L57.53 37.991a2 2 0 011.783-.016l41.2 20.175a2.016 2.016 0 011.12 1.8v35.131a2.015 2.015 0 01-1.125 1.8l-41.2 20.034a2.009 2.009 0 01-.873.2zm0-77.34L18.648 59.95v35.131l39.786 20.034 41.2-20.034V59.95l-41.2-20.175z"/><path data-name="Path" d="M18.648 95.08V59.95l39.786 20.963v34.2z" fill="#fff"/><path data-name="Shape" d="M58.435 117.114a2.016 2.016 0 01-.9-.214L17.748 96.867a1.991 1.991 0 01-1.1-1.787V59.95a2 2 0 012.932-1.77l39.786 20.963a2 2 0 011.067 1.769v34.2a2 2 0 01-2 2zM18.648 59.95v35.13l39.786 20.034v-34.2z"/><path data-name="Path" d="M99.634 95.08l-41.2 20.035.706-34.284L99.634 59.95z"/><path data-name="Shape" d="M58.434 117.114a2 2 0 01-2-2.04l.707-34.285a2 2 0 011.082-1.739l40.491-20.878a2 2 0 012.92 1.778v35.13a2.011 2.011 0 01-1.125 1.8l-41.2 20.033a2.009 2.009 0 01-.875.201zm41.2-57.164L59.139 80.831l-.705 34.283 41.2-20.034V59.95z"/><path data-name="Path" d="M99.58 60.104L58.857 80.549l14.532 13.685 42.325-21.445z" fill="#fff"/><path data-name="Shape" d="M73.39 96.234a2 2 0 01-1.372-.544L57.486 82.004a2 2 0 01.471-3.242l40.726-20.446a2 2 0 012.133.215l16.135 12.686a2 2 0 01-.333 3.356L74.293 96.018a2.008 2.008 0 01-.903.216zm26.19-36.13L58.857 80.549l14.532 13.685 42.326-21.445z"/><path data-name="Path" d="M2.563 42.737l15.62 15.785 39.219-19.941-12.795-15.737z" fill="#fff"/><path data-name="Shape" d="M18.183 60.523a1.985 1.985 0 01-1.422-.593L1.142 44.144a2 2 0 01.566-3.215l42.043-19.892a2 2 0 012.407.545l12.8 15.737a2 2 0 01-.645 3.045L19.089 60.305a2.01 2.01 0 01-.906.218zm26.423-37.679L2.563 42.737l15.619 15.785 39.22-19.941z"/><path data-name="Path" d="M73.53 22.562L59.443 38.785l40.341 19.941 15.225-16.412z" fill="#fff"/><path data-name="Shape" d="M99.783 60.726a2.006 2.006 0 01-.885-.207L58.556 40.578a2 2 0 01-.624-3.1L72.02 21.251a2 2 0 012.37-.494l41.479 19.752a2 2 0 01.606 3.165L101.25 60.086a2.005 2.005 0 01-1.467.64zM73.531 22.562L59.443 38.785l40.341 19.942 15.225-16.413-41.478-19.752z"/><path data-name="Path" d="M18.49 60.052L2 73.211l41.761 21.022 13.387-13.681z" fill="#fff"/><path data-name="Shape" d="M43.761 96.233a2.007 2.007 0 01-.9-.214L1.1 74.998a2 2 0 01-.348-3.346l16.49-13.164a2 2 0 012.184-.2l38.659 20.5a2 2 0 01.492 3.166L45.191 95.632a2.012 2.012 0 01-1.43.601zM18.49 60.052L2 73.212l41.762 21.021 13.386-13.681z"/><path data-name="Path" d="M82.265 45.896a20.51 20.51 0 11-20.51-20.51 20.51 20.51 0 0120.51 20.51z"/><path data-name="Path" d="M79.877 43.51A20.51 20.51 0 1159.367 23a20.51 20.51 0 0120.51 20.51z" fill="#fff"/><path data-name="Shape" d="M59.367 66.021A22.51 22.51 0 0143.45 27.593a22.51 22.51 0 1131.835 31.835 22.364 22.364 0 01-15.918 6.593zm0-43.021a20.51 20.51 0 1020.51 20.51A20.533 20.533 0 0059.367 23z"/><path data-name="Shape" d="M59.344 62.616a19.106 19.106 0 01-13.507-32.613A19.106 19.106 0 1172.854 57.02a18.981 18.981 0 01-13.51 5.596zm0-36.213A17.107 17.107 0 1076.45 43.51a17.127 17.127 0 00-17.106-17.107z"/><path data-name="Path" d="M28.857 27.5a4.5 4.5 0 11-4.5-4.5 4.5 4.5 0 014.5 4.5z" fill="#fff"/><path data-name="Shape" d="M24.357 34a6.5 6.5 0 116.5-6.5 6.507 6.507 0 01-6.5 6.5zm0-11a4.5 4.5 0 104.5 4.5 4.505 4.505 0 00-4.5-4.5z"/><path data-name="Path" d="M57.857 7.5a5.5 5.5 0 11-5.5-5.5 5.5 5.5 0 015.5 5.5z" fill="#fff"/><path data-name="Shape" d="M52.357 15a7.5 7.5 0 117.5-7.5 7.509 7.509 0 01-7.5 7.5zm0-13a5.5 5.5 0 105.5 5.5 5.506 5.506 0 00-5.5-5.5z"/><path data-name="Path" d="M99.857 35.5a5.5 5.5 0 11-5.5-5.5 5.5 5.5 0 015.5 5.5z" fill="#fff"/><path data-name="Shape" d="M94.357 43a7.5 7.5 0 117.5-7.5 7.509 7.509 0 01-7.5 7.5zm0-13a5.5 5.5 0 105.5 5.5 5.506 5.506 0 00-5.5-5.5z"/><path data-name="Path" d="M84.857 13a3 3 0 11-3-3 3 3 0 013 3z" fill="#fff"/><path data-name="Shape" d="M81.857 18a5 5 0 115-5 5.006 5.006 0 01-5 5zm0-8a3 3 0 103 3 3 3 0 00-3-3z"/><g data-name="그룹 1" fill="none" stroke="#000" stroke-linecap="round" stroke-width="2"><path data-name="패스 1" d="M55.534 34.183s-6.444 10.461-2.216 12.616 8.728-9.298 8.728-9.298-5.916 10.73-1.864 12.795 8.552-9.387 8.552-9.387"/><path data-name="패스 2" d="M49.408 37.939l19.889 10.134"/><path data-name="패스 3" d="M50.653 35.495l19.89 10.134"/></g></g></svg>