<svg xmlns="http://www.w3.org/2000/svg" viewBox="0 0 214.13 42.69"><defs><style>.cls-1{fill:#fff;}</style></defs><g id="레이어_2" data-name="레이어 2"><g id="레이어_1-2" data-name="레이어 1"><g id="레이어_2-2" data-name="레이어 2"><g id="레이어_1-2-2" data-name="레이어 1-2"><path class="cls-1" d="M15.85,27.57H10.28V42.66H0V0H16.79q7.59,0,11.86,3.37t4.28,9.51a13.86,13.86,0,0,1-1.8,7.37A12.67,12.67,0,0,1,25.49,25l8.9,17.23v.44h-11Zm-5.57-7.91h6.51a5.87,5.87,0,0,0,4.41-1.54,6,6,0,0,0,1.48-4.31,6,6,0,0,0-1.5-4.33,5.75,5.75,0,0,0-4.39-1.57H10.28Z"/><path class="cls-1" d="M65.6,24.55H49.42v10.2H68.53v7.91H39.14V0H68.58V7.94H49.42v9H65.6Z"/><path class="cls-1" d="M72.71,42.66V0H86.46A20.28,20.28,0,0,1,96.62,2.56a18.06,18.06,0,0,1,7,7.24,21.94,21.94,0,0,1,2.56,10.47v2a21.92,21.92,0,0,1-2.48,10.5,17.92,17.92,0,0,1-7,7.26,19.73,19.73,0,0,1-10,2.66ZM83,7.94V34.75h3.57a8,8,0,0,0,6.8-3.15q2.37-3.15,2.37-9.36V20.39c0-4.12-.79-7.22-2.37-9.32a8.14,8.14,0,0,0-6.91-3.13Z"/><path class="cls-1" d="M138,24.55H121.79v10.2h19.1v7.91H111.5V0H141V7.94H121.79v9H138Z"/><path class="cls-1" d="M169.31,34.69h-14.1l-2.46,8h-11L157.41,0h9.67l15.76,42.66h-11Zm-11.63-7.94h9.17L162.25,12Z"/><path class="cls-1" d="M196.23,34.75h17.9v7.91H186V0h10.28Z"/></g></g></g></g></svg>