<svg id="Icon" xmlns="http://www.w3.org/2000/svg" width="117.715" height="117.115" viewBox="0 0 117.715 117.115">
  <g id="Box_money_btc" data-name="Box money btc" transform="translate(-0.143 -0.162)">
    <path id="Path" d="M0,55.306V20.175L39.786,0l41.2,20.175v35.13L39.786,75.34Z" transform="translate(18.791 39.937)"/>
    <path id="Shape" d="M41.787,79.34a2.016,2.016,0,0,1-.9-.214L1.1,59.091A1.988,1.988,0,0,1,0,57.306V22.175a1.992,1.992,0,0,1,1.1-1.784L40.882.216A2,2,0,0,1,42.665.2l41.2,20.175a2.016,2.016,0,0,1,1.12,1.8V57.306a2.015,2.015,0,0,1-1.125,1.8l-41.2,20.034A2.009,2.009,0,0,1,41.787,79.34Zm0-77.34L2,22.175V57.306L41.786,77.34l41.2-20.034V22.175L41.786,2Z" transform="translate(16.791 37.937)"/>
    <path id="Path-2" data-name="Path" d="M0,35.13V0L39.786,20.963v34.2Z" transform="translate(18.791 60.112)" fill="#fff"/>
    <path id="Shape-2" data-name="Shape" d="M41.787,59.164a2.016,2.016,0,0,1-.9-.214L1.1,38.917A1.991,1.991,0,0,1,0,37.13V2A2,2,0,0,1,2.932.23L42.718,21.193a2,2,0,0,1,1.067,1.769v34.2a2,2,0,0,1-2,2ZM2,2V37.13L41.786,57.164v-34.2Z" transform="translate(16.791 58.112)"/>
    <path id="Path-3" data-name="Path" d="M41.2,35.13,0,55.165.706,20.881,41.2,0Z" transform="translate(58.577 60.112)"/>
    <path id="Shape-3" data-name="Shape" d="M2,59.164a2,2,0,0,1-2-2.04L.707,22.839A2,2,0,0,1,1.789,21.1L42.28.222A2,2,0,0,1,45.2,2V37.13a2.011,2.011,0,0,1-1.125,1.8L2.875,58.963A2.009,2.009,0,0,1,2,59.164ZM43.2,2,2.705,22.881,2,57.164,43.2,37.13V2Z" transform="translate(56.577 58.112)"/>
    <path id="Path-4" data-name="Path" d="M40.723,0,0,20.445,14.532,34.13,56.857,12.685Z" transform="translate(59 60.266)" fill="#fff"/>
    <path id="Shape-4" data-name="Shape" d="M16.533,38.13a2,2,0,0,1-1.372-.544L.629,23.9A2,2,0,0,1,1.1,20.658L41.826.212a2,2,0,0,1,2.133.215L60.094,13.113a2,2,0,0,1-.333,3.356L17.436,37.914A2.008,2.008,0,0,1,16.533,38.13ZM42.723,2,2,22.445,16.532,36.13,58.858,14.685Z" transform="translate(57 58.266)"/>
    <path id="Path-5" data-name="Path" d="M0,19.893,15.62,35.678,54.839,15.737,42.044,0Z" transform="translate(2.706 23.006)" fill="#fff"/>
    <path id="Shape-5" data-name="Shape" d="M17.62,39.679a1.985,1.985,0,0,1-1.422-.593L.579,23.3a2,2,0,0,1,.566-3.215L43.188.193a2,2,0,0,1,2.407.545l12.8,15.737a2,2,0,0,1-.645,3.045L18.526,39.461A2.01,2.01,0,0,1,17.62,39.679ZM44.043,2,2,21.893,17.619,37.678,56.839,17.737Z" transform="translate(0.706 21.006)"/>
    <path id="Path-6" data-name="Path" d="M14.087,0,0,16.223,40.341,36.164,55.566,19.752Z" transform="translate(59.586 22.724)" fill="#fff"/>
    <path id="Shape-6" data-name="Shape" d="M42.34,40.164a2.006,2.006,0,0,1-.885-.207L1.113,20.016a2,2,0,0,1-.624-3.1L14.577.689a2,2,0,0,1,2.37-.494L58.426,19.947a2,2,0,0,1,.606,3.165L43.807,39.524A2.005,2.005,0,0,1,42.34,40.164ZM16.088,2h0L2,18.223,42.341,38.165,57.566,21.752,16.088,2Z" transform="translate(57.586 20.724)"/>
    <path id="Path-7" data-name="Path" d="M16.49,0,0,13.159,41.761,34.181,55.148,20.5Z" transform="translate(2.143 60.214)" fill="#fff"/>
    <path id="Shape-7" data-name="Shape" d="M43.761,38.181a2.007,2.007,0,0,1-.9-.214L1.1,16.946A2,2,0,0,1,.752,13.6L17.242.436a2,2,0,0,1,2.184-.2l38.659,20.5a2,2,0,0,1,.492,3.166L45.191,37.58A2.012,2.012,0,0,1,43.761,38.181ZM18.49,2,2,15.16,43.762,36.181,57.148,22.5Z" transform="translate(0.143 58.214)"/>
    <path id="Path-8" data-name="Path" d="M41.02,20.51A20.51,20.51,0,1,1,20.51,0,20.51,20.51,0,0,1,41.02,20.51Z" transform="translate(41.388 25.548)"/>
    <path id="Path-9" data-name="Path" d="M41.02,20.51A20.51,20.51,0,1,1,20.51,0,20.51,20.51,0,0,1,41.02,20.51Z" transform="translate(39 23.162)" fill="#fff"/>
    <path id="Shape-8" data-name="Shape" d="M22.51,45.021A22.51,22.51,0,0,1,6.593,6.593,22.51,22.51,0,1,1,38.428,38.428,22.364,22.364,0,0,1,22.51,45.021ZM22.51,2A20.51,20.51,0,1,0,43.02,22.51,20.533,20.533,0,0,0,22.51,2Z" transform="translate(37 21.162)"/>
    <path id="Shape-9" data-name="Shape" d="M19.107,38.213A19.106,19.106,0,0,1,5.6,5.6,19.106,19.106,0,1,1,32.617,32.617,18.981,18.981,0,0,1,19.107,38.213ZM19.107,2A17.107,17.107,0,1,0,36.213,19.107,17.127,17.127,0,0,0,19.107,2Z" transform="translate(40.38 24.565)"/>
    <path id="Path-10" data-name="Path" d="M9,4.5A4.5,4.5,0,1,1,4.5,0,4.5,4.5,0,0,1,9,4.5Z" transform="translate(20 23.162)" fill="#fff"/>
    <path id="Shape-10" data-name="Shape" d="M6.5,13A6.5,6.5,0,1,1,13,6.5,6.507,6.507,0,0,1,6.5,13Zm0-11A4.5,4.5,0,1,0,11,6.5,4.505,4.505,0,0,0,6.5,2Z" transform="translate(18 21.162)"/>
    <path id="Path-11" data-name="Path" d="M11,5.5A5.5,5.5,0,1,1,5.5,0,5.5,5.5,0,0,1,11,5.5Z" transform="translate(47 2.162)" fill="#fff"/>
    <path id="Shape-11" data-name="Shape" d="M7.5,15A7.5,7.5,0,1,1,15,7.5,7.509,7.509,0,0,1,7.5,15Zm0-13A5.5,5.5,0,1,0,13,7.5,5.506,5.506,0,0,0,7.5,2Z" transform="translate(45 0.162)"/>
    <path id="Path-12" data-name="Path" d="M11,5.5A5.5,5.5,0,1,1,5.5,0,5.5,5.5,0,0,1,11,5.5Z" transform="translate(89 30.162)" fill="#fff"/>
    <path id="Shape-12" data-name="Shape" d="M7.5,15A7.5,7.5,0,1,1,15,7.5,7.509,7.509,0,0,1,7.5,15Zm0-13A5.5,5.5,0,1,0,13,7.5,5.506,5.506,0,0,0,7.5,2Z" transform="translate(87 28.162)"/>
    <path id="Path-13" data-name="Path" d="M6,3A3,3,0,1,1,3,0,3,3,0,0,1,6,3Z" transform="translate(79 10.162)" fill="#fff"/>
    <path id="Shape-13" data-name="Shape" d="M5,10a5,5,0,1,1,5-5A5.006,5.006,0,0,1,5,10ZM5,2A3,3,0,1,0,8,5,3,3,0,0,0,5,2Z" transform="translate(77 8.162)"/>
    <g id="그룹_1" data-name="그룹 1" transform="matrix(0.891, 0.454, -0.454, 0.891, -289.774, 832.507)">
      <path id="패스_1" data-name="패스 1" d="M-51.553-868s-.992,12.247,3.753,12.247S-44.244-868-44.244-868s-.4,12.247,4.148,12.247S-36.738-868-36.738-868" transform="translate(-3.016)" fill="none" stroke="#000" stroke-linecap="round" stroke-width="2"/>
      <path id="패스_2" data-name="패스 2" d="M-58.322-856.835H-36" transform="translate(0 -5.037)" fill="none" stroke="#000" stroke-linecap="round" stroke-width="2"/>
      <path id="패스_3" data-name="패스 3" d="M-58.322-856.835H-36" transform="translate(0 -7.78)" fill="none" stroke="#000" stroke-linecap="round" stroke-width="2"/>
    </g>
  </g>
</svg>
