<svg xmlns="http://www.w3.org/2000/svg" xmlns:xlink="http://www.w3.org/1999/xlink" viewBox="0 0 815.14 778.83"><defs><style>.cls-1{fill:none;}.cls-2{isolation:isolate;}.cls-3{fill:#104386;}.cls-4{clip-path:url(#clip-path);}.cls-5{fill:#9fac3a;}.cls-6{fill:#a5b23c;}.cls-7{fill:#d6e74e;}.cls-8{clip-path:url(#clip-path-2);}.cls-9{fill:#11488f;}.cls-10{fill:#11478d;}.cls-11{fill:#11468a;}.cls-12{fill:#104488;}.cls-13{fill:#165cb6;}.cls-14{fill:#fff;}</style><clipPath id="clip-path" transform="translate(0 -15.21)"><path class="cls-1" d="M.15,413.81l1.49-49.29c-1.87,62,13.62,125.42,48.45,184.06l-1.48,49.29C13.77,539.23-1.72,475.85.15,413.81Z"/></clipPath><clipPath id="clip-path-2" transform="translate(0 -15.21)"><path class="cls-1" d="M815,391.73,813.5,441c-3.8,125.75-79,245.94-208.93,309.67C410.48,845.86,167.63,779.11,62.16,601.6l1.49-49.29C169.12,729.82,412,796.57,606.06,701.4,736,637.66,811.19,517.48,815,391.73Z"/></clipPath></defs><g id="레이어_2" data-name="레이어 2"><g id="레이어_1-2" data-name="레이어 1"><g class="cls-2"><polygon class="cls-3" points="415.1 364.77 413.61 414.06 184.54 113.9 186.03 64.61 415.1 364.77"/><g class="cls-2"><g class="cls-4"><g class="cls-2"><path class="cls-5" d="M50.09,548.58l-1.48,49.29C13.77,539.23-1.72,475.85.15,413.81l1.49-49.29c-1.87,62,13.62,125.42,48.45,184.06" transform="translate(0 -15.21)"/></g></g></g><polygon class="cls-6" points="401.54 361.04 400.05 410.33 48.6 582.66 50.09 533.37 401.54 361.04"/><path class="cls-7" d="M172.47,76.1,401.54,376.25,50.09,548.58C-48.15,383.22,7.48,180.07,172.47,76.1Z" transform="translate(0 -15.21)"/><g class="cls-2"><g class="cls-8"><g class="cls-2"><path class="cls-9" d="M815,391.73,813.5,441c-2,67.27-24.49,133-64.83,189.25L750.15,581C790.5,524.69,813,459,815,391.73" transform="translate(0 -15.21)"/><path class="cls-10" d="M750.15,581l-1.48,49.29a372.54,372.54,0,0,1-77.42,79.36l1.49-49.29A372.25,372.25,0,0,0,750.15,581" transform="translate(0 -15.21)"/><path class="cls-11" d="M672.74,660.34l-1.49,49.29a402.87,402.87,0,0,1-66.68,41.06q-14.09,6.9-28.48,12.68l1.49-49.29q14.38-5.79,28.48-12.68a403.28,403.28,0,0,0,66.68-41.06" transform="translate(0 -15.21)"/><path class="cls-12" d="M577.58,714.08l-1.49,49.29C387.31,839.15,162.53,770.53,62.16,601.6l1.49-49.29C164,721.24,388.8,789.86,577.58,714.08" transform="translate(0 -15.21)"/></g></g></g><path class="cls-13" d="M224.14,58.57C418.23-36.61,661.07,30.14,766.53,207.65S800.15,606.22,606.06,701.4,169.12,729.82,63.65,552.31L415.1,380,186,79.82A410.24,410.24,0,0,1,224.14,58.57Z" transform="translate(0 -15.21)"/></g><path class="cls-14" d="M318.84,500q3.36-1.82,5.88-3.33t4.3-2.83a19.63,19.63,0,0,0,2.85-2.52,10.49,10.49,0,0,0,1.66-2.4l-14.64.38-.19-5.18,15.45-.24v-6H319.7v-5.19h20.4v11a22.05,22.05,0,0,1-.74,6,13.11,13.11,0,0,1-2.76,4.89,28.79,28.79,0,0,1-5.59,4.75q-3.58,2.43-9.24,5.55Zm34.22-15.16h6.15v5.28h-6.15v23.32H347V468.79h6.09Z" transform="translate(0 -15.21)"/><path class="cls-14" d="M404.61,502.68v5.14H363.72v-5.14ZM369,494.43V472.49h29.86v5.14H375v11.66h24.38v5.14Z" transform="translate(0 -15.21)"/><path class="cls-14" d="M450.69,489.29v4.61H409.8v-4.61ZM445,496V507.1H421.27v2.21h25v4.56H415.41V502.73h23.72v-2.16h-24V496Zm-29.47-8.83v-11h23.38v-2H415.37v-4.56h29.37v10.94H421.37v2.07h24.14v4.56Z" transform="translate(0 -15.21)"/><path class="cls-14" d="M484.05,502.92a13,13,0,0,1-5.25-1,9.24,9.24,0,0,1-3.58-2.69,11,11,0,0,1-2-4.08,19.48,19.48,0,0,1-.65-5.18v-5.33a19.71,19.71,0,0,1,.65-5.16,11,11,0,0,1,2-4.1,9.34,9.34,0,0,1,3.58-2.69,14.86,14.86,0,0,1,10.51,0,9.23,9.23,0,0,1,3.57,2.69,11.22,11.22,0,0,1,2.05,4.1,19.71,19.71,0,0,1,.64,5.16V490a19.49,19.49,0,0,1-.64,5.18,11.2,11.2,0,0,1-2.05,4.08,9.13,9.13,0,0,1-3.57,2.69A13,13,0,0,1,484.05,502.92Zm0-25.82a4.76,4.76,0,0,0-4.39,2.11,11.8,11.8,0,0,0-1.32,6.19v3.89a11.8,11.8,0,0,0,1.32,6.19,5.63,5.63,0,0,0,8.79,0,11.8,11.8,0,0,0,1.32-6.19V485.4a11.8,11.8,0,0,0-1.32-6.19A4.79,4.79,0,0,0,484.05,477.1Zm23.81,36.33h-6.09V468.79h6.09Z" transform="translate(0 -15.21)"/><path class="cls-14" d="M526.29,490.2v-5.37a8.59,8.59,0,0,1-3-2.62,6.19,6.19,0,0,1-1.07-3.58v-1.15a6.18,6.18,0,0,1,1.07-3.57,8.37,8.37,0,0,1,3-2.6,17.57,17.57,0,0,1,4.63-1.58,32,32,0,0,1,11.81,0,17.69,17.69,0,0,1,4.63,1.58,8.45,8.45,0,0,1,3,2.6,6.19,6.19,0,0,1,1.08,3.57v1.15a6.2,6.2,0,0,1-1.08,3.58,8.68,8.68,0,0,1-3,2.62v5.37h9.93v4.95H516.36V490.2Zm10.51,24.58a28.88,28.88,0,0,1-5.54-.51,17,17,0,0,1-4.58-1.51,8.74,8.74,0,0,1-3.12-2.54,5.85,5.85,0,0,1-1.16-3.6v-1.44a5.81,5.81,0,0,1,1.16-3.6,8.76,8.76,0,0,1,3.12-2.55,17.35,17.35,0,0,1,4.58-1.51,31,31,0,0,1,11.09,0,17.35,17.35,0,0,1,4.58,1.51,8.85,8.85,0,0,1,3.12,2.55,5.81,5.81,0,0,1,1.16,3.6v1.44a5.85,5.85,0,0,1-1.16,3.6,8.82,8.82,0,0,1-3.12,2.54,17,17,0,0,1-4.58,1.51A29,29,0,0,1,536.8,514.78Zm0-40.75a20.24,20.24,0,0,0-3.4.26,11.61,11.61,0,0,0-2.74.77,5.9,5.9,0,0,0-1.82,1.17,2,2,0,0,0-.67,1.44v.77a2,2,0,0,0,.67,1.47,6.26,6.26,0,0,0,1.82,1.15,12.11,12.11,0,0,0,2.74.77,22.43,22.43,0,0,0,6.81,0,12.11,12.11,0,0,0,2.74-.77,6.26,6.26,0,0,0,1.82-1.15,2,2,0,0,0,.68-1.47v-.77a2,2,0,0,0-.68-1.44,5.9,5.9,0,0,0-1.82-1.17,11.61,11.61,0,0,0-2.74-.77A20.27,20.27,0,0,0,536.8,474Zm0,27.88a17.58,17.58,0,0,0-3.09.27,12.63,12.63,0,0,0-2.69.74,6.53,6.53,0,0,0-1.9,1.15,2,2,0,0,0-.72,1.49v.67a2,2,0,0,0,.72,1.49,6.32,6.32,0,0,0,1.9,1.15,13.23,13.23,0,0,0,2.69.75,18.55,18.55,0,0,0,6.19,0,13.41,13.41,0,0,0,2.69-.75,6.14,6.14,0,0,0,1.89-1.15,2,2,0,0,0,.73-1.49v-.67a2,2,0,0,0-.73-1.49,6.33,6.33,0,0,0-1.89-1.15,12.79,12.79,0,0,0-2.69-.74A17.61,17.61,0,0,0,536.8,501.91Zm0-15a33.09,33.09,0,0,1-4.51-.29v3.55h9v-3.55A33.9,33.9,0,0,1,536.8,486.94Z" transform="translate(0 -15.21)"/><path class="cls-14" d="M578.76,469.13v5.76h9.6V480H562.58v-5.14h10v-5.76Zm-3.08,34.56a12.93,12.93,0,0,1-4.72-.79,10.66,10.66,0,0,1-3.46-2.11,8.9,8.9,0,0,1-2.86-6.51v-2.83a8.89,8.89,0,0,1,.72-3.48,8.79,8.79,0,0,1,2.14-3,10.68,10.68,0,0,1,3.46-2.12,13.15,13.15,0,0,1,4.72-.79,13.29,13.29,0,0,1,4.71.79,10.78,10.78,0,0,1,3.48,2.12,8.76,8.76,0,0,1,2.13,3,8.89,8.89,0,0,1,.72,3.48v2.83a8.94,8.94,0,0,1-2.85,6.51,10.76,10.76,0,0,1-3.48,2.11A13.07,13.07,0,0,1,575.68,503.69Zm0-5.09a6,6,0,0,0,2.31-.41,5.16,5.16,0,0,0,1.7-1.08,4.44,4.44,0,0,0,1.06-1.53,4.6,4.6,0,0,0,.36-1.78v-1.87a4.6,4.6,0,0,0-.36-1.78,4.53,4.53,0,0,0-1.06-1.53,5.16,5.16,0,0,0-1.7-1.08,6.68,6.68,0,0,0-4.61,0,5.16,5.16,0,0,0-1.7,1.08,4.53,4.53,0,0,0-1.06,1.53,4.6,4.6,0,0,0-.36,1.78v1.87a4.6,4.6,0,0,0,.36,1.78,4.44,4.44,0,0,0,1.06,1.53,5.16,5.16,0,0,0,1.7,1.08A5.93,5.93,0,0,0,575.68,498.6Zm22.18-12.53H604v5.28h-6.14v22.08h-6.1V468.79h6.1Z" transform="translate(0 -15.21)"/><path class="cls-14" d="M622.58,502.68V487.13h6v15.55h20.78v5.14H608.52v-5.14Zm13.58-5.42a73.8,73.8,0,0,0,1.2-8.4q.35-4,.34-8.26v-2.78H613.41v-5.23h30.34V479q0,5.61-.39,10.2a78.41,78.41,0,0,1-1.2,8.76Z" transform="translate(0 -15.21)"/><path class="cls-14" d="M683.11,484.35a5,5,0,0,1-.87,1.29,23.1,23.1,0,0,1-2.11,2c-1.12,1-2.29,1.93-3.5,2.93s-2.5,2-3.84,3l-3.6-4.46c1.4-1,2.69-2,3.86-3s2.33-1.94,3.48-3a10.52,10.52,0,0,0,2.38-3.12,9.12,9.12,0,0,0,.88-4.12v-5.57h6.15v5.37a17,17,0,0,0,.12,2.14,6.29,6.29,0,0,0,.48,1.75,6.46,6.46,0,0,0,1,1.56,11.1,11.1,0,0,0,1.59,1.51c.93.77,2,1.61,3.26,2.52s2.48,1.79,3.7,2.62l-3.36,4.22c-1.12-.76-2.2-1.53-3.24-2.3s-2-1.5-2.91-2.21-1.57-1.24-2.23-1.8a3.78,3.78,0,0,1-1.18-1.41Zm23,15.6h-4.56v8.68h4.8v4.8H676.58v-4.8h4.75V500h-4.51v-4.8h29.33Zm-19,8.68h8.54V500h-8.54Zm18.91-15.5h-6.05V468.79h6.05Z" transform="translate(0 -15.21)"/><path class="cls-14" d="M717.33,472.63H738v5.24H723.43v18.76h3c2.3,0,4.77-.08,7.39-.24s5.07-.4,7.35-.72l.67,5.19c-1.12.19-2.35.35-3.7.48s-2.75.23-4.22.31-3,.14-4.47.17-3,.05-4.46.05h-7.68Zm33.17,11.81h6.14v5.28H750.5v23.71h-6.1V468.79h6.1Z" transform="translate(0 -15.21)"/><path class="cls-14" d="M50.84,347.24q4.29-1.56,6.82-2.68a20.31,20.31,0,0,0,3.88-2.1,4.7,4.7,0,0,0,1.74-2,6.42,6.42,0,0,0,.4-2.38V336.8H52.4v-4.24H68.72v5.84a9.82,9.82,0,0,1-.74,4.06,7.63,7.63,0,0,1-2.58,3,23.55,23.55,0,0,1-5,2.66q-3.12,1.31-7.84,3ZM81.2,351.4v10.48H62.76v2.76H82.32v4H57.88V358.08H76.32v-2.72H57.68v-4Zm-5-16.52v-3.8h5v18.64h-5v-3.28H70v-4.2H76.2v-3.16H70.6v-4.2Z" transform="translate(0 -15.21)"/><path class="cls-14" d="M87.6,334.64h16.6V339H98.48v4.72a12.43,12.43,0,0,0,.12,1.84A6.35,6.35,0,0,0,99,347a8.27,8.27,0,0,0,.72,1.38,16,16,0,0,0,1,1.44c.75.94,1.59,1.91,2.54,2.92s1.85,1.95,2.7,2.8l-3.32,3.12c-.77-.8-1.54-1.61-2.3-2.44s-1.45-1.6-2.06-2.32c-.48-.56-.91-1.08-1.3-1.56a5.14,5.14,0,0,1-.78-1.2h0a5.65,5.65,0,0,1-.78,1.24c-.39.51-.83,1.07-1.34,1.68-.66.8-1.43,1.68-2.28,2.62s-1.69,1.84-2.52,2.66L86,356c.83-.8,1.71-1.72,2.66-2.76s1.81-2,2.58-3a15.42,15.42,0,0,0,1.1-1.52A7.71,7.71,0,0,0,93,347.3a7.07,7.07,0,0,0,.4-1.6,14.41,14.41,0,0,0,.12-2V339h-6Zm19.28,13h-4.56v-4.4h4.56V331.84h4.8v34.64h-4.8Zm12.28,20.68h-4.8v-37.2h4.8Z" transform="translate(0 -15.21)"/><path class="cls-14" d="M157.2,351.84v4.28H142.72v12.16h-5.08V356.12H123.12v-4.28Zm-17-9.28a4.09,4.09,0,0,1-1.44,1.32,31.38,31.38,0,0,1-3.12,1.76c-.56.3-1.19.61-1.9.94s-1.43.67-2.16,1-1.47.66-2.2,1-1.42.62-2.06.88l-2.08-4.16c1.41-.58,2.9-1.24,4.46-2s3-1.44,4.38-2.16a7,7,0,0,0,2.68-2.22,5.48,5.48,0,0,0,.8-3.06v-3.52h5.12v3.52a5.48,5.48,0,0,0,.8,3.06,7,7,0,0,0,2.68,2.22q2,1.08,4.38,2.16c1.56.72,3,1.38,4.46,2l-2,4.08c-.64-.26-1.33-.56-2.06-.88s-1.47-.64-2.2-1-1.45-.66-2.16-1-1.34-.64-1.9-.94a28.18,28.18,0,0,1-3-1.72,4.35,4.35,0,0,1-1.38-1.28Z" transform="translate(0 -15.21)"/><path class="cls-14" d="M161,333.36h17.4v4.36H166v9.56c1.39,0,2.71,0,4,0s2.47,0,3.66-.08,2.38-.1,3.58-.2,2.44-.2,3.72-.34l.44,4.24c-1.2.16-2.46.29-3.78.38s-2.78.17-4.38.22-3.39.09-5.38.1-4.26,0-6.82,0Zm9.92,30.2h19v4.32h-24v-12.4H171ZM189,340.32h4.88v4.4H189v12.84h-5V331.08h5Z" transform="translate(0 -15.21)"/><path class="cls-14" d="M230,350.28v4.24H195.92v-4.24ZM205.76,363.6h20.16v4.28h-25.2V356.76h5ZM213,348a22.15,22.15,0,0,1-4.92-.5,13.38,13.38,0,0,1-3.86-1.44,7.26,7.26,0,0,1-2.52-2.32,5.6,5.6,0,0,1-.9-3.14v-1.52a5.63,5.63,0,0,1,.9-3.14,7.36,7.36,0,0,1,2.52-2.32,14,14,0,0,1,3.86-1.44,24.46,24.46,0,0,1,9.84,0,14,14,0,0,1,3.86,1.44,7.36,7.36,0,0,1,2.52,2.32,5.63,5.63,0,0,1,.9,3.14v1.52a5.6,5.6,0,0,1-.9,3.14,7.26,7.26,0,0,1-2.52,2.32,13.38,13.38,0,0,1-3.86,1.44A22.15,22.15,0,0,1,213,348Zm0-12.24a13.85,13.85,0,0,0-3,.3,9.3,9.3,0,0,0-2.26.78,4.36,4.36,0,0,0-1.42,1.12,2.2,2.2,0,0,0-.5,1.36v1a2.18,2.18,0,0,0,.5,1.36,4.23,4.23,0,0,0,1.42,1.12,9.3,9.3,0,0,0,2.26.78,15.35,15.35,0,0,0,6,0,9.3,9.3,0,0,0,2.26-.78,4.23,4.23,0,0,0,1.42-1.12,2.18,2.18,0,0,0,.5-1.36v-1a2.2,2.2,0,0,0-.5-1.36,4.36,4.36,0,0,0-1.42-1.12,9.3,9.3,0,0,0-2.26-.78A13.85,13.85,0,0,0,213,335.76Z" transform="translate(0 -15.21)"/><path class="cls-14" d="M61.32,397A4,4,0,0,1,60.6,398a19.16,19.16,0,0,1-1.76,1.68c-.93.8-1.9,1.61-2.9,2.42s-2.06,1.65-3.18,2.5l-3-3.72c1.18-.85,2.24-1.66,3.2-2.44s1.92-1.6,2.88-2.48a8.52,8.52,0,0,0,2-2.6,7.48,7.48,0,0,0,.74-3.44V384.6h5.12v5.2a13.49,13.49,0,0,0,.1,1.78,5.33,5.33,0,0,0,.4,1.46,5.45,5.45,0,0,0,.82,1.3,8.93,8.93,0,0,0,1.32,1.26c.78.64,1.68,1.34,2.7,2.08s2,1.47,3.06,2.16l-2.8,3.52c-.93-.64-1.82-1.27-2.68-1.9s-1.65-1.23-2.4-1.82-1.31-1-1.86-1.5a3.09,3.09,0,0,1-1-1.18Zm7.24,24.44a19.27,19.27,0,0,1-4.66-.52,11.81,11.81,0,0,1-3.6-1.48A7.18,7.18,0,0,1,58,417.1a5.57,5.57,0,0,1-.82-2.94v-1.68a5.62,5.62,0,0,1,.82-2.94,7.28,7.28,0,0,1,2.32-2.3,12.06,12.06,0,0,1,3.6-1.48,21.14,21.14,0,0,1,9.32,0,12.06,12.06,0,0,1,3.6,1.48,7.18,7.18,0,0,1,2.32,2.3,5.53,5.53,0,0,1,.82,2.94v1.68a5.48,5.48,0,0,1-.82,2.94,7.08,7.08,0,0,1-2.32,2.3,11.81,11.81,0,0,1-3.6,1.48A19.21,19.21,0,0,1,68.56,421.4Zm0-12a10.74,10.74,0,0,0-2.72.32,8.09,8.09,0,0,0-2,.82,4.61,4.61,0,0,0-1.26,1.1,2,2,0,0,0-.44,1.2v1a2,2,0,0,0,.44,1.2,4.45,4.45,0,0,0,1.26,1.1,7.4,7.4,0,0,0,2,.82,11.72,11.72,0,0,0,5.44,0,7.4,7.4,0,0,0,2-.82,4.19,4.19,0,0,0,1.26-1.1,2,2,0,0,0,.44-1.2v-1a2,2,0,0,0-.44-1.2,4.33,4.33,0,0,0-1.26-1.1,8.09,8.09,0,0,0-2-.82A10.69,10.69,0,0,0,68.56,409.36Zm11.28-17.8h4.88V396H79.84v9.12h-5v-22h5Z" transform="translate(0 -15.21)"/><path class="cls-14" d="M86.76,401.44h6.4V394.2h5v7.16q3.84,0,6.6-.2c1.84-.1,3.48-.24,4.92-.4l.36,4.28c-1.09.14-2.35.25-3.78.34s-3.08.17-5,.22-4,.1-6.42.12-5.12,0-8.16,0Zm20.64-16.52v5.4c0,.54,0,1.15-.06,1.84s-.09,1.42-.16,2.16-.15,1.5-.26,2.24a18.93,18.93,0,0,1-.4,2l-4.88-.6a35.85,35.85,0,0,0,.62-4c.12-1.25.18-2.3.18-3.16v-1.6H88.92v-4.36ZM97.32,415.68h20.24V420H92.24V408.68h5.08ZM116.56,394h4.92v4.4h-4.92v12.28h-5v-27.6h5Z" transform="translate(0 -15.21)"/><path class="cls-14" d="M149,395H142.8a7.25,7.25,0,0,1-1,2.64,8.11,8.11,0,0,1-2,2.18,9.22,9.22,0,0,1-2.82,1.48,11.42,11.42,0,0,1-3.62.54,10.9,10.9,0,0,1-4-.68,9.37,9.37,0,0,1-3-1.82,7.66,7.66,0,0,1-1.88-2.6,7.46,7.46,0,0,1-.64-3.06v-1.44a7.53,7.53,0,0,1,.64-3.06,7.76,7.76,0,0,1,1.88-2.6,9.56,9.56,0,0,1,3-1.82,12.06,12.06,0,0,1,7.56-.14,9.86,9.86,0,0,1,2.8,1.44,8,8,0,0,1,2,2.1,7.68,7.68,0,0,1,1,2.56H149v-7.68h5v19.68h-5Zm-.08,19.88a2.91,2.91,0,0,1-.64,1.06c-.35.42-.79.93-1.32,1.54s-.91,1-1.46,1.56L143.6,421l-2.6-2.6v2H128.12V404.48h4.52v4h3.76v-4H141v12.44c.69-.66,1.35-1.32,2-2s1.19-1.28,1.72-1.92a7.41,7.41,0,0,0,.82-1.1,5.38,5.38,0,0,0,.48-1,4.51,4.51,0,0,0,.24-1.12c0-.41.06-.9.06-1.46v-3.92h5v3.92a14,14,0,0,0,.06,1.42,5.36,5.36,0,0,0,.22,1.1,4.3,4.3,0,0,0,.46,1,10.29,10.29,0,0,0,.82,1.12,23.83,23.83,0,0,0,2,2.28c.75.75,1.55,1.54,2.4,2.36l-3.16,3.16c-.69-.69-1.32-1.32-1.88-1.9s-1.05-1.08-1.48-1.54-1-1.06-1.3-1.44A2.62,2.62,0,0,1,148.88,414.92ZM133.4,388.4a5.24,5.24,0,0,0-2,.36,4.84,4.84,0,0,0-1.48.92A3.93,3.93,0,0,0,129,391a3.57,3.57,0,0,0-.32,1.44v1.2A3.57,3.57,0,0,0,129,395a3.83,3.83,0,0,0,.92,1.28,4.65,4.65,0,0,0,1.48.92,5.74,5.74,0,0,0,4,0,4.65,4.65,0,0,0,1.48-.92,3.83,3.83,0,0,0,.92-1.28,3.57,3.57,0,0,0,.32-1.44v-1.2a3.57,3.57,0,0,0-.32-1.44,3.93,3.93,0,0,0-.92-1.28,4.84,4.84,0,0,0-1.48-.92A5.24,5.24,0,0,0,133.4,388.4Zm3,28v-4h-3.76v4Z" transform="translate(0 -15.21)"/><path class="cls-14" d="M161.4,386.28h17.2v4.36H166.48v15.64H169c1.92,0,4-.06,6.16-.2s4.23-.33,6.12-.6l.56,4.32c-.93.16-2,.3-3.08.4s-2.29.2-3.52.26-2.47.12-3.72.14-2.49,0-3.72,0h-6.4ZM189,396.12h5.12v4.4H189v19.76H184v-37.2H189Z" transform="translate(0 -15.21)"/><path class="cls-14" d="M538.08,431.39h-9.72l19.94-44.13H520.87v-7.78H558v7.06Z" transform="translate(0 -15.21)"/><path class="cls-14" d="M600.57,389.92a20.59,20.59,0,0,0-5.11-2.16,22.6,22.6,0,0,0-5.9-.72,10.5,10.5,0,0,0-3.86.72,8.6,8.6,0,0,0-3.31,2.41,14.09,14.09,0,0,0-2.48,4.47,24.5,24.5,0,0,0-1.23,6.95,11.56,11.56,0,0,1,5.08-3.39,19.29,19.29,0,0,1,6.59-1.15,18.46,18.46,0,0,1,6.77,1.19,14.05,14.05,0,0,1,5.11,3.38,14.94,14.94,0,0,1,3.2,5.29,20,20,0,0,1,1.12,6.84v1.44a17.92,17.92,0,0,1-1.26,6.74,15.3,15.3,0,0,1-3.64,5.4,16.89,16.89,0,0,1-5.79,3.56,21.81,21.81,0,0,1-7.74,1.3,21.09,21.09,0,0,1-8.5-1.55,14.54,14.54,0,0,1-5.76-4.43,18.89,18.89,0,0,1-3.28-6.95,36.6,36.6,0,0,1-1-9v-3.32a50.92,50.92,0,0,1,1.62-14.07,22.2,22.2,0,0,1,4.43-8.64,14.59,14.59,0,0,1,6.55-4.32,26.35,26.35,0,0,1,8-1.19,32.82,32.82,0,0,1,7.2.83,19.78,19.78,0,0,1,6.63,2.77Zm-21.74,25a9,9,0,0,0,2.3,6.58c1.54,1.56,3.79,2.34,6.77,2.34q4.76,0,7.16-2.34a8.85,8.85,0,0,0,2.42-6.66V414q0-4.53-2.24-6.73c-1.48-1.46-3.81-2.2-7-2.2a11.74,11.74,0,0,0-4.28.69,8.11,8.11,0,0,0-2.92,1.87,7.32,7.32,0,0,0-1.69,2.77,10.47,10.47,0,0,0-.54,3.39Z" transform="translate(0 -15.21)"/><path class="cls-14" d="M621.38,425.35h9.14v9.36h-9.14Z" transform="translate(0 -15.21)"/><path class="cls-14" d="M677.11,389.92a20.91,20.91,0,0,0-5.11-2.16,22.68,22.68,0,0,0-5.91-.72,10.45,10.45,0,0,0-3.85.72,8.6,8.6,0,0,0-3.31,2.41,14.1,14.1,0,0,0-2.49,4.47,24.19,24.19,0,0,0-1.22,6.95,11.59,11.59,0,0,1,5.07-3.39,19.33,19.33,0,0,1,6.59-1.15,18.43,18.43,0,0,1,6.77,1.19,14,14,0,0,1,5.11,3.38,15.11,15.11,0,0,1,3.21,5.29,20.19,20.19,0,0,1,1.11,6.84v1.44a17.92,17.92,0,0,1-1.26,6.74,15.4,15.4,0,0,1-3.63,5.4,17,17,0,0,1-5.8,3.56,21.81,21.81,0,0,1-7.74,1.3,21.16,21.16,0,0,1-8.5-1.55,14.54,14.54,0,0,1-5.76-4.43,18.88,18.88,0,0,1-3.27-6.95,36.11,36.11,0,0,1-1-9v-3.32a50.87,50.87,0,0,1,1.63-14.07,22.19,22.19,0,0,1,4.42-8.64,14.7,14.7,0,0,1,6.55-4.32,26.37,26.37,0,0,1,8-1.19,32.82,32.82,0,0,1,7.2.83,19.82,19.82,0,0,1,6.62,2.77Zm-21.75,25a9,9,0,0,0,2.31,6.58q2.3,2.34,6.77,2.34,4.74,0,7.16-2.34a8.84,8.84,0,0,0,2.41-6.66V414q0-4.53-2.23-6.73c-1.49-1.46-3.82-2.2-7-2.2a11.78,11.78,0,0,0-4.28.69,8.11,8.11,0,0,0-2.92,1.87,7.45,7.45,0,0,0-1.69,2.77,10.47,10.47,0,0,0-.54,3.39Z" transform="translate(0 -15.21)"/><path class="cls-14" d="M706.63,378.47a12.1,12.1,0,0,1,9,3.35,12.33,12.33,0,0,1,3.31,9v2.81a12.3,12.3,0,0,1-3.31,9,12.1,12.1,0,0,1-9,3.35q-5.7,0-9-3.35a12.27,12.27,0,0,1-3.32-9v-2.81a12.29,12.29,0,0,1,3.32-9Q700.93,378.48,706.63,378.47Zm0,21.46c2,0,3.38-.58,4.1-1.73a8.76,8.76,0,0,0,1.08-4.68V391a8.78,8.78,0,0,0-1.08-4.64c-.72-1.18-2.09-1.77-4.1-1.77s-3.39.59-4.11,1.77a8.78,8.78,0,0,0-1.08,4.64v2.52a8.76,8.76,0,0,0,1.08,4.68C703.24,399.35,704.61,399.93,706.63,399.93Zm-3.17,31.39,31-51.84h8.28l-31,51.84Zm36.21-26.93q5.7,0,9,3.35a12.29,12.29,0,0,1,3.32,9v2.81a12.27,12.27,0,0,1-3.32,9q-3.3,3.35-9,3.35a12.1,12.1,0,0,1-9-3.35,12.3,12.3,0,0,1-3.31-9v-2.81a12.33,12.33,0,0,1,3.31-9A12.1,12.1,0,0,1,739.67,404.39Zm0,21.46c2,0,3.39-.58,4.11-1.73a8.76,8.76,0,0,0,1.08-4.68v-2.52a8.78,8.78,0,0,0-1.08-4.64q-1.08-1.77-4.11-1.77c-2,0-3.38.59-4.1,1.77a8.78,8.78,0,0,0-1.08,4.64v2.52a8.76,8.76,0,0,0,1.08,4.68C736.29,425.27,737.66,425.85,739.67,425.85Z" transform="translate(0 -15.21)"/><path class="cls-14" d="M68.33,282.06a29,29,0,0,0,2.35-2.69,12.72,12.72,0,0,0,1.3-2.06,5.76,5.76,0,0,0,.53-1.68,12.93,12.93,0,0,0,.09-1.49v-.39a3.49,3.49,0,0,0-1.13-2.52,5.27,5.27,0,0,0-3.81-1.12,9.35,9.35,0,0,0-1.9.19,6.33,6.33,0,0,0-1.85.72,8.16,8.16,0,0,0-1.8,1.49A14.14,14.14,0,0,0,60.36,275l-4.61-3a26.64,26.64,0,0,1,1.56-2.4,11.55,11.55,0,0,1,2.36-2.38,12.74,12.74,0,0,1,3.36-1.8,13.15,13.15,0,0,1,4.58-.72,15.7,15.7,0,0,1,5,.72,9.88,9.88,0,0,1,3.48,1.95,7.65,7.65,0,0,1,2,2.83,9,9,0,0,1,.64,3.38V274a12,12,0,0,1-1.27,5.4,19.21,19.21,0,0,1-3.72,5L63.63,294.68H80.09v5.09H55.61v-4.61Z" transform="translate(0 -15.21)"/><path class="cls-14" d="M86.09,269.63A13.62,13.62,0,0,1,90.22,266a12.32,12.32,0,0,1,6.14-1.37,14.47,14.47,0,0,1,4.42.63,10.1,10.1,0,0,1,3.36,1.75,7.7,7.7,0,0,1,2.16,2.74,8.07,8.07,0,0,1,.77,3.52v.48a12.59,12.59,0,0,1-.22,2.19,7.74,7.74,0,0,1-.79,2.25,8.06,8.06,0,0,1-1.54,2,7.34,7.34,0,0,1-2.45,1.48,7.91,7.91,0,0,1,5.09,2.74,8.06,8.06,0,0,1,1.63,5.09v.72A9.72,9.72,0,0,1,108,294a9,9,0,0,1-2.33,3.22,11.78,11.78,0,0,1-3.94,2.23,16.59,16.59,0,0,1-5.54.84,18.12,18.12,0,0,1-5.83-.94,16.72,16.72,0,0,1-5.26-2.9l3-4.8q1.26.91,2.28,1.53a11.94,11.94,0,0,0,2,1,9.13,9.13,0,0,0,1.87.5,12.13,12.13,0,0,0,2,.15,7.4,7.4,0,0,0,4.8-1.3,4.45,4.45,0,0,0,1.53-3.6v-.62a4.42,4.42,0,0,0-1.49-3.72c-1-.79-2.59-1.18-4.8-1.18H91.66v-5.28h4.13a8.25,8.25,0,0,0,2.66-.36,3.81,3.81,0,0,0,1.61-1,3.53,3.53,0,0,0,.79-1.58,9.38,9.38,0,0,0,.22-2v-.39a3.23,3.23,0,0,0-1.28-2.85,5.89,5.89,0,0,0-3.43-.89,6.84,6.84,0,0,0-3.57.82,10.9,10.9,0,0,0-2.52,2.06Z" transform="translate(0 -15.21)"/><path class="cls-14" d="M117.87,295.74H124V302h-6.09Z" transform="translate(0 -15.21)"/><path class="cls-14" d="M153.14,277.26v10.37h4.71v4.94h-4.71v7.2h-6v-7.2H129.86v-4l15.75-23.43h6.62l-15.12,22.47h10V277.26Z" transform="translate(0 -15.21)"/><path class="cls-14" d="M169.9,264.49a8.07,8.07,0,0,1,6,2.23,8.21,8.21,0,0,1,2.2,6v1.87a8.18,8.18,0,0,1-2.2,6,8.22,8.22,0,0,1-14.21-6v-1.87a8.17,8.17,0,0,1,2.21-6A8,8,0,0,1,169.9,264.49Zm0,14.3a3,3,0,0,0,2.73-1.15,5.86,5.86,0,0,0,.72-3.12v-1.68a5.84,5.84,0,0,0-.72-3.09,3.76,3.76,0,0,0-5.47,0,5.84,5.84,0,0,0-.72,3.09v1.68a5.86,5.86,0,0,0,.72,3.12A3,3,0,0,0,169.9,278.79Zm-2.12,20.93,20.69-34.56H194l-20.64,34.56Zm24.15-18a8,8,0,0,1,6,2.23,8.21,8.21,0,0,1,2.21,6v1.87a8.19,8.19,0,0,1-2.21,6,9.19,9.19,0,0,1-12,0,8.19,8.19,0,0,1-2.21-6V290a8.21,8.21,0,0,1,2.21-6A8,8,0,0,1,191.93,281.77Zm0,14.3a3,3,0,0,0,2.73-1.15,5.86,5.86,0,0,0,.72-3.12v-1.68a5.84,5.84,0,0,0-.72-3.09,3.76,3.76,0,0,0-5.47,0,5.84,5.84,0,0,0-.72,3.09v1.68a5.86,5.86,0,0,0,.72,3.12A3,3,0,0,0,191.93,296.07Z" transform="translate(0 -15.21)"/></g></g></svg>