<svg xmlns="http://www.w3.org/2000/svg" viewBox="0 0 1107.12 1110.17"><defs><style>.cls-1{fill:#f4f6fb;}.cls-2{fill:#369c3d;}.cls-3{fill:#01753f;}.cls-4{fill:#50c65e;}.cls-5{fill:#0070e0;}.cls-6{fill:#f2ebe3;}.cls-7{fill:#b5bec5;}.cls-8{fill:#ffc701;}.cls-9{fill:#fff;}.cls-10{fill:#cfd9e1;}.cls-11{fill:#9ea7ad;}.cls-12{fill:#ffac8d;}.cls-13{fill:#ffbda6;}.cls-14{fill:#ea9680;}.cls-15{fill:#de827d;}.cls-16{fill:#3d4045;}.cls-17{fill:#323439;}.cls-18{fill:#b0b3b9;}.cls-19{fill:#ffa801;}.cls-20{fill:#d9dbe1;}.cls-21{fill:#d5d7dd;}</style></defs><g id="레이어_2" data-name="레이어 2"><g id="OBJECTS"><path class="cls-1" d="M395,66.64c-35.23,3.66-67.4,14.79-92.83,45-53,63-77.29,143.16-121.9,211.7-23.65,36.35-52.88,69.21-76.53,105.56-44.46,68.32-66.12,157-43.74,236.8,10,35.62,34.89,65.61,60.8,93,80.73,85.42,178.33,157.45,288.93,203.65s234.49,65.85,354,48.76c48.41-6.93,97-20.3,136.34-48,32.37-22.75,57-54.13,77.16-87.26,55.55-91.32,79.55-198,80.63-303.43.77-76-11.72-149.82-26.59-224.24-7.76-38.81-5.92-85.16-24.89-121.08-21.43-40.55-79.57-69.48-120.26-89.56-47.79-23.6-99.43-39.76-152-50.42-79.17-16-160.5-19.89-241.44-20.86C459.39,66,426,63.41,395,66.64Z"/><path class="cls-2" d="M279.17,414.05C214.76,383.52,138.33,379.36,71,402.71c-11.33,3.93-22.62,8.73-31.7,16.56s-15.78,19.16-15.64,31.15c.14,11.11,6.12,21.56,14.25,29.14s18.27,12.63,28.51,16.94c65,27.34,137.67,28.11,206.58,43a509.46,509.46,0,0,1,156.35,62.35c1.4-30.18-19.6-61.1-35.43-86a281.56,281.56,0,0,0-67.51-73.16A270.13,270.13,0,0,0,279.17,414.05Z"/><path class="cls-3" d="M420.59,587.85a4.67,4.67,0,0,1-3.58-1.66C266.34,408.12,49.83,456.32,47.66,456.83a4.67,4.67,0,0,1-2.13-9.1c2.23-.52,224.29-50,378.62,132.43a4.68,4.68,0,0,1-3.56,7.69Z"/><path class="cls-4" d="M159.51,756.4c-23.5,10.15-47.69,14.49-72.88,3.92-23-9.64-45.36-30.06-41.55-57.25,5.57-39.75,42-66,72.3-87.84,33.75-24.35,72.71-46.39,112.82-58.14a768.08,768.08,0,0,1,137.39-26.55,778.88,778.88,0,0,1,82.52-4.06c-6.05,4.37-11.15,9.82-17.09,14.2-7.24,5.34-15,10-22.29,15.31-14.17,10.4-27.72,21.62-40.88,33.26-32.55,28.81-62.45,60.52-94.64,89.59a493.15,493.15,0,0,1-100.8,70.38C169.47,751.82,164.51,754.24,159.51,756.4Z"/><path class="cls-2" d="M98,746.79a4.67,4.67,0,0,1-3.91-7.24C95.1,738,196,587.75,428.76,527.23a4.68,4.68,0,1,1,2.35,9C202,595.85,102.9,743.21,101.93,744.69A4.68,4.68,0,0,1,98,746.79Z"/><path class="cls-2" d="M403.31,744.73c-18.63,25.79-36.19,52.85-46.47,83s-12.76,63.82-1.32,93.51c7.91,20.54,23,39,43.41,47.35s46,5,61.18-11c12.76-13.4,16.59-32.93,17.71-51.4,1.79-29.44-1.83-58.89-4.51-88.26-4.32-47.26-2-95-5.95-142.06C440,686.68,419.83,721.87,403.31,744.73Z"/><path class="cls-3" d="M418.58,950.11a3.66,3.66,0,0,1-4.82-1.53c-39.21-71.43,36.08-247.64,39.3-255.11a3.67,3.67,0,0,1,6.73,2.91c-.78,1.79-77.1,180.37-39.61,248.68a3.65,3.65,0,0,1-1.45,5Z"/><path class="cls-4" d="M813.79,730c21.31,23.64,44.07,46.49,71.35,62.87s59.71,25.88,91.14,20.94c21.75-3.43,43-14.34,55.41-32.5s14.54-43.93,2.14-62.12c-10.42-15.29-28.7-23.13-46.53-28.11-28.41-7.93-58-10.58-87.24-14.13-47.12-5.7-93.32-18-140.14-24C764.73,682,794.91,709.08,813.79,730Z"/><path class="cls-2" d="M1017.8,758.24a3.65,3.65,0,0,1-2.51,4.39c-78.08,23.33-234.54-87.29-241.16-92a3.66,3.66,0,1,1,4.25-6c1.59,1.14,160.15,113.27,234.82,91a3.67,3.67,0,0,1,4.55,2.47S1017.78,758.18,1017.8,758.24Z"/><path class="cls-2" d="M629.93,552.09c110.75-58.73,246-54.36,366.14-18.49,42.66,12.74,87,31.4,111,68.87-15.67,14.28-36.52,21.33-57.1,26.43-83,20.54-169.9,15-255.29,10.75q-96.57-4.75-193.24-6.93c-10.87-.24-79.17,5.37-83.35-2.85-4.71-9.27,26.31-24.61,32.47-28.54C576.83,584.63,602.43,566.68,629.93,552.09Z"/><path class="cls-3" d="M562.05,622.44a4.65,4.65,0,0,1-1.68-9c2.52-1,255.49-97.21,532.48-18.72a4.65,4.65,0,1,1-2.53,8.94c-274-77.65-524.09,17.47-526.59,18.44A4.51,4.51,0,0,1,562.05,622.44Z"/><path class="cls-4" d="M798.75,533.9C755.4,561.82,695.16,593,641.92,588.24c-.07-45,17.18-89.75,31.42-131.88,14.57-43.08,31.83-85.45,55-124.71,61-103.5,163-182,278.62-214.54,10.52-3,22.72-5.28,31.62,1,7.7,5.48,10.24,15.64,11.56,25,7.07,50.28-5.41,101.91-27.93,147.41S967.5,376.1,933.54,413.84C893.17,458.7,849.48,501.21,798.75,533.9Z"/><path class="cls-2" d="M659.6,576a4.65,4.65,0,0,1-3.42-7.8c3.25-3.52,325.22-353.47,366.27-431a4.64,4.64,0,0,1,8.21,4.34c-41.61,78.6-354.35,418.54-367.65,433A4.63,4.63,0,0,1,659.6,576Z"/><path class="cls-4" d="M422.77,466C377.53,348.18,272,262.1,157.09,209.93c-40.8-18.52-86.79-33.66-129.81-21.12,2.46,21.19,13.63,40.33,25.88,57.8,49.42,70.45,119.06,123.64,186.66,176.89Q316.26,483.71,391.07,546c8.41,7,56.54,56.39,65.15,52.91,9.7-3.92-3.71-36.06-5.79-43.11C441.57,525.74,434,495.2,422.77,466Z"/><path class="cls-2" d="M448.64,587.85a4.69,4.69,0,0,1-4.21-2.62C343.38,378.53,47.24,205.61,44.25,203.89a4.68,4.68,0,0,1,4.69-8.1c3,1.74,301.6,176.1,403.89,385.33a4.66,4.66,0,0,1-2.14,6.25A4.56,4.56,0,0,1,448.64,587.85Z"/><circle class="cls-5" cx="926.69" cy="127.74" r="127.74"/><path class="cls-6" d="M1008,65H992.22A14,14,0,0,0,978.61,76l-1.41,6.38a13.77,13.77,0,0,0-9-3.38H875.88a13.93,13.93,0,0,0-13.52,17.31L874.54,145a23.18,23.18,0,0,0,22.53,17.6H947a5.54,5.54,0,0,0,.79-.06h.06a23.19,23.19,0,0,0,12.64-4.32l-2.17,9.86a4.64,4.64,0,0,1-4.57,3.82H868.62a4.65,4.65,0,0,0,0,9.29h85.15a13.89,13.89,0,0,0,13.68-11.28L987.68,78a4.67,4.67,0,0,1,4.54-3.65H1008a4.65,4.65,0,0,0,0-9.29ZM972.13,90.51l-2.33,11.68H952.24V88.26h16A4.47,4.47,0,0,1,972.13,90.51Zm-5.82,29.14-2.6,10.41H952.24V111.48h15.7Zm-39.62,33.64V139.35H943v13.94Zm-51-41.81h13.8v18.58h-9.15Zm51,0H943v18.58H926.69Zm-27.87-9.29V88.26H917.4v13.93Zm18.58,9.29v18.58H898.82V111.48Zm-18.58,27.87H917.4v13.94H898.82ZM943,102.19H926.69V88.26H943ZM872.22,90a4.61,4.61,0,0,1,3.66-1.78h13.65v13.93H873.41l-2-8.16A4.62,4.62,0,0,1,872.22,90Zm11.32,52.69-.84-3.38h6.83V151A13.89,13.89,0,0,1,883.54,142.73Zm68.7,9.51V139.35h9.15l-.85,3.38A13.92,13.92,0,0,1,952.24,152.24Z"/><circle class="cls-7" cx="954.56" cy="183.48" r="11.61" transform="translate(465.41 1023.47) rotate(-70.67)"/><circle class="cls-7" cx="894.17" cy="183.48" r="11.61" transform="translate(570.33 1036.91) rotate(-80.82)"/><circle class="cls-8" cx="917.4" cy="425.02" r="58.06" transform="translate(-31.84 773.18) rotate(-45)"/><path class="cls-9" d="M933.66,436.93A17.73,17.73,0,0,0,916,419.22h-6.81a9.54,9.54,0,0,1,0-19.07h17a4.09,4.09,0,1,0,0-8.17h-8.85v-6.81a4.09,4.09,0,1,0-8.17,0V392a17.71,17.71,0,1,0,0,35.41H916a9.54,9.54,0,0,1,0,19.07h-17a4.09,4.09,0,0,0,0,8.17h10.22v6.81a4.09,4.09,0,1,0,8.17,0v-6.88A17.72,17.72,0,0,0,933.66,436.93Z"/><circle class="cls-10" cx="973.79" cy="403.86" r="25.55" transform="translate(-62.6 210.83) rotate(-11.97)"/><path class="cls-7" d="M985.4,399.22h-7v-7a4.65,4.65,0,0,0-9.29,0v7h-7a4.65,4.65,0,1,0,0,9.29h7v7a4.65,4.65,0,0,0,9.29,0v-7h7a4.65,4.65,0,1,0,0-9.29Z"/><circle class="cls-8" cx="982.43" cy="555.08" r="58.06"/><path class="cls-9" d="M998.69,567A17.73,17.73,0,0,0,981,549.28h-6.81a9.54,9.54,0,0,1,0-19.07h17a4.09,4.09,0,1,0,0-8.17h-8.85v-6.81a4.09,4.09,0,0,0-8.17,0V522a17.71,17.71,0,1,0,0,35.41H981a9.54,9.54,0,0,1,0,19.07H964a4.09,4.09,0,1,0,0,8.17h10.21v6.81a4.09,4.09,0,1,0,8.17,0v-6.88A17.72,17.72,0,0,0,998.69,567Z"/><circle class="cls-10" cx="1038.82" cy="533.93" r="25.55"/><path class="cls-7" d="M1049.78,538.83h-23.22a4.65,4.65,0,0,1-4.65-4.65h0a4.65,4.65,0,0,1,4.65-4.64h23.22a4.65,4.65,0,0,1,4.65,4.64h0A4.65,4.65,0,0,1,1049.78,538.83Z"/><circle class="cls-8" cx="81.29" cy="411.09" r="81.29"/><path class="cls-9" d="M108.69,432.4a24.81,24.81,0,0,0-24.78-24.79H74.37a13.35,13.35,0,0,1,0-26.7H98.21a5.72,5.72,0,1,0,0-11.44H85.81v-9.53a5.72,5.72,0,0,0-11.44,0v9.53a24.79,24.79,0,0,0,0,49.58h9.54a13.35,13.35,0,0,1,0,26.69H60.07a5.73,5.73,0,0,0,0,11.45h14.3v9.53a5.72,5.72,0,0,0,11.44,0v-9.63A24.8,24.8,0,0,0,108.69,432.4Z"/><circle class="cls-10" cx="133.03" cy="357.41" r="25.55" transform="matrix(0.75, -0.66, 0.66, 0.75, -202.79, 176.68)"/><path class="cls-7" d="M149.79,350.21l-13.94-10.46a4.54,4.54,0,0,0-.62-.32,3.84,3.84,0,0,0-.53-.28,4.53,4.53,0,0,0-3.28,0,3.84,3.84,0,0,0-.53.28,5.07,5.07,0,0,0-.61.32l-14,10.5a4.64,4.64,0,1,0,5.57,7.43l6.57-4.93v18.59a4.65,4.65,0,0,0,9.29,0V352.75l6.51,4.89a4.64,4.64,0,0,0,5.57-7.43Z"/><circle class="cls-10" cx="198.06" cy="157.68" r="81.29"/><path class="cls-11" d="M198.07,99.61s-18.59,23.23-46.46,23.23v48.74a33.88,33.88,0,0,0,18.73,30.3l27.73,13.86,27.72-13.86a33.88,33.88,0,0,0,18.73-30.3V122.84C216.65,122.84,198.07,99.61,198.07,99.61Z"/><path class="cls-7" d="M244.52,118.19c-25.22,0-42.66-21.27-42.83-21.49A4.68,4.68,0,0,0,198.07,95h0a4.63,4.63,0,0,0-3.62,1.74c-.17.22-17.48,21.48-42.83,21.48a4.65,4.65,0,0,0-4.64,4.65v48.74A38.32,38.32,0,0,0,168.26,206L196,219.89a4.64,4.64,0,0,0,4.15,0L227.87,206a38.32,38.32,0,0,0,21.29-34.45V122.84A4.65,4.65,0,0,0,244.52,118.19Zm0,53.39a33.85,33.85,0,0,1-18.73,30.29l-27.72,13.87-27.73-13.87a33.85,33.85,0,0,1-18.73-30.29V122.84c27.87,0,46.46-23.23,46.46-23.23s18.58,23.23,46.45,23.23Z"/><path class="cls-7" d="M211.34,152.37h-8v-8a5.31,5.31,0,0,0-10.61,0v8h-8a5.31,5.31,0,1,0,0,10.61h8v8a5.31,5.31,0,1,0,10.61,0v-8h8a5.31,5.31,0,1,0,0-10.61Z"/><path class="cls-12" d="M692.11,1040.49,720,1110.17H952.24s-83.39-152.43-95.12-187.7h-165Z"/><polygon class="cls-13" points="185.8 673.53 175.88 692.11 92.9 1110.17 329.8 1110.17 376.25 733.92 315.86 692.11 185.8 673.53"/><path class="cls-14" d="M269.41,720s37,41.81,102.19,41.81c33.55,0,57.41-10.9,74.2-24.84,24.17-20.05,37.29-50.49,37.29-81.9V246.19H278.7Z"/><path class="cls-13" d="M728.69,227.61h98.13a9.29,9.29,0,0,1,9.29,9.29h0a60.38,60.38,0,0,1-60.39,60.38h-47Z"/><path class="cls-13" d="M729.27,306.57h39.66a37.78,37.78,0,0,1,21,6.35l40,26.68a13.92,13.92,0,0,1,6.21,11.59h0c0,14.29-12.22,24.92-26,21-34.44-9.87-66.95-14.51-80.89-14.51Z"/><path class="cls-15" d="M729.27,371.6h29.84a23.23,23.23,0,0,1,13.32,4.2l32.64,22.85a18.31,18.31,0,0,1,7.81,15h0A18.33,18.33,0,0,1,794.56,432l-65.29-9.29Z"/><path class="cls-15" d="M729.27,436.63h15.39a39,39,0,0,1,22.65,7.26L782,454.36a18.39,18.39,0,0,1,7.71,15h0a18.4,18.4,0,0,1-18.4,18.4h-42Z"/><path class="cls-14" d="M655,864s13.94-162.58,41.81-218.32V367h79V485.38L724.63,868.62Z"/><path class="cls-13" d="M692.11,873.27l23.23-185.8s27.87-130.06,46.45-157.93c0,0-18.58-116.13-18.58-167.23,0,0,0-88.25,23.22-88.25S826.82,422.7,826.82,422.7s32.51,125.42,32.51,176.51c0,43.66-10.17,185.68-10.23,252.17A236.47,236.47,0,0,0,852.7,892c3.79,21.94,9.95,65.54,6.63,102-4.64,51.1-88.25,69.68-88.25,69.68l-74.32.71Z"/><path class="cls-14" d="M725.62,880.34a243.22,243.22,0,0,1,32.8,49.34c-2.49-29.8-11.33-56.21-33.79-84.28-12.3-15.37-18-42.45-20.06-71.78L695,850.05C705.85,860.07,716.39,869.54,725.62,880.34Z"/><path class="cls-14" d="M736.64,1064.05l-20.79.2a79.85,79.85,0,0,1-14.1.34L720,1110.17h64.55C763.84,1098.59,747.1,1078.78,736.64,1064.05Z"/><rect class="cls-9" x="348.38" y="13.94" width="394.83" height="724.63" rx="55.74"/><path class="cls-1" d="M378,20.47a55.7,55.7,0,0,0-29.57,49.21V682.82a55.73,55.73,0,0,0,55.74,55.74H687.47a55.7,55.7,0,0,0,55.59-52.77C486.38,654.93,400,181.27,378,20.47Z"/><path class="cls-16" d="M687.47,13.94H404.12a55.73,55.73,0,0,0-55.74,55.74V682.82a55.73,55.73,0,0,0,55.74,55.74H687.47a55.74,55.74,0,0,0,55.74-55.74V69.68A55.74,55.74,0,0,0,687.47,13.94Zm41.8,668.88a41.85,41.85,0,0,1-41.8,41.81H404.12a41.86,41.86,0,0,1-41.81-41.81V69.68a41.86,41.86,0,0,1,41.81-41.81H468l.53,2.11a27.87,27.87,0,0,0,27,21.12H596a27.87,27.87,0,0,0,27-21.12l.53-2.11h63.87a41.85,41.85,0,0,1,41.8,41.81Z"/><rect class="cls-17" x="501.67" y="23.23" width="92.9" height="13.94" rx="6.97"/><path class="cls-18" d="M507.08,670.7a1.19,1.19,0,0,1-1.17-1,76.91,76.91,0,0,1-1.67-16.06c0-31.18,18.35-56.55,40.91-56.55s40.91,25.37,40.91,56.55c0,1.23,0,2.45-.08,3.67a1.12,1.12,0,0,1-1.26,1.14,1.2,1.2,0,0,1-1.15-1.25c.06-1.18.08-2.36.08-3.56,0-29.85-17.27-54.14-38.5-54.14s-38.5,24.29-38.5,54.14a74.82,74.82,0,0,0,1.61,15.56,1.2,1.2,0,0,1-.92,1.43Z"/><path class="cls-18" d="M513,645.35h-.13a1.19,1.19,0,0,1-1.06-1.32c2.31-21.24,16.65-37.25,33.36-37.25,15.9,0,29.77,14.5,33,34.47a1.21,1.21,0,0,1-2.38.39c-3-18.81-15.9-32.46-30.61-32.46-15.48,0-28.79,15.1-31,35.11A1.21,1.21,0,0,1,513,645.35Z"/><path class="cls-18" d="M499.51,674a1.2,1.2,0,0,1-1.18-1A93.59,93.59,0,0,1,497,657.3c0-37.15,21.59-67.38,48.13-67.38s48.13,30.23,48.13,67.38c0,.92,0,1.84,0,2.75a1.22,1.22,0,0,1-1.23,1.17,1.2,1.2,0,0,1-1.17-1.23c0-.89,0-1.79,0-2.69,0-35.82-20.51-65-45.72-65s-45.72,29.15-45.72,65a92,92,0,0,0,1.27,15.29,1.21,1.21,0,0,1-1,1.39Z"/><path class="cls-18" d="M511,703.76a1.2,1.2,0,0,1-1.2-1.2,1.17,1.17,0,0,1,.43-.92,25.46,25.46,0,0,1,14.51-5.83A1.2,1.2,0,0,1,525.9,697h0a1.2,1.2,0,0,1-1.2,1.2,22.57,22.57,0,0,0-13,5.27A1.18,1.18,0,0,1,511,703.76Z"/><path class="cls-18" d="M505.76,694.46a1.21,1.21,0,0,1-1.21-1.2,1.19,1.19,0,0,1,.42-.91,24.65,24.65,0,0,1,14.91-6.17,1.28,1.28,0,0,1,1.2,1.2h0a1.21,1.21,0,0,1-1.19,1.21,22.58,22.58,0,0,0-13.34,5.57A1.2,1.2,0,0,1,505.76,694.46Z"/><path class="cls-18" d="M502.32,685.51a1.2,1.2,0,0,1-.65-2.21,34.13,34.13,0,0,1,17-5.54h0a1.2,1.2,0,0,1,1.2,1.2h0a1.2,1.2,0,0,1-1.2,1.2,32.42,32.42,0,0,0-15.7,5.16A1.21,1.21,0,0,1,502.32,685.51Z"/><path class="cls-18" d="M500.19,677.33a1.2,1.2,0,0,1-1.09-.7,1.19,1.19,0,0,1,.59-1.59,35.9,35.9,0,0,1,11.79-3.23c.14-6.25,1.59-35.46,16-48.86a24.34,24.34,0,0,1,19-6.55c17,1.21,21.24,12.62,25.3,23.66,3.77,10.27,7.33,20,20.35,23.33a1.2,1.2,0,1,1-.61,2.33c-14.23-3.68-18.18-14.43-22-24.83-4-10.79-7.72-21-23.21-22.09a21.86,21.86,0,0,0-17.18,5.92c-15.05,14-15.22,47.88-15.22,48.22a1.21,1.21,0,0,1-1.2,1.21,32.36,32.36,0,0,0-12,3.07A1.1,1.1,0,0,1,500.19,677.33Z"/><path class="cls-18" d="M563,719.75l-.28,0c-27.4-6.37-37-23.2-40.29-36.21-5.28-21.06,2.74-45.34,13.55-54.79,5.25-4.59,10.29-6.29,15-5,11,3,17,21.14,20.63,32,3.05,9.15,13.55,14.3,19.54,16.56a1.2,1.2,0,0,1-.85,2.25c-7.8-2.94-17.78-8.46-21-18S560,628.67,550.3,626c-3.87-1.06-8.17.46-12.78,4.49-10,8.8-17.78,32.48-12.8,52.4,3.1,12.35,12.28,28.35,38.51,34.45a1.2,1.2,0,0,1-.27,2.37Z"/><path class="cls-18" d="M581.1,701a1,1,0,0,1-.28,0c-15.4-3.67-26.1-10.38-31.81-19.94a31.92,31.92,0,0,1-4.51-16.45,26.54,26.54,0,0,1,.69-6.39,1.2,1.2,0,0,1,2.37.31,1.54,1.54,0,0,1,0,.3,24.87,24.87,0,0,0-.58,5.72,29.68,29.68,0,0,0,4.16,15.31c5.37,9,15.56,15.29,30.28,18.8a1.21,1.21,0,0,1,.92,1.17.86.86,0,0,1,0,.28A1.2,1.2,0,0,1,581.1,701Z"/><path class="cls-18" d="M577.35,706.63h-.19c-15.74-2.48-26.87-8.48-33.06-17.84-6.06-9.14-7.31-21-3.73-35.38,1.16-4.65,2.82-6.86,5-6.92s5.59,2.33,9.4,21.42c3.15,15.72,20.65,20.71,30.81,22.28a1.2,1.2,0,1,1-.37,2.38c-10.77-1.67-29.37-7-32.8-24.19-3.9-19.53-7.13-19.47-7.11-19.49-.36,0-1.52.91-2.57,5.1-3.41,13.66-2.27,24.92,3.39,33.47,5.81,8.77,16.39,14.42,31.43,16.79a1.2,1.2,0,0,1-.18,2.39Z"/><path class="cls-18" d="M577.35,706.63h-.19c-15.74-2.48-26.87-8.48-33.06-17.84-6.06-9.14-7.31-21-3.73-35.38,1.16-4.65,2.82-6.86,5-6.92s5.59,2.33,9.4,21.42c3.15,15.72,20.65,20.71,30.81,22.28a1.2,1.2,0,1,1-.37,2.38c-10.77-1.67-29.37-7-32.8-24.19-3.9-19.53-7.13-19.47-7.11-19.49-.36,0-1.52.91-2.57,5.1-3.41,13.66-2.27,24.92,3.39,33.47,5.81,8.77,16.39,14.42,31.43,16.79a1.2,1.2,0,0,1-.18,2.39Z"/><path class="cls-18" d="M572,712.75a1.15,1.15,0,0,1-.26,0C555,709.08,543.1,701.78,536.52,691c-6.19-10.13-7.32-22.79-3.36-37.63,3.13-11.77,7.74-18,13.05-17.92,5.89.24,10.77,8.56,13.36,22.83,2.85,15.65,17,22.67,28.44,25.79a1.21,1.21,0,0,1-.63,2.33c-12.08-3.32-27.11-10.81-30.18-27.69-2.27-12.49-6.62-20.67-11.09-20.85H546c-3.87,0-7.77,6-10.48,16.14-3.78,14.18-2.74,26.21,3.09,35.76,6.22,10.18,17.56,17.12,33.7,20.61a1.2,1.2,0,0,1-.25,2.38Z"/><path class="cls-8" d="M701.4,359.56V463.3a23,23,0,0,1-23,23.05H413.24a23,23,0,0,1-23.06-23.05V359.56Zm-23,86.45a17.29,17.29,0,0,0-34.58,0,17.29,17.29,0,1,0-17.29,17.29A17.26,17.26,0,0,0,643.77,446a17.29,17.29,0,0,0,34.58,0ZM470.87,417.19V382.61H424.76v34.58Z"/><rect class="cls-1" x="390.18" y="336.51" width="311.22" height="23.05"/><path class="cls-8" d="M701.4,325v11.53H390.18V325a23,23,0,0,1,23.06-23.05H678.35A23,23,0,0,1,701.4,325Z"/><path class="cls-19" d="M678.35,457.54H586.14a155.62,155.62,0,0,1-144.54-98H390.18V463.3a23,23,0,0,0,23.06,23.05H678.35a23,23,0,0,0,23-23.05V434.48A23.05,23.05,0,0,1,678.35,457.54Z"/><path class="cls-20" d="M434.43,336.51H390.18v23.05H441.6A154.5,154.5,0,0,1,434.43,336.51Z"/><path class="cls-19" d="M430.53,301.93H413.24A23,23,0,0,0,390.18,325v11.53h44.25A156.37,156.37,0,0,1,430.53,301.93Z"/><circle class="cls-1" cx="661.06" cy="446.01" r="17.29" transform="translate(114.41 1026.61) rotate(-80.73)"/><circle class="cls-9" cx="626.48" cy="446.01" r="17.29"/><rect class="cls-9" x="424.76" y="382.61" width="46.11" height="34.58"/><rect class="cls-1" x="580.37" y="376.85" width="103.74" height="11.53"/><rect class="cls-1" x="655.3" y="399.9" width="28.82" height="11.53"/><circle class="cls-7" cx="548.12" cy="255.48" r="65.03"/><path class="cls-9" d="M566.7,269.7A17.73,17.73,0,0,0,549,252h-6.81a9.54,9.54,0,0,1,0-19.07h17a4.09,4.09,0,0,0,0-8.17h-8.86V218a4.09,4.09,0,1,0-8.17,0v6.81a17.71,17.71,0,1,0,0,35.41H549a9.54,9.54,0,0,1,0,19.07H532a4.09,4.09,0,1,0,0,8.17h10.21v6.81a4.09,4.09,0,1,0,8.17,0v-6.88A17.72,17.72,0,0,0,566.7,269.7Z"/><path class="cls-13" d="M768.48,953c-9.62-26.67-24.45-51.12-42.86-72.68-22.23-26-52.09-44.23-75.31-81.39-15.77-25.22-60.39-153.29-97.55-153.29-51.09,0-18.58,88.26-13.93,111.48s41.8,97.55,41.8,97.55,23.23,227.61,139.35,209C789.66,1052.57,784.08,996.27,768.48,953Z"/><path class="cls-13" d="M329.8,367s18.58,23.1,18.58,111.48c0,102.19,4.64,260.12-92.9,260.12a143.18,143.18,0,0,1-16.34-.91c-44.89-5.17-76.39-46.95-70.93-91.8l30.9-254a46.65,46.65,0,0,1,2.95-12.32L302,123.31a18.59,18.59,0,0,1,17.31-11.83h0A37.89,37.89,0,0,1,357,145.41c2.53,24.14,5.33,56.67,5.33,82.2C362.31,274.06,329.8,367,329.8,367Z"/><path class="cls-14" d="M329.8,367s32.51-92.9,32.51-139.35c0-6.11-.16-12.63-.44-19.32-5.72,44.28-29.82,94.93-45.68,124.42A24.07,24.07,0,0,0,329.8,367Z"/><path class="cls-21" d="M569.49,151.4l-13.94-10.46a5.2,5.2,0,0,0-.62-.32,5.36,5.36,0,0,0-.53-.28,4.63,4.63,0,0,0-3.28,0,5.36,5.36,0,0,0-.53.28,5.07,5.07,0,0,0-.61.32l-14,10.5a4.64,4.64,0,1,0,5.57,7.43l6.57-4.92v18.58a4.65,4.65,0,0,0,9.29,0V154l6.51,4.88a4.64,4.64,0,1,0,5.57-7.43Z"/></g></g></svg>