<svg xmlns="http://www.w3.org/2000/svg" viewBox="0 0 64 64"><defs><style>.cls-1{isolation:isolate;}.cls-2{fill:#f98b10;}.cls-3{opacity:0.25;mix-blend-mode:multiply;}.cls-4{mix-blend-mode:overlay;}.cls-5{fill:#fff;}.cls-6{fill:none;stroke:#000;stroke-linecap:round;stroke-linejoin:round;stroke-width:2px;}</style></defs><title>Icon Color</title><g class="cls-1"><g id="Color"><path class="cls-2" d="M45.22,12.41H18.78a7.89,7.89,0,0,0-7.89,7.89V35.45a5.48,5.48,0,0,0,3.84,5.22A2.4,2.4,0,0,1,16.36,43V44.5a2.42,2.42,0,0,0,3.85,2l7-5.08a2.4,2.4,0,0,1,1.43-.47H45.22A7.89,7.89,0,0,0,53.11,33V20.3A7.89,7.89,0,0,0,45.22,12.41Z"/></g><g id="Shadow" class="cls-3"><path d="M24.5,43a2.39,2.39,0,0,0-1.63-2.32A5.48,5.48,0,0,1,19,35.45V20.3a7.89,7.89,0,0,1,7.89-7.89H18.78a7.89,7.89,0,0,0-7.89,7.89V35.45a5.48,5.48,0,0,0,3.84,5.22A2.4,2.4,0,0,1,16.36,43V44.5a2.42,2.42,0,0,0,3.85,2l4.29-3.13Z"/></g><g id="Highlight" class="cls-4"><path class="cls-5" d="M21.72,41.38l-5.26,3.83a2.43,2.43,0,0,0,3.75,1.25l7-5.08a2.4,2.4,0,0,1,1.43-.47H23.15A2.36,2.36,0,0,0,21.72,41.38Z"/><path class="cls-5" d="M45.22,12.41H39.76a7.88,7.88,0,0,1,7.88,7.89V33a7.88,7.88,0,0,1-7.88,7.89h5.46A7.89,7.89,0,0,0,53.11,33V20.3A7.89,7.89,0,0,0,45.22,12.41Z"/></g><g id="Line"><path class="cls-6" d="M45.22,12.41H18.78a7.89,7.89,0,0,0-7.89,7.89V35.45a5.48,5.48,0,0,0,3.84,5.22A2.4,2.4,0,0,1,16.36,43V44.5a2.42,2.42,0,0,0,3.85,2l7-5.08a2.4,2.4,0,0,1,1.43-.47H45.22A7.89,7.89,0,0,0,53.11,33V20.3A7.89,7.89,0,0,0,45.22,12.41Z"/><line class="cls-6" x1="18.18" y1="20.55" x2="45.82" y2="20.55"/><line class="cls-6" x1="18.18" y1="26.34" x2="45.82" y2="26.34"/><line class="cls-6" x1="18.18" y1="32.13" x2="45.82" y2="32.13"/></g></g></svg>