<svg xmlns="http://www.w3.org/2000/svg" viewBox="0 0 64 64"><defs><style>.cls-1{isolation:isolate;}.cls-2{fill:#fff;}.cls-3{fill:#00aeef;}.cls-4{fill:#fbb040;}.cls-5{opacity:0.25;mix-blend-mode:multiply;}.cls-6{fill:#231f20;}.cls-7{mix-blend-mode:overlay;}.cls-10,.cls-8,.cls-9{fill:none;stroke:#231f20;}.cls-10,.cls-8{stroke-linejoin:round;}.cls-8{stroke-width:1.75px;}.cls-9{stroke-miterlimit:10;stroke-width:1.41px;}.cls-10{stroke-width:1.94px;}</style></defs><title>Icon Color</title><g class="cls-1"><g id="Color"><rect class="cls-2" x="9.01" y="15.32" width="47.57" height="33.21"/><path class="cls-3" d="M45.36,19.18H20.23a1.55,1.55,0,0,0-1.47,1.16A6.48,6.48,0,0,1,14,24.84a1.48,1.48,0,0,0-1.18,1.42V37.6A1.47,1.47,0,0,0,14,39a6.51,6.51,0,0,1,4.77,4.51,1.55,1.55,0,0,0,1.47,1.16H45.36a1.55,1.55,0,0,0,1.47-1.16A6.49,6.49,0,0,1,51.6,39a1.47,1.47,0,0,0,1.18-1.41V26.26a1.48,1.48,0,0,0-1.18-1.42,6.46,6.46,0,0,1-4.77-4.5A1.55,1.55,0,0,0,45.36,19.18Z"/><polygon class="cls-4" points="43.82 43.21 34.98 43.21 34.98 52.62 39.4 50.69 43.82 52.62 43.82 43.21"/><circle class="cls-4" cx="39.36" cy="40.6" r="6.27"/></g><g id="Shadow" class="cls-5"><rect class="cls-6" x="9.01" y="15.32" width="7.41" height="33.21"/><polygon class="cls-6" points="43.1 52.3 43.82 52.62 43.82 51.99 43.1 52.3"/><polygon class="cls-6" points="42.39 48.54 34.98 48.54 34.98 52.62 39.4 50.69 42.39 51.99 42.39 48.54"/></g><g id="Highlight" class="cls-7"><rect class="cls-2" x="52.08" y="15.32" width="4.5" height="33.21"/><polygon class="cls-2" points="39.32 50.72 39.4 50.69 43.82 52.62 43.82 48.54 39.32 48.54 39.32 50.72"/><polygon class="cls-2" points="34.98 50.72 34.98 52.62 37.15 51.67 34.98 50.72"/></g><g id="Line"><path class="cls-8" d="M9,15.33v33.2H35V45.08a3.78,3.78,0,0,1-.39-.41,6.27,6.27,0,1,1,9.54,0l-.31.34v3.52H56.58V15.33Z"/><path class="cls-9" d="M52.78,26.26V37.59A1.5,1.5,0,0,1,51.6,39a6.44,6.44,0,0,0-4.77,4.5,1.53,1.53,0,0,1-1.47,1.15H44.13a6.27,6.27,0,1,0-9.54,0H20.23a1.53,1.53,0,0,1-1.47-1.15A6.46,6.46,0,0,0,14,39a1.5,1.5,0,0,1-1.18-1.43V26.26A1.48,1.48,0,0,1,14,24.84a6.47,6.47,0,0,0,4.77-4.51,1.55,1.55,0,0,1,1.47-1.16H45.36a1.55,1.55,0,0,1,1.47,1.16,6.46,6.46,0,0,0,4.77,4.51A1.48,1.48,0,0,1,52.78,26.26Z"/><line class="cls-9" x1="21.3" y1="26.34" x2="44.29" y2="26.34"/><line class="cls-9" x1="19.57" y1="31.08" x2="46.02" y2="31.08"/><path class="cls-10" d="M43.82,45v7.6L39.4,50.68,35,52.61V45.08a6.16,6.16,0,0,0,4.38,1.79A6.26,6.26,0,0,0,43.82,45Z"/><path class="cls-10" d="M45.63,40.6a6.22,6.22,0,0,1-1.5,4.07l-.31.34a6.26,6.26,0,0,1-4.46,1.86A6.16,6.16,0,0,1,35,45.08a3.78,3.78,0,0,1-.39-.41,6.27,6.27,0,1,1,11-4.07Z"/></g></g></svg>