<svg xmlns="http://www.w3.org/2000/svg" viewBox="0 0 64 64"><defs><style>.cls-1{isolation:isolate;}.cls-2{fill:#ed1c24;}.cls-3{fill:#fbb040;}.cls-4,.cls-9{fill:none;}.cls-5{opacity:0.25;mix-blend-mode:multiply;}.cls-6{fill:#231f20;}.cls-7{mix-blend-mode:overlay;}.cls-8{fill:#fff;}.cls-9{stroke:#231f20;stroke-linecap:round;stroke-linejoin:round;stroke-width:2px;}</style></defs><title>Icon Color</title><g class="cls-1"><g id="Color"><path class="cls-2" d="M8.74,28h46a0,0,0,0,1,0,0V51.47a3.46,3.46,0,0,1-3.46,3.46H12.2a3.46,3.46,0,0,1-3.46-3.46V28A0,0,0,0,1,8.74,28Z"/><path class="cls-2" d="M12.11,23.86H51.38a3.37,3.37,0,0,1,3.37,3.37v7.67a0,0,0,0,1,0,0h-46a0,0,0,0,1,0,0V27.23A3.37,3.37,0,0,1,12.11,23.86Z"/><rect class="cls-3" x="23.66" y="32.54" width="16.16" height="6.21" rx="1.77"/><path class="cls-4" d="M21.45,15H42a5.71,5.71,0,0,1,5.71,5.71v3.19a0,0,0,0,1,0,0h-32a0,0,0,0,1,0,0V20.67A5.71,5.71,0,0,1,21.45,15Z"/><rect class="cls-3" x="25.96" y="12.31" width="11.57" height="4.72" rx="1.69"/></g><g id="Shadow" class="cls-5"><path class="cls-6" d="M53.46,24.61H46.39a3.31,3.31,0,0,1,1.28,2.62V51.47a3.46,3.46,0,0,1-3.46,3.46h7.08a3.46,3.46,0,0,0,3.45-3.46V27.23A3.31,3.31,0,0,0,53.46,24.61Z"/></g><g id="Highlight" class="cls-7"><path class="cls-8" d="M12.2,54.93h6.32a3.46,3.46,0,0,1-3.46-3.46V27.23a3.37,3.37,0,0,1,3.37-3.37h3.63V20.67A5.71,5.71,0,0,1,27.77,15h4.51V14A1.69,1.69,0,0,1,34,12.31H27.65A1.69,1.69,0,0,0,26,14v1H21.45a5.71,5.71,0,0,0-5.71,5.71v3.19H12.11a3.37,3.37,0,0,0-3.37,3.37V51.47A3.46,3.46,0,0,0,12.2,54.93Z"/></g><g id="Line"><path class="cls-9" d="M54.74,34.89V51.47a3.46,3.46,0,0,1-3.45,3.46H12.2a3.46,3.46,0,0,1-3.46-3.46V34.89H23.66V37a1.78,1.78,0,0,0,1.77,1.77H38.05A1.77,1.77,0,0,0,39.82,37V34.89Z"/><path class="cls-9" d="M54.74,27.22v7.67H39.82V34.3a1.77,1.77,0,0,0-1.77-1.77H25.43a1.78,1.78,0,0,0-1.77,1.77v.59H8.74V27.22a3.37,3.37,0,0,1,3.37-3.36H51.38A3.36,3.36,0,0,1,54.74,27.22Z"/><path class="cls-9" d="M39.82,34.3V37a1.77,1.77,0,0,1-1.77,1.77H25.43A1.78,1.78,0,0,1,23.66,37V34.3a1.78,1.78,0,0,1,1.77-1.77H38.05A1.77,1.77,0,0,1,39.82,34.3Z"/><path class="cls-9" d="M47.74,20.67v3.19h-32V20.67A5.71,5.71,0,0,1,21.45,15H26v.38A1.69,1.69,0,0,0,27.65,17h8.19a1.69,1.69,0,0,0,1.69-1.69V15H42A5.71,5.71,0,0,1,47.74,20.67Z"/><path class="cls-9" d="M37.53,14v1.34A1.69,1.69,0,0,1,35.84,17H27.65A1.69,1.69,0,0,1,26,15.34V14a1.69,1.69,0,0,1,1.69-1.69h8.19A1.69,1.69,0,0,1,37.53,14Z"/></g></g></svg>