<svg xmlns="http://www.w3.org/2000/svg" width="80.008" height="108.001"><g data-name="Bag btc"><path d="M2 76.504C2 52.489 17.406 37.849 25.11 33.53c1.39-10.364-8.073-22.751-12.98-27.649 1.425-3.95 8.231-5.056 12.03-2.528s6.015 2.528 9.814 0 6.965 0 10.605 1.264 6.331 2.528 11.713-1.264c4.305-3.033 9.286.421 11.238 2.528-6.2 5.182-11.449 19.328-13.3 25.753 6.331 5.372 22.794 22.751 23.743 47.082s-19.848 27.283-37.351 27.283C26.125 105.999 2 106.523 2 76.504z" fill="#fff"/><path d="M38.862 108a101.677 101.677 0 01-11.656-.512 39.6 39.6 0 01-12.17-3.163 25.466 25.466 0 01-5.943-3.78A23.281 23.281 0 014.279 94.8a28.487 28.487 0 01-3.159-7.941A44.511 44.511 0 010 76.5a54.566 54.566 0 012.449-16.31 53.473 53.473 0 0113.606-22.168 41.728 41.728 0 017.165-5.7c.244-3.873-1.133-8.607-3.982-13.687A55.455 55.455 0 0010.717 7.3a2.007 2.007 0 01-.468-2.1 6.935 6.935 0 012.692-3.384A10.5 10.5 0 0116.876.225 12.558 12.558 0 0119.251 0a10.953 10.953 0 016.018 1.688 7.179 7.179 0 003.8 1.562 7.176 7.176 0 003.8-1.562A7.9 7.9 0 0137.353.273a9.389 9.389 0 012.514.363A21.846 21.846 0 0142.714 1.7l.2.088.16.069.028.012c.735.319 1.428.62 2.13.863l.54.189h.006a12.043 12.043 0 004 .963c.982 0 2.607-.224 5.358-2.163A8.291 8.291 0 0160 .16a10.082 10.082 0 013.487.653A15.1 15.1 0 0169 4.523a2 2 0 01-.185 2.894c-3.114 2.6-5.934 7.808-7.751 11.718a98.262 98.262 0 00-4.543 11.839 70.464 70.464 0 016.52 6.758A78.5 78.5 0 0170.55 48.2a63.761 63.761 0 019.425 30.437 35.212 35.212 0 01-.657 8.652 24.355 24.355 0 01-2.575 6.938 22.831 22.831 0 01-9.6 9.029 40.649 40.649 0 01-12.87 3.879 91.505 91.505 0 01-13.65.863h-1.76zM19.249 2C16.4 2 13.1 3.2 12.13 5.882c5.091 5.082 14.356 17.4 12.98 27.649C17.116 38.011 2 52.759 2 76.5c0 12.826 4.285 21.21 13.1 25.636C22.8 106 32.639 106 39.15 106h1.472c10.694 0 23.933-1 31.452-8.821 4.224-4.393 6.211-10.6 5.9-18.462a62.128 62.128 0 00-9.853-30.651 73.2 73.2 0 00-13.89-16.432 98.42 98.42 0 014.607-12.453C61.357 13.6 63.913 9.463 66.436 6.9c.363-.369.731-.711 1.094-1.014a12.591 12.591 0 00-1.494-1.355 10.459 10.459 0 00-6.028-2.371 6.343 6.343 0 00-3.716 1.194c-2.448 1.725-4.517 2.528-6.51 2.528a13.9 13.9 0 01-4.634-1.065l-.569-.2c-.789-.274-1.56-.609-2.306-.933a12.637 12.637 0 00-4.915-1.413 5.97 5.97 0 00-3.384 1.081c-2 1.329-3.465 1.9-4.907 1.9s-2.91-.567-4.907-1.9A8.942 8.942 0 0019.249 2z"/><path data-name="Shape" d="M40 92.999a26.007 26.007 0 01-10.12-49.957 26.007 26.007 0 0120.241 47.914A25.837 25.837 0 0140 92.999zm0-50a24 24 0 1024 24 24.027 24.027 0 00-24-24z"/><path data-name="Path" d="M27.149 13.063a1 1 0 011.288.585 82.534 82.534 0 014.054 15.719 1 1 0 11-1.982.264 80.592 80.592 0 00-3.945-15.281 1 1 0 01.585-1.287zM40 16.499a1 1 0 011 1v10a1 1 0 01-2 0v-10a1 1 0 011-1zm-6.618 16.779a1 1 0 01-.41 1.354 23.965 23.965 0 00-3.6 2.439 13.542 13.542 0 00-3.364 3.778 1.001 1.001 0 01-1.765-.945 15.476 15.476 0 013.865-4.382 25.946 25.946 0 013.917-2.655 1 1 0 011.357.411zm12.593-.843a1 1 0 011.339-.461 29.343 29.343 0 019.361 7.669 1 1 0 11-1.59 1.213 27.374 27.374 0 00-8.649-7.082 1 1 0 01-.461-1.339zm6.951-20.336a1 1 0 01.474 1.326 61.985 61.985 0 00-4.907 16.691 1 1 0 01-1.986-.234A63.942 63.942 0 0151.6 12.573a1 1 0 011.326-.474z"/><path data-name="Path" d="M24 30.065a3.375 3.375 0 013.048-3.386c3.139-.293 8.352-.68 13.952-.68s10.813.387 13.952.68A3.375 3.375 0 0158 30.065a3.586 3.586 0 01-3.912 3.534c-3.188-.277-7.974-.6-13.088-.6s-9.9.323-13.089.6A3.586 3.586 0 0124 30.065z"/><path data-name="Shape" d="M54.406 35.614c-.163 0-.329-.007-.492-.022-3.099-.27-7.854-.593-12.914-.593s-9.815.323-12.914.594a5.783 5.783 0 01-.492.022 5.6 5.6 0 01-3.925-1.6A5.471 5.471 0 0122 30.065a5.358 5.358 0 014.862-5.377c3.367-.315 8.553-.689 14.138-.689s10.771.374 14.138.689A5.358 5.358 0 0160 30.065a5.578 5.578 0 01-5.594 5.549zM41 32.999c5.129 0 9.948.327 13.089.6.106.009.213.014.319.014a3.6 3.6 0 002.526-1.032A3.5 3.5 0 0058 30.065a3.368 3.368 0 00-3.047-3.387c-3.328-.31-8.453-.679-13.953-.679s-10.625.37-13.952.68A3.368 3.368 0 0024 30.065a3.575 3.575 0 003.592 3.549c.106 0 .213 0 .319-.014 3.14-.274 7.96-.601 13.089-.601z"/><path data-name="Path" d="M43.949 27.183a1 1 0 01-.632 1.265 5.774 5.774 0 00-3.422 3 1 1 0 01-1.789-.896 7.772 7.772 0 014.578-4 1 1 0 011.265.631zm-5.875.25a1 1 0 01-.632 1.265 5.774 5.774 0 00-3.422 3 1 1 0 01-1.789-.896 7.772 7.772 0 014.578-4 1 1 0 011.265.631zm-6.563.5a1 1 0 01-.632 1.265 5.774 5.774 0 00-3.422 3 1 1 0 01-1.789-.896 7.772 7.772 0 014.578-4 1 1 0 011.265.631zm18.5-.5a1 1 0 01-.632 1.265 5.774 5.774 0 00-3.422 3 1 1 0 01-1.789-.896 7.772 7.772 0 014.578-4 1 1 0 011.265.631zm6.564.5a1 1 0 01-.632 1.265 5.774 5.774 0 00-3.422 3 1 1 0 01-1.789-.896 7.772 7.772 0 014.578-4 1 1 0 011.265.631z" fill="#fff"/><g data-name="그룹 2" fill="none" stroke="#000" stroke-linecap="round" stroke-width="2.999"><path data-name="패스 1" d="M30.627 58.194s-2.714 16.141 3.49 16.683S40.19 59.03 40.19 59.03s-1.943 16.21 4.007 16.729 5.813-15.871 5.813-15.871"/><path data-name="패스 2" d="M26.152 65.997l26.93 2.353"/><path data-name="패스 3" d="M26.47 62.356l26.93 2.352"/></g></g></svg>