<svg width="128" height="128" fill="none" xmlns="http://www.w3.org/2000/svg"><path d="M15.824 26.823a6 6 0 016-6h60.794a6 6 0 016 6V108a6 6 0 01-6 6H21.824a6 6 0 01-6-6V26.823z" fill="#000"/><path d="M10 19a4 4 0 014-4h64.794a4 4 0 014 4v85.177a4 4 0 01-4 4H14a4 4 0 01-4-4V19z" fill="#fff"/><path fill-rule="evenodd" clip-rule="evenodd" d="M14 13h64.794a6 6 0 016 6v85.177a6 6 0 01-6 6H14a6 6 0 01-6-6V19a6 6 0 016-6zm0 2a4 4 0 00-4 4v85.177a4 4 0 004 4h64.794a4 4 0 004-4V19a4 4 0 00-4-4H14z" fill="#000"/><path fill-rule="evenodd" clip-rule="evenodd" d="M23.652 31.19a2 2 0 012-2h39.855a2 2 0 010 4H25.652a2 2 0 01-2-2zm0 10.317a2 2 0 012-2h39.855a2 2 0 010 4H25.652a2 2 0 01-2-2zm-.554 9.625a2 2 0 012-2h39.855a2 2 0 010 4H25.098a2 2 0 01-2-2zm.554 9.377a2 2 0 012-2H46.4a2 2 0 110 4H25.652a2 2 0 01-2-2z" fill="#000"/><path d="M83.243 86.24a16.001 16.001 0 01-4.773 3.288l-9.465 4.24c-.839.376-1.697-.483-1.322-1.321l4.24-9.466a16 16 0 013.288-4.773l33.327-33.326c.666-.666 1.706-.777 2.475-.234.99.698 2.318 1.692 3.208 2.582.89.89 1.884 2.218 2.582 3.208.543.77.432 1.81-.234 2.475L83.243 86.24z" fill="#fff"/><path fill-rule="evenodd" clip-rule="evenodd" d="M73.797 76.794l33.327-33.326c1.323-1.324 3.442-1.583 5.042-.455 1 .706 2.449 1.782 3.469 2.803 1.021 1.02 2.097 2.469 2.803 3.469 1.128 1.6.868 3.72-.455 5.042L84.657 87.653a17.998 17.998 0 01-5.37 3.7l-9.465 4.24c-2.515 1.127-5.09-1.45-3.964-3.964l4.24-9.466a18 18 0 013.7-5.37zm4.673 12.734a16.001 16.001 0 004.773-3.289l33.326-33.326c.666-.666.777-1.706.234-2.475-.698-.99-1.692-2.318-2.582-3.208-.89-.89-2.218-1.884-3.208-2.582-.769-.543-1.809-.432-2.475.234L75.212 78.208a16 16 0 00-3.289 4.773l-4.24 9.465c-.375.839.483 1.697 1.322 1.322l9.465-4.24z" fill="#000"/><path fill-rule="evenodd" clip-rule="evenodd" d="M115.155 50.43a1 1 0 01-.005 1.413L84.32 82.461a1 1 0 11-1.41-1.42l30.831-30.617a1 1 0 011.414.005zm-4.16-4.375a1 1 0 01-.005 1.414L97.788 60.58a1 1 0 11-1.41-1.419l13.203-13.11a1 1 0 011.414.005z" fill="#000"/><path d="M69.005 93.768l12.154-5.445c-2.391-5.214-6.35-7.526-8.031-8.031l-5.445 12.155c-.375.838.483 1.697 1.322 1.321z" fill="#000"/><path fill-rule="evenodd" clip-rule="evenodd" d="M54.47 90.545c-1.2.148-1.78.51-2.004.787-.907 1.115-1.99 1.904-3.278 2.363-1.258.448-2.6.543-3.98.452-2.457-.162-5.475-.96-9.016-1.895l-.936-.247c-5.587-1.47-7.93 1.244-8.356 2.132a2 2 0 11-3.606-1.731c1.28-2.668 5.594-6.213 12.98-4.27l.743.196c3.76.992 6.403 1.688 8.454 1.823 1.047.07 1.799-.023 2.374-.228.546-.194 1.036-.526 1.516-1.118 1.163-1.43 2.957-2.028 4.618-2.233 1.71-.212 3.616-.054 5.438.34 1.83.395 3.67 1.049 5.257 1.904 1.554.838 3.034 1.96 3.933 3.383a2 2 0 01-3.382 2.136c-.382-.605-1.195-1.322-2.449-1.998-1.22-.658-2.7-1.19-4.204-1.516-1.512-.326-2.952-.422-4.103-.28z" fill="#000"/></svg>