<svg xmlns="http://www.w3.org/2000/svg" viewBox="0 0 64 64"><defs><style>.cls-1{isolation:isolate;}.cls-2{fill:#bdd3dd;}.cls-3{fill:#00aeef;}.cls-4{fill:#414042;}.cls-5{fill:#fff;}.cls-6{opacity:0.25;mix-blend-mode:multiply;}.cls-7{fill:#231f20;}.cls-8{mix-blend-mode:overlay;}.cls-10,.cls-11,.cls-9{fill:none;stroke:#231f20;}.cls-10,.cls-9{stroke-miterlimit:10;}.cls-9{stroke-width:2px;}.cls-10{stroke-width:1.53px;}.cls-11{stroke-linecap:round;stroke-linejoin:round;stroke-width:2.21px;}</style></defs><title>Icon Color</title><g class="cls-1"><g id="Color"><rect class="cls-2" x="8.56" y="17.33" width="40.82" height="24.43" rx="1.83"/><rect class="cls-3" x="12.47" y="20.7" width="33" height="17.69" rx="1.96"/><path class="cls-4" d="M7.15,41.76H50.79a0,0,0,0,1,0,0v.68a3.33,3.33,0,0,1-3.33,3.33h-37a3.33,3.33,0,0,1-3.33-3.33v-.68A0,0,0,0,1,7.15,41.76Z"/><polygon class="cls-5" points="39.2 38.39 18.74 38.39 18.74 17.92 22.76 13.54 39.2 13.54 39.2 38.39"/></g><g id="Shadow" class="cls-6"><path class="cls-7" d="M10.49,45.77H17.9a3.34,3.34,0,0,1-3.34-3.34v-.67h3.23A1.82,1.82,0,0,1,16,39.93V19.16a1.82,1.82,0,0,1,1.82-1.83h-7.4a1.83,1.83,0,0,0-1.83,1.83V39.93a1.83,1.83,0,0,0,1.83,1.83H7.15v.67A3.35,3.35,0,0,0,10.49,45.77Z"/></g><g id="Highlight" class="cls-8"><rect class="cls-5" x="34.7" y="13.54" width="4.5" height="3.78"/><path class="cls-5" d="M44.88,19.16V39.93a1.83,1.83,0,0,1-1.83,1.83h3.24v.67A3.35,3.35,0,0,1,43,45.77h4.5a3.35,3.35,0,0,0,3.34-3.34v-.67H47.55a1.83,1.83,0,0,0,1.83-1.83V19.16a1.83,1.83,0,0,0-1.83-1.83h-4.5A1.83,1.83,0,0,1,44.88,19.16Z"/></g><g id="Line"><path class="cls-9" d="M49.38,19.15V39.93a1.82,1.82,0,0,1-1.83,1.82H10.38a1.81,1.81,0,0,1-1.82-1.82V19.15a1.81,1.81,0,0,1,1.82-1.82h8.89l-.54.59V38.39H39.2V17.33h8.35A1.82,1.82,0,0,1,49.38,19.15Z"/><path class="cls-10" d="M14.43,20.69h4.3v17.7h-4.3a2,2,0,0,1-2-2V22.66A2,2,0,0,1,14.43,20.69Z"/><path class="cls-10" d="M45.47,22.66V36.42a2,2,0,0,1-2,2H39.2V20.69h4.3A2,2,0,0,1,45.47,22.66Z"/><path class="cls-9" d="M7.15,41.76H50.79a0,0,0,0,1,0,0v.68a3.33,3.33,0,0,1-3.33,3.33h-37a3.33,3.33,0,0,1-3.33-3.33v-.68A0,0,0,0,1,7.15,41.76Z"/><polygon class="cls-11" points="22.75 13.54 22.75 17.07 19.51 17.07 22.75 13.54"/><polygon class="cls-11" points="39.2 13.54 39.2 38.39 18.73 38.39 18.73 17.92 19.27 17.33 19.51 17.07 22.75 17.07 22.75 13.54 39.2 13.54"/><polygon class="cls-11" points="22.75 13.05 22.75 17.07 18.73 17.07 22.75 13.05"/><line class="cls-11" x1="23.26" y1="24.47" x2="34.68" y2="24.47"/><line class="cls-11" x1="23.26" y1="28.65" x2="34.68" y2="28.65"/></g></g></svg>