<svg xmlns="http://www.w3.org/2000/svg" viewBox="0 0 64 64"><defs><style>.cls-1{isolation:isolate;}.cls-2{fill:#c2b59b;}.cls-3{fill:#27aae1;}.cls-4{opacity:0.25;mix-blend-mode:multiply;}.cls-5{fill:#231f20;}.cls-6{mix-blend-mode:overlay;}.cls-7{fill:#fff;}.cls-10,.cls-8,.cls-9{fill:none;stroke:#231f20;}.cls-10,.cls-8{stroke-miterlimit:10;}.cls-8{stroke-width:2px;}.cls-9{stroke-linejoin:round;stroke-width:1.71px;}.cls-10{stroke-width:1.71px;}</style></defs><title>Icon Color</title><g class="cls-1"><g id="Color"><path class="cls-2" d="M25.84,31.18a27.63,27.63,0,0,0,.34-6.79,9.35,9.35,0,0,0-2.83-6,6,6,0,0,0-.64-.49,3.18,3.18,0,0,0-4.86,3.28,18.88,18.88,0,0,1-.1,9c-.47,1.53-1.24,3-1.65,4.5a10.39,10.39,0,0,0,.68,7.19c1,2.14.57,5.2,1.58,7.37a7.28,7.28,0,0,0,5.28,4.38,10.57,10.57,0,0,0,4.16-.54l7.29-1.93c1.56-.41,3.4-1.12,3.66-2.71Z"/><rect class="cls-3" x="24.82" y="12.31" width="20.25" height="35.68" rx="3.43"/><rect class="cls-2" x="41.75" y="20.13" width="8.46" height="6.96" rx="2.67"/><rect class="cls-2" x="41.75" y="27.1" width="8.46" height="6.96" rx="2.67"/><rect class="cls-2" x="41.75" y="34.06" width="8.46" height="6.96" rx="2.67"/><rect class="cls-2" x="41.75" y="41.03" width="8.46" height="6.96" rx="2.67"/></g><g id="Shadow" class="cls-4"><path class="cls-5" d="M25.76,49.21c-1-2.17-.53-5.23-1.57-7.37a10.39,10.39,0,0,1-.68-7.19c.41-1.55,1.18-3,1.65-4.5a18.39,18.39,0,0,0,.14-8.73,5.18,5.18,0,0,1-.82-1.75,7.39,7.39,0,0,0-1.13-1.31,6,6,0,0,0-.64-.49,3.18,3.18,0,0,0-4.86,3.28,18.88,18.88,0,0,1-.1,9c-.47,1.53-1.24,3-1.65,4.5a10.39,10.39,0,0,0,.68,7.19c1,2.14.57,5.2,1.58,7.37a7.28,7.28,0,0,0,5.28,4.38,10.57,10.57,0,0,0,4.16-.54l1.05-.27A8.32,8.32,0,0,1,25.76,49.21Z"/></g><g id="Highlight" class="cls-6"><path class="cls-7" d="M20.32,17.41a3.13,3.13,0,0,0-1.58.87l.11.08a7.53,7.53,0,0,1,1.47,1.81Z"/><path class="cls-7" d="M50.21,24.42V22.81a2.67,2.67,0,0,0-2.67-2.68H45.07V15.74a3.43,3.43,0,0,0-3.43-3.43h-4.5a3.43,3.43,0,0,1,3.43,3.43v4.39H43a2.67,2.67,0,0,1,2.67,2.68v1.61A2.67,2.67,0,0,1,43,27.1a2.67,2.67,0,0,1,2.67,2.67v1.62A2.66,2.66,0,0,1,43,34.06a2.67,2.67,0,0,1,2.67,2.68v1.61A2.67,2.67,0,0,1,43,41a2.66,2.66,0,0,1,2.67,2.67v1.62a2.65,2.65,0,0,1-2,2.57,2.61,2.61,0,0,0,.69.1h3.12a2.67,2.67,0,0,0,2.67-2.67V43.7A2.66,2.66,0,0,0,47.54,41a2.67,2.67,0,0,0,2.67-2.68V36.74a2.67,2.67,0,0,0-2.67-2.68,2.66,2.66,0,0,0,2.67-2.67V29.77a2.67,2.67,0,0,0-2.67-2.67A2.67,2.67,0,0,0,50.21,24.42Z"/><path class="cls-7" d="M27.8,53.05l7.29-1.93c1.56-.41,3.4-1.12,3.66-2.71L38.44,48h1.48a2.57,2.57,0,0,1-1.29-.35,3.37,3.37,0,0,1-1.49.35h-3.2l.31.42c-.26,1.59-2.1,2.3-3.66,2.71L23.3,53.05l-.85.22a5.51,5.51,0,0,0,1.19.32A10.57,10.57,0,0,0,27.8,53.05Z"/></g><g id="Line"><path class="cls-8" d="M25.84,31.18a27.63,27.63,0,0,0,.34-6.79,9.35,9.35,0,0,0-2.83-6,6,6,0,0,0-.64-.49,3.18,3.18,0,0,0-4.86,3.28,18.88,18.88,0,0,1-.1,9c-.47,1.53-1.24,3-1.65,4.5a10.39,10.39,0,0,0,.68,7.19c1,2.14.57,5.2,1.58,7.37a7.28,7.28,0,0,0,5.28,4.38,10.57,10.57,0,0,0,4.16-.54l7.29-1.93c1.56-.41,3.4-1.12,3.66-2.71"/><path class="cls-9" d="M45.07,15.74v4.39h-.65a2.67,2.67,0,0,0-2.67,2.68v1.61a2.67,2.67,0,0,0,2.67,2.68,2.67,2.67,0,0,0-2.67,2.67v1.62a2.66,2.66,0,0,0,2.67,2.67,2.67,2.67,0,0,0-2.67,2.68v1.61A2.67,2.67,0,0,0,44.42,41a2.66,2.66,0,0,0-2.67,2.67v1.62a2.68,2.68,0,0,0,1.36,2.33,3.28,3.28,0,0,1-1.47.34H28.25a3.42,3.42,0,0,1-3.43-3.43V15.74a3.43,3.43,0,0,1,3.43-3.43H41.64A3.44,3.44,0,0,1,45.07,15.74Z"/><path class="cls-10" d="M50.21,22.81v1.61a2.68,2.68,0,0,1-2.67,2.68H44.42a2.67,2.67,0,0,1-2.67-2.68V22.81a2.67,2.67,0,0,1,2.67-2.68h3.12A2.68,2.68,0,0,1,50.21,22.81Z"/><path class="cls-10" d="M50.21,29.77v1.62a2.67,2.67,0,0,1-2.67,2.67H44.42a2.66,2.66,0,0,1-2.67-2.67V29.77a2.67,2.67,0,0,1,2.67-2.67h3.12A2.68,2.68,0,0,1,50.21,29.77Z"/><path class="cls-10" d="M50.21,36.74v1.61A2.68,2.68,0,0,1,47.54,41H44.42a2.67,2.67,0,0,1-2.67-2.68V36.74a2.67,2.67,0,0,1,2.67-2.68h3.12A2.68,2.68,0,0,1,50.21,36.74Z"/><path class="cls-10" d="M50.21,43.7v1.62A2.68,2.68,0,0,1,47.54,48H44.42a2.64,2.64,0,0,1-1.31-.34,2.68,2.68,0,0,1-1.36-2.33V43.7A2.66,2.66,0,0,1,44.42,41h3.12A2.67,2.67,0,0,1,50.21,43.7Z"/><line class="cls-8" x1="28.36" y1="23.62" x2="39.29" y2="23.62"/><line class="cls-8" x1="28.36" y1="30.15" x2="39.29" y2="30.15"/><line class="cls-8" x1="28.36" y1="35.49" x2="39.29" y2="35.49"/></g></g></svg>