<svg xmlns="http://www.w3.org/2000/svg" viewBox="0 0 64 64"><defs><style>.cls-1{isolation:isolate;}.cls-2{fill:#fff;}.cls-3{fill:#fea621;}.cls-4{opacity:0.25;mix-blend-mode:multiply;}.cls-5{mix-blend-mode:overlay;}.cls-6,.cls-7,.cls-8{fill:none;stroke:#000;}.cls-6,.cls-8{stroke-miterlimit:10;}.cls-6,.cls-7{stroke-width:2px;}.cls-7{stroke-linecap:round;stroke-linejoin:round;}.cls-8{stroke-width:1.97px;}</style></defs><title>Icon Color</title><g class="cls-1"><g id="Color"><path class="cls-2" d="M8.18,42.76H54.65a11.17,11.17,0,0,0-7.76-19.11,15.86,15.86,0,0,0-27.83-2.16,12,12,0,0,0-2.56-.27A12.37,12.37,0,0,0,8.18,42.76Z"/><path class="cls-3" d="M34.9,47.07H15.79v-24a1.64,1.64,0,0,1,1.64-1.65h12A1.65,1.65,0,0,1,31,22.79Z"/><rect class="cls-2" x="21.27" y="25.24" width="22.83" height="18.83"/><path class="cls-3" d="M15.79,30.19H44.11A3.85,3.85,0,0,1,48,34V48.3a3.85,3.85,0,0,1-3.85,3.85H19.64a3.85,3.85,0,0,1-3.85-3.85V30.19A0,0,0,0,1,15.79,30.19Z"/><path class="cls-2" d="M28,52.15h29.8a7.16,7.16,0,0,0-5-12.26,10.18,10.18,0,0,0-17.85-1.38,7.43,7.43,0,0,0-1.64-.18A7.94,7.94,0,0,0,28,52.15Z"/></g><g id="Shadow" class="cls-4"><path d="M56.21,40.8a11,11,0,0,0,1.76-6A11.17,11.17,0,0,0,46.89,23.65a15.87,15.87,0,0,0-14.5-9.43,15.58,15.58,0,0,0-3.15.32,15.88,15.88,0,0,1,9.59,6.05,9.53,9.53,0,0,0,4.85,3.51,11.18,11.18,0,0,1,8,10.72c0,.28,0,.56,0,.83A16.26,16.26,0,0,0,52.91,44a7.15,7.15,0,0,1-1.43,8.18h6.27A7.16,7.16,0,0,0,56.21,40.8Z"/></g><g id="Highlight" class="cls-5"><path class="cls-2" d="M21.79,21.93h-6V48.3a3.85,3.85,0,0,0,3.85,3.85h6a3.85,3.85,0,0,1-3.85-3.85V21.93Z"/><path class="cls-2" d="M10.12,33.6A12.38,12.38,0,0,1,22.5,21.22a12,12,0,0,1,2,.18h.61a15.93,15.93,0,0,1,10.24-6.89,16.08,16.08,0,0,0-3-.29A15.83,15.83,0,0,0,19.12,21.4h-.61a12,12,0,0,0-2-.18A12.37,12.37,0,0,0,8.18,42.76h6A12.35,12.35,0,0,1,10.12,33.6Z"/></g><g id="Line"><path class="cls-6" d="M58,34.81a11,11,0,0,1-1.75,6,7.1,7.1,0,0,0-3.43-.91,10.29,10.29,0,0,0-4.82-5V34a3.85,3.85,0,0,0-3.85-3.85h0v-5H21.26v5H15.78V42.76H8.18A12.37,12.37,0,0,1,16.5,21.22a12.15,12.15,0,0,1,2.1.18l.45.08.06-.08a15.87,15.87,0,0,1,27.78,2.25A11.16,11.16,0,0,1,58,34.81Z"/><path class="cls-6" d="M31.42,25.24H21.26v5H15.78V23.05a1.65,1.65,0,0,1,1.65-1.65h12A1.64,1.64,0,0,1,31,22.79Z"/><rect class="cls-7" x="21.26" y="25.24" width="22.83" height="4.95"/><path class="cls-8" d="M48,34v.84a10,10,0,0,0-3.87-1l-.62,0a10.18,10.18,0,0,0-8.55,4.66,8.11,8.11,0,0,0-1.41-.16h-.23a7.94,7.94,0,0,0-7.12,4.43,7.1,7.1,0,0,0-.5,1.31,7.67,7.67,0,0,0-.32,2.21,6.85,6.85,0,0,0,0,.79A7.93,7.93,0,0,0,28,52.15H19.63a3.86,3.86,0,0,1-3.85-3.85V30.19H44.11A3.85,3.85,0,0,1,48,34Z"/><path class="cls-6" d="M59.88,47.05a7.16,7.16,0,0,1-2.13,5.1H28a7.93,7.93,0,0,1-2.57-5.08,6.85,6.85,0,0,1,0-.79,7.67,7.67,0,0,1,.32-2.21,7.1,7.1,0,0,1,.5-1.31,7.94,7.94,0,0,1,7.12-4.43h.23a8.11,8.11,0,0,1,1.41.16,10.18,10.18,0,0,1,8.55-4.66l.62,0a10,10,0,0,1,3.87,1,10.29,10.29,0,0,1,4.82,5,7.17,7.17,0,0,1,7.1,7.16Z"/></g></g></svg>