<svg xmlns="http://www.w3.org/2000/svg" viewBox="0 0 64 64"><defs><style>.cls-1{isolation:isolate;}.cls-2{fill:#fff;}.cls-3{fill:red;}.cls-4{fill:#4d4d4d;}.cls-5{opacity:0.25;mix-blend-mode:multiply;}.cls-6{mix-blend-mode:overlay;}.cls-7{fill:none;stroke:#000;stroke-miterlimit:10;stroke-width:2px;}</style></defs><title>Icon Color</title><g class="cls-1"><g id="Color"><path class="cls-2" d="M49,31.17V50a1.84,1.84,0,0,1-1.85,1.84H16.57A1.84,1.84,0,0,1,14.73,50V31.17a3.49,3.49,0,0,0,1.95-.7L31.56,19.2a.45.45,0,0,1,.56,0L47,30.47A3.49,3.49,0,0,0,49,31.17Z"/><path class="cls-3" d="M51.91,29.79a3.48,3.48,0,0,1-2.79,1.39H49a3.49,3.49,0,0,1-2-.7L32.12,19.2a.45.45,0,0,0-.56,0L16.68,30.47a3.5,3.5,0,1,1-4.23-5.58L27.34,13.62a7.49,7.49,0,0,1,9,0L51.24,24.89A3.49,3.49,0,0,1,51.91,29.79Z"/><path class="cls-4" d="M32.36,40h0a7.93,7.93,0,0,1,7.93,7.93v4a0,0,0,0,1,0,0H24.43a0,0,0,0,1,0,0v-4A7.93,7.93,0,0,1,32.36,40Z"/><circle class="cls-2" cx="32.36" cy="31.54" r="5.68"/></g><g id="Shadow" class="cls-5"><rect x="34.02" y="51.87" width="6.27"/><path d="M30.08,13.62,45,24.89C46.51,26.06,42.69,50,42.69,50a1.84,1.84,0,0,1-1.85,1.84h6.27A1.84,1.84,0,0,0,49,50V31.17h.16a3.5,3.5,0,0,0,2.12-6.29L36.35,13.62a7.5,7.5,0,0,0-7.64-.8A7.54,7.54,0,0,1,30.08,13.62Z"/></g><g id="Highlight" class="cls-6"><rect class="cls-2" x="24.43" y="51.87" width="6"/><path class="cls-2" d="M14.73,31.17V50a1.84,1.84,0,0,0,1.84,1.84h6A1.84,1.84,0,0,1,20.73,50V31.17a3.49,3.49,0,0,1-2.28-6.28L33.34,13.62a7.49,7.49,0,0,1,1.51-.85,7.48,7.48,0,0,0-7.51.85L12.45,24.89a3.49,3.49,0,0,0,2.28,6.28Z"/></g><g id="Line"><path class="cls-7" d="M49,31.17V50a1.84,1.84,0,0,1-1.85,1.84H16.57A1.84,1.84,0,0,1,14.73,50V31.17a3.49,3.49,0,0,0,1.95-.7L31.56,19.2a.45.45,0,0,1,.56,0L47,30.47A3.49,3.49,0,0,0,49,31.17Z"/><path class="cls-7" d="M51.91,29.79a3.48,3.48,0,0,1-2.79,1.39H49a3.49,3.49,0,0,1-2-.7L32.12,19.2a.45.45,0,0,0-.56,0L16.68,30.47a3.5,3.5,0,1,1-4.23-5.58L27.34,13.62a7.49,7.49,0,0,1,9,0L51.24,24.89A3.49,3.49,0,0,1,51.91,29.79Z"/><path class="cls-7" d="M32.36,40h0a7.93,7.93,0,0,1,7.93,7.93v4a0,0,0,0,1,0,0H24.43a0,0,0,0,1,0,0v-4A7.93,7.93,0,0,1,32.36,40Z"/><circle class="cls-7" cx="32.36" cy="31.54" r="5.68"/></g></g></svg>