<svg xmlns="http://www.w3.org/2000/svg" viewBox="0 0 64 64"><defs><style>.cls-1{isolation:isolate;}.cls-10,.cls-2{fill:#fff;}.cls-3{fill:#fbb040;}.cls-4,.cls-8{fill:none;}.cls-5{opacity:0.25;mix-blend-mode:multiply;}.cls-6{fill:#231f20;}.cls-7{mix-blend-mode:overlay;}.cls-10,.cls-8{stroke:#231f20;stroke-linecap:round;stroke-linejoin:round;stroke-width:2px;}.cls-9{fill:#ed1c24;}</style></defs><title>Icon Color</title><g class="cls-1"><g id="Color"><path class="cls-2" d="M9.13,8.93h46a0,0,0,0,1,0,0V48.52a6.41,6.41,0,0,1-6.41,6.41H15.54a6.41,6.41,0,0,1-6.41-6.41V8.93a0,0,0,0,1,0,0Z"/><path class="cls-3" d="M10.68,6.71H53.82A2.79,2.79,0,0,1,56.61,9.5v8A2.45,2.45,0,0,1,54.15,20H10.35a2.45,2.45,0,0,1-2.45-2.45v-8A2.79,2.79,0,0,1,10.68,6.71Z"/><path class="cls-2" d="M44.39,37.32A12.14,12.14,0,1,1,32.25,25.18"/><path class="cls-4" d="M33.1,38.48A6,6,0,0,1,32,42.42a4,4,0,0,1-3.24,1.39,4,4,0,0,1-3.26-1.4,6,6,0,0,1-1.15-3.93V36.17a6,6,0,0,1,1.14-3.94,4,4,0,0,1,3.25-1.39A4,4,0,0,1,32,32.23a6,6,0,0,1,1.15,4ZM30.18,35.8a4.64,4.64,0,0,0-.35-2,1.2,1.2,0,0,0-1.13-.67,1.17,1.17,0,0,0-1.1.63,4.23,4.23,0,0,0-.36,1.89v3.22a4.53,4.53,0,0,0,.35,2.07,1.2,1.2,0,0,0,1.13.65,1.18,1.18,0,0,0,1.1-.63,4.24,4.24,0,0,0,.36-2Z"/><path class="cls-4" d="M39.77,43.63H36.84V34.31L34,35.15V32.93L39.5,31h.27Z"/><rect class="cls-2" x="15.28" y="4.72" width="7.34" height="7.34" rx="1.81"/><rect class="cls-2" x="40.27" y="4.72" width="7.34" height="7.34" rx="1.81"/></g><g id="Shadow" class="cls-5"><path class="cls-6" d="M40.54,6.54v.17h6.21A2.79,2.79,0,0,1,49.54,9.5v8.05a2.46,2.46,0,0,1-1.48,2.25V48.52a6.41,6.41,0,0,1-6.41,6.41h7.07a6.41,6.41,0,0,0,6.41-6.41V19.8a2.46,2.46,0,0,0,1.48-2.25v-8a2.79,2.79,0,0,0-2.79-2.79H47.61V6.54A1.82,1.82,0,0,0,45.8,4.72H42.08a1.8,1.8,0,0,0-1.67,1.14A1.91,1.91,0,0,1,40.54,6.54Z"/><path class="cls-6" d="M15.55,6.54v.17h7.07V6.54a1.82,1.82,0,0,0-1.81-1.82H17.09a1.81,1.81,0,0,0-1.68,1.14A1.72,1.72,0,0,1,15.55,6.54Z"/></g><g id="Highlight" class="cls-7"><path class="cls-2" d="M46.59,6.54a1.84,1.84,0,0,1,.51-1.26,1.81,1.81,0,0,0-1.3-.56H42.08a1.82,1.82,0,0,0-1.81,1.82v.17h6.32Z"/><path class="cls-2" d="M9.13,19.66V48.52a6.41,6.41,0,0,0,6.41,6.41h6.32a6.41,6.41,0,0,1-6.41-6.41V19.66a2.43,2.43,0,0,1-1.23-2.11v-8A2.78,2.78,0,0,1,17,6.71h4.6V6.54a1.84,1.84,0,0,1,.51-1.26,1.81,1.81,0,0,0-1.3-.56H17.09a1.82,1.82,0,0,0-1.81,1.82v.17h-4.6A2.79,2.79,0,0,0,7.89,9.5v8.05A2.44,2.44,0,0,0,9.13,19.66Z"/></g><g id="Line"><path class="cls-8" d="M55.13,19.8V48.52a6.41,6.41,0,0,1-6.41,6.41H15.53a6.41,6.41,0,0,1-6.4-6.41V19.68a2.38,2.38,0,0,0,1.21.32H54.15A2.45,2.45,0,0,0,55.13,19.8Z"/><path class="cls-8" d="M56.6,9.5v8A2.44,2.44,0,0,1,54.15,20H10.34a2.38,2.38,0,0,1-1.21-.32,2.45,2.45,0,0,1-1.24-2.14v-8a2.79,2.79,0,0,1,2.79-2.79h4.59v3.54a1.82,1.82,0,0,0,1.82,1.81H20.8a1.82,1.82,0,0,0,1.82-1.81V6.71H40.27v3.54a1.81,1.81,0,0,0,1.81,1.81h3.71a1.81,1.81,0,0,0,1.82-1.81V6.71h6.21A2.78,2.78,0,0,1,56.6,9.5Z"/><path class="cls-9" d="M44.51,37.32a13.56,13.56,0,0,1-.42,3.59,12.45,12.45,0,0,1-3.85,6.15,13.64,13.64,0,0,1-3.12,2,13.69,13.69,0,0,1-3.62,1,14,14,0,0,1-3.76-.1,14,14,0,0,1-3.6-1.2,13.08,13.08,0,0,1-5.49-5.24,13.92,13.92,0,0,1-1.42-3.61A14.51,14.51,0,0,1,19,36a12.39,12.39,0,0,1,3.11-7,13.24,13.24,0,0,1,3-2.42,12.27,12.27,0,0,1,3.52-1.35,12,12,0,0,1,3.67-.14.11.11,0,0,1,.1.13c0,.05,0,.09-.09.09h0a14.44,14.44,0,0,0-3.37.91,12.18,12.18,0,0,0-5.23,4.05,12.14,12.14,0,0,0-2.19,9.21,11.89,11.89,0,0,0,1,3.1,12.71,12.71,0,0,0,1.87,2.69,12.92,12.92,0,0,0,2.61,2A12.61,12.61,0,0,0,30,48.5a12.93,12.93,0,0,0,3.35.25,11.85,11.85,0,0,0,6.28-2.4,13.07,13.07,0,0,0,2.4-2.47,12.8,12.8,0,0,0,1.59-3.1,13.46,13.46,0,0,0,.63-3.46h0a.11.11,0,0,1,.12-.11A.11.11,0,0,1,44.51,37.32Z"/><path class="cls-9" d="M28.7,30.84a4,4,0,0,0-3.25,1.39,6,6,0,0,0-1.14,3.94v2.31a6,6,0,0,0,1.15,3.93,4,4,0,0,0,3.26,1.4A4,4,0,0,0,32,42.42a6,6,0,0,0,1.14-3.94v-2.3a6,6,0,0,0-1.15-4,4,4,0,0,0-3.25-1.39Zm0,10.71a1.2,1.2,0,0,1-1.13-.65,4.53,4.53,0,0,1-.35-2.07V35.61a4.23,4.23,0,0,1,.36-1.89,1.17,1.17,0,0,1,1.1-.63,1.2,1.2,0,0,1,1.13.67,4.64,4.64,0,0,1,.35,2v3.12a4.24,4.24,0,0,1-.36,2,1.18,1.18,0,0,1-1.1.63Z"/><polygon class="cls-9" points="39.77 31.01 39.5 31.01 33.96 32.93 33.96 35.15 36.84 34.31 36.84 43.63 39.77 43.63 39.77 31.01 39.77 31.01"/><path class="cls-10" d="M22.62,6.54v3.71a1.82,1.82,0,0,1-1.82,1.81H17.09a1.82,1.82,0,0,1-1.82-1.81V6.54a1.82,1.82,0,0,1,1.82-1.82H20.8A1.82,1.82,0,0,1,22.62,6.54Z"/><path class="cls-8" d="M47.61,6.54v3.71a1.81,1.81,0,0,1-1.82,1.81H42.08a1.81,1.81,0,0,1-1.81-1.81V6.54a1.81,1.81,0,0,1,1.81-1.82h3.71A1.81,1.81,0,0,1,47.61,6.54Z"/></g></g></svg>