<svg xmlns="http://www.w3.org/2000/svg" viewBox="0 0 64 64"><defs><style>.cls-1{isolation:isolate;}.cls-2{fill:#ed1c24;}.cls-3{fill:#fff;}.cls-4{opacity:0.25;mix-blend-mode:multiply;}.cls-5{fill:#231f20;}.cls-6{mix-blend-mode:overlay;}.cls-7{fill:none;stroke:#231f20;stroke-linecap:round;stroke-linejoin:round;stroke-width:2px;}</style></defs><title>Icon Color</title><g class="cls-1"><g id="Color"><rect class="cls-2" x="11.32" y="13.25" width="39.54" height="8.04"/><path class="cls-3" d="M11.32,21.29H50.86a0,0,0,0,1,0,0V45.47a4.69,4.69,0,0,1-4.69,4.69H16a4.69,4.69,0,0,1-4.69-4.69V21.29A0,0,0,0,1,11.32,21.29Z"/><rect class="cls-3" x="17.7" y="27.66" width="4.78" height="4.78"/><rect class="cls-3" x="17.7" y="37.92" width="4.78" height="4.78"/><polygon class="cls-2" points="52.27 42.85 43.09 37.92 40.91 48.65 44.44 45.37 47.7 51.78 50.81 50.19 47.47 43.64 52.27 42.85"/></g><g id="Shadow" class="cls-4"><polygon class="cls-5" points="47.7 51.78 50.81 50.19 50.8 50.16 46.88 50.16 47.7 51.78"/><path class="cls-5" d="M18.73,13.25H11.32V45.47A4.69,4.69,0,0,0,16,50.16h7.41a4.69,4.69,0,0,1-4.69-4.69V13.25Z"/></g><g id="Highlight" class="cls-6"><path class="cls-3" d="M50.86,13.25h-4.5V42.1l1.41.75-1.41.24v2.38a4.64,4.64,0,0,1-1,2.86l.93,1.82a5.32,5.32,0,0,0,.56-.06l.85,1.69,3.12-1.59-1-1.86a4.64,4.64,0,0,0,1-2.86V43.09l1.41-.24-1.41-.75V13.25Z"/><path class="cls-3" d="M41.67,50.16h.71l0-.07A5.23,5.23,0,0,1,41.67,50.16Z"/></g><g id="Line"><rect class="cls-7" x="11.32" y="13.25" width="39.54" height="8.04"/><path class="cls-7" d="M42.6,40.31l-1.69,8.34,3.52-3.28,2.42,4.74a5.06,5.06,0,0,1-.68,0H16a4.69,4.69,0,0,1-4.68-4.69V21.28H50.85V42.09l-7.76-4.17Z"/><path class="cls-7" d="M50.85,43.08v2.39a4.63,4.63,0,0,1-1,2.87l-2.4-4.7Z"/><rect class="cls-7" x="17.7" y="27.66" width="4.78" height="4.78"/><rect class="cls-7" x="17.7" y="37.92" width="4.78" height="4.78"/><line class="cls-7" x1="28.29" y1="30.05" x2="44.53" y2="30.05"/><line class="cls-7" x1="28.29" y1="40.31" x2="41.86" y2="40.31"/><line class="cls-7" x1="28.29" y1="35.31" x2="44.53" y2="35.31"/><polygon class="cls-7" points="50.85 43.08 47.47 43.64 49.87 48.34 50.81 50.19 47.7 51.77 46.85 50.11 44.43 45.37 40.91 48.65 42.6 40.31 43.09 37.92 50.85 42.09 52.26 42.85 50.85 43.08"/></g></g></svg>