<svg xmlns="http://www.w3.org/2000/svg" viewBox="0 0 64 64"><defs><style>.cls-1{isolation:isolate;}.cls-2{fill:#104c97;}.cls-3{fill:#010101;}.cls-4{fill:#1b5eac;}.cls-5{fill:#e6e6e5;}.cls-6{fill:#e2415d;}.cls-7{fill:#fac22b;}.cls-8{opacity:0.25;mix-blend-mode:multiply;}.cls-9{mix-blend-mode:overlay;}.cls-10{fill:#fff;}.cls-11,.cls-12,.cls-13{fill:none;stroke:#010101;stroke-miterlimit:10;}.cls-11,.cls-12{stroke-width:2px;}.cls-12{stroke-linecap:round;}</style></defs><title>Icon Color_10</title><g class="cls-1"><g id="Color"><path class="cls-2" d="M56,28H8.25A3.26,3.26,0,0,0,5,31.29V52.51a3.26,3.26,0,0,0,3.26,3.26H56a3.26,3.26,0,0,0,3.26-3.26V31.29A3.26,3.26,0,0,0,56,28ZM48.4,50.38a1.18,1.18,0,0,1-1.17,1.17H17a1.18,1.18,0,0,1-1.17-1.17V35.88H48.4Z"/><path class="cls-3" d="M15.24,35.88h.6V40.7h-.6a2.42,2.42,0,0,1-2.41-2.41,2.43,2.43,0,0,1,2.41-2.41Z"/><path class="cls-3" d="M51.41,38.29A2.43,2.43,0,0,1,49,40.7h-.6V35.88H49A2.42,2.42,0,0,1,51.41,38.29Z"/><path class="cls-4" d="M13.11,14.17h2.74V27.44H10.42V16.86A2.69,2.69,0,0,1,13.11,14.17Z"/><path class="cls-4" d="M53.82,16.86V27.44H48.4V14.17h2.74A2.69,2.69,0,0,1,53.82,16.86Z"/><path class="cls-5" d="M48.4,9.31V27.44H15.84V9.31A1.18,1.18,0,0,1,17,8.14H47.23A1.18,1.18,0,0,1,48.4,9.31Z"/><circle class="cls-6" cx="9.57" cy="32.86" r="1.81"/><rect class="cls-7" x="48.76" y="31.05" width="6.03" height="2.41"/><rect class="cls-5" x="15.96" y="35.93" width="32.22" height="15.44"/></g><g id="Shadow" class="cls-8"><path class="cls-3" d="M56,28H52V50.48a7.42,7.42,0,0,1-2.22,5.29H56a3.26,3.26,0,0,0,3.26-3.26V31.29A3.26,3.26,0,0,0,56,28Z"/><path class="cls-3" d="M51.13,14.17H48.4V9.31a1.18,1.18,0,0,0-1.17-1.17H17a1.18,1.18,0,0,0-1.17,1.17v1.25h21.5a8.32,8.32,0,0,1,8.29,8.29v7.95c0,.21,0,.42,0,.63h8.21V16.86A2.69,2.69,0,0,0,51.13,14.17Z"/></g><g id="Highlight" class="cls-9"><path class="cls-10" d="M14,55.36A6.38,6.38,0,0,1,7.59,49V28.1A3.26,3.26,0,0,0,5,31.29V52.51a3.26,3.26,0,0,0,3.26,3.26H56a3.22,3.22,0,0,0,1.54-.41Z"/><rect class="cls-10" x="13.13" y="29.86" width="23.68" height="1.2" rx="0.6" ry="0.6"/><path class="cls-10" d="M7.76,32.86a2.5,2.5,0,0,1,2-2.44,2.51,2.51,0,1,0,0,4.88A2.5,2.5,0,0,1,7.76,32.86Z"/><circle class="cls-10" cx="8.9" cy="32.17" r="0.71"/><path class="cls-10" d="M12.45,16a1.39,1.39,0,0,1,1.38-1.38H12.26A1.39,1.39,0,0,0,10.87,16V26.29a1.39,1.39,0,0,0,1.38,1.38h.19Z"/></g><g id="Line"><path class="cls-11" d="M56,28H8.25A3.26,3.26,0,0,0,5,31.29V52.51a3.26,3.26,0,0,0,3.26,3.26H56a3.26,3.26,0,0,0,3.26-3.26V31.29A3.26,3.26,0,0,0,56,28ZM48.4,50.38a1.18,1.18,0,0,1-1.17,1.17H17a1.18,1.18,0,0,1-1.17-1.17V35.88H48.4Z"/><path class="cls-11" d="M15.24,35.88h.6V40.7h-.6a2.42,2.42,0,0,1-2.41-2.41,2.43,2.43,0,0,1,2.41-2.41Z"/><path class="cls-11" d="M51.41,38.29A2.43,2.43,0,0,1,49,40.7h-.6V35.88H49A2.42,2.42,0,0,1,51.41,38.29Z"/><path class="cls-11" d="M13.11,14.17h2.74V27.44H10.42V16.86A2.69,2.69,0,0,1,13.11,14.17Z"/><path class="cls-11" d="M53.82,16.86V27.44H48.4V14.17h2.74A2.69,2.69,0,0,1,53.82,16.86Z"/><path class="cls-11" d="M48.4,9.31V27.44H15.84V9.31A1.18,1.18,0,0,1,17,8.14H47.23A1.18,1.18,0,0,1,48.4,9.31Z"/><line class="cls-12" x1="19.82" y1="39.49" x2="43.94" y2="39.49"/><line class="cls-12" x1="19.82" y1="46.73" x2="43.94" y2="46.73"/><line class="cls-12" x1="19.82" y1="43.11" x2="28.26" y2="43.11"/><line class="cls-12" x1="33.08" y1="43.11" x2="43.94" y2="43.11"/><circle class="cls-13" cx="9.57" cy="32.86" r="1.81"/><rect class="cls-13" x="48.76" y="31.05" width="6.03" height="2.41"/></g></g></svg>