<svg xmlns="http://www.w3.org/2000/svg" viewBox="0 0 115.83 89.86"><defs><style>.cls-1{fill:#fa2828;}.cls-2{fill:#494949;}.cls-3{fill:#0c7ca6;}</style></defs><g id="레이어_2" data-name="레이어 2"><g id="logo"><path class="cls-1" d="M19.71,16.86a1,1,0,0,0-.83.29,9.76,9.76,0,0,0-1,1,.21.21,0,0,0,0,.26c.3.52.85.67,1.64.67h6a1,1,0,0,0,.83-.29,10.94,10.94,0,0,0,1-1,.23.23,0,0,0,0-.26c-.3-.52-.86-.67-1.64-.67Z"/><path class="cls-2" d="M35.13,15.65a1,1,0,0,0-.87-.11,9.15,9.15,0,0,0-1.33.47.21.21,0,0,0-.1.23c0,.6.46,1,1.16,1.35l5.34,2.72a1,1,0,0,0,.87.11A10.44,10.44,0,0,0,41.52,20a.24.24,0,0,0,.11-.24c0-.6-.46-1-1.16-1.35Z"/><path class="cls-2" d="M30.67,12.53a.21.21,0,0,0-.24,0,8.83,8.83,0,0,0-1,.92.93.93,0,0,0-.28.78v7.67c0,.74.15,1.27.64,1.55a.21.21,0,0,0,.24,0,9.69,9.69,0,0,0,1-.91,1,1,0,0,0,.28-.79V14.08A1.6,1.6,0,0,0,30.67,12.53Z"/><path class="cls-2" d="M44.63,12.53a.21.21,0,0,0-.24,0,8.83,8.83,0,0,0-1,.92.93.93,0,0,0-.28.78v7.67c0,.74.15,1.27.64,1.55a.21.21,0,0,0,.24,0,9.69,9.69,0,0,0,1-.91,1,1,0,0,0,.28-.79V14.08A1.6,1.6,0,0,0,44.63,12.53Z"/><path class="cls-2" d="M5.94,15.65a1,1,0,0,0-.88-.11A9.43,9.43,0,0,0,3.74,16a.21.21,0,0,0-.1.23c0,.6.46,1,1.16,1.35l5.33,2.72a1,1,0,0,0,.88.11A11,11,0,0,0,12.33,20a.24.24,0,0,0,.11-.24c0-.6-.46-1-1.16-1.35Z"/><path class="cls-2" d="M1.48,12.53a.21.21,0,0,0-.24,0,8.83,8.83,0,0,0-1,.92.93.93,0,0,0-.28.78v7.67c0,.74.15,1.27.63,1.55a.23.23,0,0,0,.25,0,9.69,9.69,0,0,0,1-.91,1,1,0,0,0,.28-.79V14.08A1.6,1.6,0,0,0,1.48,12.53Z"/><path class="cls-2" d="M15.44,12.53a.21.21,0,0,0-.24,0,8.83,8.83,0,0,0-1,.92.93.93,0,0,0-.28.78v7.67c0,.74.15,1.27.64,1.55a.21.21,0,0,0,.24,0,9.69,9.69,0,0,0,1-.91,1,1,0,0,0,.28-.79V14.08A1.6,1.6,0,0,0,15.44,12.53Z"/><polygon class="cls-3" points="19.18 42.73 36.18 28.98 26.92 28.98 11.64 42.63 14.33 28.98 2.21 28.98 5.67 32.1 0 60.88 8.04 60.88 11.09 45.42 19.43 60.88 29.82 60.88 19.18 42.73"/><path class="cls-3" d="M62.5,29.76a14.21,14.21,0,0,0-4-1,37.19,37.19,0,0,0-5.3-.42A25.09,25.09,0,0,0,38.07,33a19.63,19.63,0,0,0-7.86,12.42,15.06,15.06,0,0,0,.33,7.74,10.87,10.87,0,0,0,4.11,5.61c2.55,1.8,6,2.71,10.37,2.71a35.58,35.58,0,0,0,10.12-1.38,2.24,2.24,0,0,0,1.54-1.35l1-3.08.16-.35,0-.08,0-.08a.82.82,0,0,0-.49-.92L57,53.94a1.06,1.06,0,0,0-.64-.19,1.23,1.23,0,0,0-.66.22,19.25,19.25,0,0,1-9.08,2.47c-3.08,0-5.27-1.07-6.72-3.29S38.1,48,38.82,44.32a14.36,14.36,0,0,1,4.06-8,10.7,10.7,0,0,1,7.59-2.73,18.2,18.2,0,0,1,8.25,1.74c.91.46,1,.48,1.2.48a2,2,0,0,0,.58-.13l.07,0,.07,0,.54-.29-.09,0a1.59,1.59,0,0,0,1-1s.93-3,.93-3A1.19,1.19,0,0,0,62.5,29.76Z"/><path class="cls-3" d="M90.26,30.84C88.46,29.49,85.39,29,81.2,29L65.09,29l3.46,3.12L62.88,60.88h8l2.2-11.15h2.66c4.32,0,7.77-.66,10.25-2a12.36,12.36,0,0,0,6.78-8.71C93.52,35.44,92.66,32.68,90.26,30.84Zm-5.9,8.6a5.94,5.94,0,0,1-2.41,4c-1.13.77-3,1.15-5.48,1.15-.69,0-1.48,0-2.32-.06L76.22,34c.42,0,1.13,0,2.33,0a11.2,11.2,0,0,1,4,.54C84.26,35.26,84.86,36.86,84.36,39.44Z"/><path class="cls-3" d="M113.26,31.94l-23.51-28A11,11,0,0,0,74.29,2.56L49.36,23.48H60.18L78.76,7.89a4,4,0,0,1,5.66.5l23.52,28a4,4,0,0,1-.5,5.67L59.9,82a4,4,0,0,1-5.67-.5L41.57,66.38H32.49L48.9,85.94A11,11,0,0,0,64.37,87.3l47.54-39.89A11,11,0,0,0,113.26,31.94Z"/></g></g></svg>