<svg xmlns="http://www.w3.org/2000/svg" xmlns:xlink="http://www.w3.org/1999/xlink" viewBox="0 0 600 350"><defs><style>.cls-1{fill:#15b2b8;}.cls-2{fill:#515251;}.cls-3{fill:#7b6e66;}.cls-4{fill:#404240;}.cls-5{fill:#ffcd24;}.cls-19,.cls-6{fill:#fff;}.cls-7{fill:url(#linear-gradient);}.cls-8{fill:url(#linear-gradient-2);}.cls-9{fill:url(#linear-gradient-3);}.cls-10{fill:url(#linear-gradient-4);}.cls-11{fill:url(#linear-gradient-5);}.cls-12{fill:url(#linear-gradient-6);}.cls-13{fill:url(#linear-gradient-7);}.cls-14{fill:#1c1a1a;}.cls-15{fill:none;}.cls-16{fill:#2a2a29;}.cls-17{fill:#e8e8e8;}.cls-18{fill:#434443;}.cls-19{opacity:0.6;}.cls-20{opacity:0.5;}</style><linearGradient id="linear-gradient" x1="1218.57" y1="-1777.35" x2="1257.08" y2="-1777.35" gradientTransform="matrix(-1, 0, 0, 1, 1676.23, 1984.22)" gradientUnits="userSpaceOnUse"><stop offset="0.01" stop-color="#3e3c3c"/><stop offset="0.2" stop-color="#383636"/><stop offset="0.5" stop-color="#383636"/><stop offset="0.72" stop-color="#3e3c3c"/><stop offset="1" stop-color="#312f2e"/></linearGradient><linearGradient id="linear-gradient-2" x1="1218.4" y1="-1793.53" x2="1257.89" y2="-1793.53" xlink:href="#linear-gradient"/><linearGradient id="linear-gradient-3" x1="1215.96" y1="-1806.36" x2="1260.98" y2="-1806.36" gradientTransform="matrix(-1, 0, 0, 1, 1676.23, 1984.22)" gradientUnits="userSpaceOnUse"><stop offset="0.01" stop-color="#3e3c3c"/><stop offset="0.2" stop-color="#464242"/><stop offset="0.5" stop-color="#fff"/><stop offset="0.72" stop-color="#464242"/><stop offset="1" stop-color="#312f2e"/></linearGradient><linearGradient id="linear-gradient-4" x1="1216.46" y1="-1798.2" x2="1259.1" y2="-1798.2" xlink:href="#linear-gradient-3"/><linearGradient id="linear-gradient-5" x1="1216.46" y1="-1792.88" x2="1259.1" y2="-1792.88" xlink:href="#linear-gradient-3"/><linearGradient id="linear-gradient-6" x1="1216.56" y1="-1787.91" x2="1259.12" y2="-1787.91" xlink:href="#linear-gradient-3"/><linearGradient id="linear-gradient-7" x1="1216.56" y1="-1782.58" x2="1259.13" y2="-1782.58" xlink:href="#linear-gradient-3"/></defs><g id="레이어_2" data-name="레이어 2"><g id="Banners"><rect class="cls-1" width="600" height="350"/><path class="cls-2" d="M335.6,337.91c.2,1,1.59,5.5,3.57,11.55h36.27a37.15,37.15,0,0,1-1.22-5c-1.34-8.23-3.75-12.59-4-14.76s1.07-4.35-.27-5.32,2.68-1.45,1.61-4.11,9.12-27.57,13.41-35.79c0,0,2.68,22.49,2.68,27.08s0,5.81-.53,6.53-.27,2.9-.27,2.9a61.08,61.08,0,0,0-3.22,7c-.54,1.93,0,1.45-.54,2.9s-3.75,3.87-3.22,6.77,1.61,3.15,1.88,6.78a21.62,21.62,0,0,1-.5,5h64L429.45,219.92l-1.12.42s-5.65-2.6-6.65-3.6-8.79-13.09-8.57-14.69c0,0-48.81,15.41-49.89,17.58s-7.77,29-11,43.79-5.1,22.49-7,26.84-5.64,2.18-3.22,5.56.53,4.84,0,6.05,1.6,6,.8,6.77-2.41,3.63-5.1,8,1.88,5.8,1.35,6.77S334.79,333.79,335.6,337.91Z"/><path class="cls-3" d="M370.32,246c-.57-1.84-.9-3-.9-3A12.89,12.89,0,0,0,370.32,246Z"/><path class="cls-4" d="M365,326c1.77,2.6,4.37,16.2,5.92,23.48h4.48c-.07-.47-.12-1-.15-1.56-.29-5.28-3.81-15.84-4.68-17.43s-.59-1.32,0-2.64.66-1.81,0-2.64.28-2.11.87-3.16.29-2.12.29-4.5S385,284.46,385,284.46s3.49,23.87,2.62,29.92.59-.54.59-.54.59-29.58.3-33,5.85,1.32,5.85,1.32-7.31-9-7.31-9.77-7.91-34.59-7.91-34.59l-2.64,15.31,8.79,21.13S373.68,254.6,370.32,246c2.13,6.92,7.72,24,12.57,30,0,0-4.1,6.59-5.56,8.71s3.22-1.85,2.05,1.32-5,20.07-7,20.86-5.56-25.62-5.56-25.62L369.13,312l-6.15-7.4s2.34,6.34,2.63,7.92-.29,5.81.88,8.19-8.2.79-11.71,0S362.68,322.55,365,326Z"/><path class="cls-3" d="M504.1,247.15c.57-1.85.9-3,.9-3A13.62,13.62,0,0,1,504.1,247.15Z"/><path class="cls-2" d="M539,337.91c-.2,1-1.59,5.5-3.57,11.55H499.2a37.15,37.15,0,0,0,1.22-5c1.34-8.23,3.75-12.59,4-14.76s-1.07-4.35.27-5.32-2.68-1.45-1.61-4.11-9.12-27.57-13.41-35.79c0,0-2.68,22.49-2.68,27.08s0,5.81.53,6.53.27,2.9.27,2.9a61.08,61.08,0,0,1,3.22,7c.54,1.93,0,1.45.54,2.9s3.75,3.87,3.22,6.77-1.61,3.15-1.88,6.78a21.62,21.62,0,0,0,.5,5H429.36l15.83-129.54,1.12.42s5.65-2.6,6.65-3.6,8.8-13.09,8.57-14.69c0,0,48.81,15.41,49.89,17.58s7.77,29,11,43.79,5.1,22.49,7,26.84,5.64,2.18,3.23,5.56-.54,4.84,0,6.05-1.61,6-.81,6.77,2.41,3.63,5.1,8-1.88,5.8-1.35,6.77S539.85,333.79,539,337.91Z"/><path class="cls-3" d="M504.32,246c.57-1.84.9-3,.9-3A12.89,12.89,0,0,1,504.32,246Z"/><path class="cls-4" d="M509.61,326c-1.77,2.6-4.37,16.2-5.92,23.48h-4.48c.07-.47.12-1,.15-1.56.29-5.28,3.81-15.84,4.68-17.43s.59-1.32,0-2.64-.66-1.81,0-2.64-.28-2.11-.87-3.16-.29-2.12-.29-4.5-13.19-33.07-13.19-33.07-3.49,23.87-2.62,29.92-.59-.54-.59-.54-.59-29.58-.3-33-5.85,1.32-5.85,1.32,7.31-9,7.31-9.77,7.91-34.59,7.91-34.59l2.64,15.31-8.79,21.13S501,254.6,504.32,246c-2.13,6.92-7.72,24-12.57,30,0,0,4.1,6.59,5.56,8.71s-3.22-1.85-2.05,1.32,5,20.07,7,20.86,5.56-25.62,5.56-25.62L505.51,312l6.15-7.4s-2.34,6.34-2.63,7.92.29,5.81-.88,8.19,8.2.79,11.71,0S512,322.55,509.61,326Z"/><path class="cls-5" d="M390.58,114.78a46,46,0,1,1,76.89,34h.33a40.77,40.77,0,0,0-9.46,25.88H415.23A40.58,40.58,0,0,0,406,149.1,45.82,45.82,0,0,1,390.58,114.78Z"/><path class="cls-6" d="M423,117.79a6.25,6.25,0,1,1,6.25,6.24A6.27,6.27,0,0,1,423,117.79Zm1.26,0a5,5,0,1,0,5-5A5,5,0,0,0,424.22,117.79Z"/><path class="cls-6" d="M438.89,117.79a6.25,6.25,0,1,1,6.25,6.24A6.26,6.26,0,0,1,438.89,117.79Zm1.25,0a5,5,0,1,0,5-5A5,5,0,0,0,440.14,117.79Z"/><path class="cls-6" d="M430.93,117.79a6.25,6.25,0,1,1,6.24,6.24A6.26,6.26,0,0,1,430.93,117.79Zm1.25,0a5,5,0,1,0,5-5A5,5,0,0,0,432.18,117.79Z"/><polygon class="cls-6" points="417.91 118.3 424.09 174.32 422.52 174.32 416.26 117.56 416.16 116.65 423.63 117.01 423.55 118.57 417.91 118.3"/><polygon class="cls-6" points="450.26 174.32 456.43 118.3 450.79 118.57 450.72 117.01 458.19 116.65 451.83 174.32 450.26 174.32"/><path class="cls-7" d="M457.31,199.41a11.15,11.15,0,0,1-4.69,6.64c-4,2.77-9.36,7-12.22,9s-5,.54-5.56,0a37.72,37.72,0,0,0-6.2-4.87c-3.81-2.51-9.84-6.7-9.84-10.28S457.31,199.41,457.31,199.41Z"/><path class="cls-8" d="M418,198.83c0,2.1,2.26,3.71,4.74,3.71H453c2.48,0,4.5-1.6,4.5-3.71V183.23c0-2.11-2-3.87-4.51-3.87H422.72c-2.47,0-4.74,1.77-4.74,3.88Z"/><path class="cls-9" d="M415.61,173c4.22,1.06,17.61,1.49,21.86,1.61,4.23-.12,17.56-.55,21.78-1.62,0,0,1.24.16.31,1.67,0,0-.68.35-.87,3s.56,4.31-.43,5.6H416.54c-1-1.29-.25-3-.44-5.6s-.87-2.88-.87-2.88C414.29,173.25,415.61,173,415.61,173Z"/><path class="cls-10" d="M416.77,186.28c0,.55.75.9,1.67.9h39.3c.92,0,1.67-.36,1.67-.91h0c0-.55-.75-.91-1.67-.91h-39.3c-.92,0-1.67.35-1.67.91Z"/><path class="cls-11" d="M416.77,191.59a1.63,1.63,0,0,0,1.67,1.51h39.3a1.63,1.63,0,0,0,1.67-1.5h0a1.63,1.63,0,0,0-1.67-1.51h-39.3a1.63,1.63,0,0,0-1.67,1.5Z"/><path class="cls-12" d="M416.75,196.56c0,.55.75.89,1.68.89h39.21c.92,0,1.68-.34,1.68-.89h0c0-.55-.76-.89-1.68-.89H418.43c-.93,0-1.68.34-1.68.89Z"/><path class="cls-13" d="M416.75,201.89a1.62,1.62,0,0,0,1.68,1.5h39.21a1.63,1.63,0,0,0,1.68-1.51h0a1.64,1.64,0,0,0-1.68-1.5H418.43a1.62,1.62,0,0,0-1.68,1.5Z"/><path class="cls-14" d="M448.1,209.41c.16-.12-11.85,1.78-20.84-.1,0,0,7.35,8.14,10.15,8.35S445.84,211.14,448.1,209.41Z"/><path class="cls-15" d="M439.93,214.33a5.45,5.45,0,0,1,1.56.72c.59-.36,1.2-.75,1.77-1.13Z"/><path class="cls-15" d="M432.88,214c.46.4.93.78,1.39,1.14a4.93,4.93,0,0,1,1-.53A21.06,21.06,0,0,1,432.88,214Z"/><path class="cls-6" d="M441.88,305h5.78l8-71.33,5.11-21.81c-.69,2.37,0-13.56,0-13.56-.57.38-23.41,16.86-24,17.23,1,.65,1.81,76.86,2.3,85.3Z"/><path class="cls-6" d="M433.69,305H440c-.09-22.94-1.6-90-.74-90.53-.6-.36-22.27-15.41-22.84-15.79,0,0,.47,15.55-.21,13.18l5.11,21.81Z"/><polygon class="cls-16" points="438.56 214.28 430.82 228.15 439.56 243.36 446.53 227.95 439.75 214.28 438.56 214.28"/><polygon class="cls-17" points="416.6 198.72 428.56 232.19 438.67 214.18 416.6 198.72"/><polygon class="cls-17" points="460.61 198.33 448.98 232.19 438.88 214.18 460.61 198.33"/><polygon class="cls-18" points="404.47 241.81 438.82 330.97 434.02 305.04 416.45 198.08 413.94 200.3 409.72 202.85 401.9 227 414.6 236.72 404.47 241.81"/><polygon class="cls-18" points="472.94 241.81 462.82 236.72 475.52 227 467.65 203.08 462.48 199.51 460.61 198.14 438.57 330.35 472.94 241.81"/><polygon class="cls-16" points="438.95 341.91 448.31 331.18 441.01 249.15 439.31 232.37 437.4 248.88 428.69 331 438.95 341.91"/><path class="cls-19" d="M518,109.41c-7.28,2.66-9.44,4.82-12.11,12.11-2.66-7.29-4.82-9.45-12.11-12.11,7.29-2.67,9.45-4.83,12.11-12.12C508.54,104.58,510.7,106.74,518,109.41Z"/><path class="cls-19" d="M526,76.52c-5.6,2-7.27,3.72-9.32,9.32-2.05-5.6-3.72-7.27-9.33-9.32,5.61-2,7.28-3.72,9.33-9.33C518.75,72.8,520.42,74.47,526,76.52Z"/><path class="cls-19" d="M497.4,82.62c-5.61,2.06-7.27,3.72-9.32,9.33-2.06-5.61-3.72-7.27-9.33-9.33,5.61-2.05,7.27-3.71,9.33-9.32C490.13,78.91,491.79,80.57,497.4,82.62Z"/><g class="cls-20"><path class="cls-6" d="M479.18,190.35a6.06,6.06,0,0,1-6-5.7l-1.45-24.6a6,6,0,0,1,5.68-6.39l4.82-.29a6.06,6.06,0,0,1,6.4,5.68l1.46,24.6a6.07,6.07,0,0,1-1.52,4.38,6,6,0,0,1-4.17,2l-4.82.29Zm3.37-35.11h-.25l-4.82.29a4.17,4.17,0,0,0-3.92,4.41l1.46,24.6a4.18,4.18,0,0,0,4.41,3.92l4.82-.29a4.17,4.17,0,0,0,3.92-4.41l-1.46-24.6A4.16,4.16,0,0,0,482.55,155.24Z"/><path class="cls-6" d="M495.88,186.79h0a7.88,7.88,0,0,1-8-7.29l-1.09-18.4a7.82,7.82,0,0,1,6.73-8.14l.16,0a4.24,4.24,0,0,0,4-4.2l-.35-5.81a5.67,5.67,0,0,1,11.32-.67l.58,9.73,12.65-.74a5.57,5.57,0,0,1,3,10.42,5.55,5.55,0,0,1-1.83,8.25,5.21,5.21,0,0,1-1.47,8.14,4.61,4.61,0,0,1-3.38,7.42l-21.88,1.3Zm-2-32a6,6,0,0,0-5.2,6.18l1.09,18.4a6,6,0,0,0,6.47,5.51l21.88-1.29a2.76,2.76,0,0,0,1.89-.92,2.74,2.74,0,0,0-.72-4.2.93.93,0,0,1-.47-1,1,1,0,0,1,.81-.76,3.33,3.33,0,0,0,2.92-3.5,3.37,3.37,0,0,0-1.85-2.8,1,1,0,0,1-.51-1,.93.93,0,0,1,.8-.77,3.72,3.72,0,0,0,3.15-3.87,3.67,3.67,0,0,0-1.48-2.74.92.92,0,0,1-.35-.94.93.93,0,0,1,.71-.73,3.67,3.67,0,0,0,2.87-3.81,3.71,3.71,0,0,0-3.9-3.46l-13.59.8a.93.93,0,0,1-1-.88l-.63-10.67a3.79,3.79,0,0,0-7.57.45l.35,5.87A6.14,6.14,0,0,1,493.9,154.81Z"/><path class="cls-6" d="M480.36,166.88a3.59,3.59,0,0,1-3.58-3.38,3.55,3.55,0,0,1,.9-2.6,3.59,3.59,0,1,1,2.89,6Zm0-5.31h-.1a1.71,1.71,0,0,0,.1,3.42h.1a1.71,1.71,0,0,0-.1-3.42Z"/><path class="cls-6" d="M370.08,210.58a3.31,3.31,0,0,1-.44,0c-3.13-.32-5.11-3.82-5.95-7a25,25,0,0,1-6-3.24,13.87,13.87,0,0,1-4.31.75,6,6,0,0,1-4.81-1.88c-2-2.44-.91-6.32.74-9.16a25.87,25.87,0,0,1-2-6.53c-2.93-1.47-6-4.11-5.64-7.25s3.83-5.11,7-5.95a25.77,25.77,0,0,1,3.24-6c-1-3.12-1.3-7.13,1.14-9.12a5.13,5.13,0,0,1,3.31-1.06,12.2,12.2,0,0,1,5.84,1.79,25.8,25.8,0,0,1,6.54-1.95c1.44-2.88,4.15-5.95,7.24-5.64s5.12,3.82,6,7a26,26,0,0,1,6,3.24,14.12,14.12,0,0,1,4.31-.75,5.9,5.9,0,0,1,4.8,1.89c2,2.44.92,6.31-.73,9.15a25.45,25.45,0,0,1,1.95,6.53c2.94,1.47,6,4.12,5.64,7.25s-3.82,5.11-7,6a25.43,25.43,0,0,1-3.24,6c1,3.11,1.31,7.12-1.13,9.11a5.11,5.11,0,0,1-3.32,1.07h0a12.26,12.26,0,0,1-5.84-1.8,25.33,25.33,0,0,1-6.53,1.95C375.51,207.66,373,210.58,370.08,210.58Zm-12.18-13a1.23,1.23,0,0,1,.78.27,23.06,23.06,0,0,0,6.51,3.51,1.26,1.26,0,0,1,.83.94c.67,3.08,2.34,5.52,3.88,5.68s3.67-1.9,5-4.78a1.33,1.33,0,0,1,1-.75,22.89,22.89,0,0,0,7.08-2.12,1.27,1.27,0,0,1,1.25.08c2.58,1.65,5.57,2.25,6.77,1.27s1.25-3.94.12-6.88a1.28,1.28,0,0,1,.18-1.24,23.14,23.14,0,0,0,3.51-6.5,1.27,1.27,0,0,1,.94-.84c3.08-.67,5.52-2.34,5.68-3.88s-1.89-3.67-4.77-5a1.28,1.28,0,0,1-.76-1,22.89,22.89,0,0,0-2.12-7.08,1.29,1.29,0,0,1,.08-1.25c1.71-2.66,2.25-5.56,1.27-6.76a3.76,3.76,0,0,0-2.81-.94,11.68,11.68,0,0,0-4.07.81A1.29,1.29,0,0,1,387,161a23,23,0,0,0-6.51-3.51,1.28,1.28,0,0,1-.83-.93c-.67-3.09-2.34-5.53-3.88-5.69s-3.67,1.9-4.95,4.78a1.28,1.28,0,0,1-1,.75,22.87,22.87,0,0,0-7.09,2.12,1.27,1.27,0,0,1-1.25-.08c-2.58-1.65-5.56-2.25-6.76-1.27s-1.26,3.94-.12,6.88a1.28,1.28,0,0,1-.18,1.24,23.21,23.21,0,0,0-3.52,6.51,1.29,1.29,0,0,1-.93.84c-3.09.66-5.53,2.33-5.69,3.87s1.9,3.67,4.78,5a1.26,1.26,0,0,1,.75,1,23.16,23.16,0,0,0,2.12,7.08,1.27,1.27,0,0,1-.07,1.25c-1.71,2.66-2.26,5.57-1.28,6.77a3.64,3.64,0,0,0,2.82.94,11.61,11.61,0,0,0,4.06-.82A1.25,1.25,0,0,1,357.9,197.61Zm14.94-.18a18,18,0,1,1,11.34-4A17.94,17.94,0,0,1,372.84,197.43Zm0-33.4a15.43,15.43,0,1,0,12,5.68A15.43,15.43,0,0,0,372.82,164Z"/><path class="cls-6" d="M372.83,187.73h0a8.28,8.28,0,1,1,5.23-1.86A8.27,8.27,0,0,1,372.83,187.73Zm0-14a5.73,5.73,0,0,0,0,11.45h0a5.66,5.66,0,0,0,3.61-1.29,5.72,5.72,0,0,0-3.62-10.16Z"/><path class="cls-6" d="M325.08,296.92h-.25c-1.73-.18-2.83-2-3.3-3.77a13.48,13.48,0,0,1-3.08-1.66,7.39,7.39,0,0,1-2.26.38,3.34,3.34,0,0,1-2.7-1.07c-1.1-1.35-.55-3.45.33-5a13.53,13.53,0,0,1-1-3.34c-1.59-.82-3.2-2.27-3-4s2-2.83,3.76-3.31a13.8,13.8,0,0,1,1.66-3.07c-.54-1.7-.65-3.86.7-5a2.83,2.83,0,0,1,1.88-.61,6.69,6.69,0,0,1,3.12.93,14,14,0,0,1,3.34-1c.81-1.56,2.29-3.18,4-3s2.82,2,3.3,3.76a13.8,13.8,0,0,1,3.07,1.66,7.5,7.5,0,0,1,2.27-.38,3.34,3.34,0,0,1,2.7,1.07c1.1,1.35.55,3.45-.33,5a13.6,13.6,0,0,1,1,3.35c1.59.81,3.2,2.27,3,4s-2,2.82-3.76,3.3a13.8,13.8,0,0,1-1.66,3.07c.54,1.7.65,3.87-.7,5a2.85,2.85,0,0,1-1.88.61h0a6.58,6.58,0,0,1-3.12-.93,14,14,0,0,1-3.34,1C328.06,295.38,326.7,296.92,325.08,296.92Zm-6.48-7.28a.91.91,0,0,1,.53.18,11.74,11.74,0,0,0,3.41,1.84.9.9,0,0,1,.57.64c.33,1.54,1.16,2.8,1.9,2.88s1.8-1,2.44-2.43a.86.86,0,0,1,.68-.51,11.94,11.94,0,0,0,3.72-1.12.89.89,0,0,1,.85.05,5.19,5.19,0,0,0,2.59.92h0a1.28,1.28,0,0,0,.79-.22c.57-.47.57-2,0-3.45a.87.87,0,0,1,.13-.84,12.52,12.52,0,0,0,1.84-3.41.85.85,0,0,1,.63-.57c1.54-.33,2.81-1.17,2.88-1.9s-1-1.81-2.43-2.45a.86.86,0,0,1-.51-.68,12.13,12.13,0,0,0-1.11-3.71.89.89,0,0,1,.05-.85c.85-1.32,1.15-2.81.69-3.38a1.74,1.74,0,0,0-1.35-.43,6.08,6.08,0,0,0-2.1.42.87.87,0,0,1-.84-.12,11.86,11.86,0,0,0-3.41-1.84A.88.88,0,0,1,330,268c-.33-1.54-1.17-2.8-1.9-2.88s-1.8,1-2.44,2.44a.91.91,0,0,1-.69.51,11.94,11.94,0,0,0-3.71,1.11.89.89,0,0,1-.85-.05c-1.28-.83-2.82-1.15-3.38-.7s-.57,2,0,3.46a.85.85,0,0,1-.12.84,12.23,12.23,0,0,0-1.84,3.41.85.85,0,0,1-.64.56c-1.53.34-2.8,1.17-2.87,1.9s1,1.81,2.43,2.45a.86.86,0,0,1,.51.68,12,12,0,0,0,1.11,3.71.88.88,0,0,1-.05.85c-.85,1.33-1.16,2.81-.69,3.38a1.74,1.74,0,0,0,1.35.44,5.92,5.92,0,0,0,2.1-.43A.85.85,0,0,1,318.6,289.64Zm7.95.28a9.77,9.77,0,0,1-6.17-17.33,9.82,9.82,0,0,1,6.16-2.19,9.76,9.76,0,0,1,6.17,17.33A9.82,9.82,0,0,1,326.55,289.92Zm0-17.78a8,8,0,0,0-8,7.21,8,8,0,0,0,8,8.83,8,8,0,0,0,8-7.2,8,8,0,0,0-8-8.84Z"/><path class="cls-6" d="M326.55,284.76h0a4.59,4.59,0,1,1,2.9-1A4.65,4.65,0,0,1,326.55,284.76Zm0-7.46a2.81,2.81,0,0,0-1.8.64,2.87,2.87,0,0,0-.41,4,2.86,2.86,0,0,0,4,.41,2.86,2.86,0,0,0,1-1.93,2.87,2.87,0,0,0-2.85-3.15Z"/><path class="cls-6" d="M548,147.14c-2.24,0-4-2.2-4.89-4.3a18.53,18.53,0,0,1-4.32-1.59,9.13,9.13,0,0,1-3.83,1,4,4,0,0,1-2.78-1c-1.69-1.56-1.37-4.4-.51-6.59a18,18,0,0,1-1.93-4.18c-2.23-.77-4.6-2.36-4.69-4.66s2.14-4.07,4.3-5A18.53,18.53,0,0,1,531,116.5c-1-2.12-1.58-4.92,0-6.61a4.19,4.19,0,0,1,3.2-1.21,9.56,9.56,0,0,1,3.39.7,18,18,0,0,1,4.18-1.93c.77-2.23,2.36-4.6,4.65-4.69h.14c2.23,0,4,2.2,4.89,4.3a18.29,18.29,0,0,1,4.31,1.59,9.16,9.16,0,0,1,3.84-1,4,4,0,0,1,2.77,1c1.69,1.56,1.37,4.39.51,6.59a18.47,18.47,0,0,1,1.94,4.18c2.22.77,4.59,2.37,4.68,4.66s-2.14,4.07-4.29,5a18,18,0,0,1-1.6,4.31c1,2.13,1.58,4.93,0,6.62a4.21,4.21,0,0,1-3.19,1.2h0a9.59,9.59,0,0,1-3.4-.69,18.56,18.56,0,0,1-4.17,1.93c-.77,2.22-2.37,4.59-4.66,4.69Zm-9.2-8.34a1.12,1.12,0,0,1,.56.15,15.86,15.86,0,0,0,4.8,1.77,1.15,1.15,0,0,1,.86.72c.7,1.91,2,3.41,3,3.41h0c1,0,2.17-1.64,2.73-3.64a1.16,1.16,0,0,1,.8-.79,16.06,16.06,0,0,0,4.64-2.15,1.17,1.17,0,0,1,1.12-.09,7.63,7.63,0,0,0,3,.74h0a2.11,2.11,0,0,0,1.51-.47c.66-.71.38-2.69-.63-4.5a1.14,1.14,0,0,1,0-1.13A15.62,15.62,0,0,0,563,128a1.18,1.18,0,0,1,.73-.86c2-.72,3.44-2,3.4-3s-1.63-2.17-3.63-2.74a1.12,1.12,0,0,1-.79-.79A15.82,15.82,0,0,0,560.6,116a1.15,1.15,0,0,1-.09-1.12c.87-1.89,1-3.89.27-4.55a1.87,1.87,0,0,0-1.22-.35,7.25,7.25,0,0,0-3.29,1,1.17,1.17,0,0,1-1.12,0,15.8,15.8,0,0,0-4.79-1.77,1.12,1.12,0,0,1-.86-.73c-.71-1.9-2-3.4-3-3.4s-2.22,1.64-2.78,3.64a1.16,1.16,0,0,1-.8.79,16,16,0,0,0-4.64,2.14,1.11,1.11,0,0,1-1.11.09,7.82,7.82,0,0,0-3-.73,2.16,2.16,0,0,0-1.52.46c-.66.72-.38,2.7.64,4.51a1.16,1.16,0,0,1,0,1.13,16,16,0,0,0-1.76,4.79,1.14,1.14,0,0,1-.73.86c-1.95.72-3.44,2-3.4,3s1.64,2.17,3.63,2.73a1.15,1.15,0,0,1,.8.8,15.92,15.92,0,0,0,2.14,4.64A1.15,1.15,0,0,1,534,135c-.86,1.89-1,3.88-.27,4.54a1.85,1.85,0,0,0,1.23.36,7.25,7.25,0,0,0,3.28-1A1.09,1.09,0,0,1,538.84,138.8Zm8.43-1a12.87,12.87,0,1,1,9.47-4.14A12.81,12.81,0,0,1,547.27,137.82Zm0-23.45a10.57,10.57,0,1,0,7.17,2.8A10.6,10.6,0,0,0,547.28,114.37Z"/><path class="cls-6" d="M547.28,131h0a6.06,6.06,0,0,1-4.12-1.61,6.06,6.06,0,0,1-.34-8.56A6.06,6.06,0,1,1,547.28,131Zm0-9.84a3.78,3.78,0,0,0-2.56,6.55,3.79,3.79,0,0,0,2.56,1A3.75,3.75,0,0,0,551,124.8a3.65,3.65,0,0,0-1.21-2.62A3.73,3.73,0,0,0,547.28,121.17Z"/><path class="cls-6" d="M398.57,69.26a.7.7,0,0,1-.71-.7V57.46a.71.71,0,0,1,.71-.71.7.7,0,0,1,.7.71v11.1A.7.7,0,0,1,398.57,69.26Z"/><path class="cls-6" d="M404.12,63.71H393a.7.7,0,0,1-.71-.7.71.71,0,0,1,.71-.71h11.1a.7.7,0,0,1,.7.71A.7.7,0,0,1,404.12,63.71Z"/><path class="cls-6" d="M366.26,100.16a1.73,1.73,0,0,1-.91-.25c-.62-.37-15.05-9.12-17.46-19.86-1.2-5.39.19-8.58,1.57-10.31a8,8,0,0,1,6.35-2.94c3.78,0,7.55,2.16,10.45,5.89,2.89-3.73,6.66-5.89,10.44-5.89A7.92,7.92,0,0,1,383,69.74c1.39,1.73,2.78,4.92,1.58,10.31-2.41,10.74-16.84,19.49-17.45,19.86A1.76,1.76,0,0,1,366.26,100.16ZM355.81,70.34A4.41,4.41,0,0,0,352.23,72c-1.27,1.58-1.58,4.18-.88,7.32,1.76,7.86,11.8,15,14.9,17,3.1-2,13.15-9.16,14.91-17,.7-3.14.39-5.74-.88-7.32a4.41,4.41,0,0,0-3.58-1.62c-2.48,0-6.13,1.68-8.92,6.4a1.77,1.77,0,0,1-3,0C361.94,72,358.29,70.34,355.81,70.34Z"/><path class="cls-6" d="M314.51,206.33a20.81,20.81,0,1,1,20.81-20.81A20.83,20.83,0,0,1,314.51,206.33Zm0-40a19.16,19.16,0,1,0,19.16,19.16A19.19,19.19,0,0,0,314.51,166.36Z"/><path class="cls-6" d="M307.77,197.73a.77.77,0,0,1-.41-.11.8.8,0,0,1-.41-.71V174.13a.82.82,0,0,1,.41-.72.85.85,0,0,1,.82,0l19.73,11.4a.8.8,0,0,1,.41.71.82.82,0,0,1-.41.72l-19.73,11.38A.77.77,0,0,1,307.77,197.73Zm.82-22.17v19.92l17.26-10Z"/><path class="cls-6" d="M336.43,155.83a.69.69,0,0,1-.64-.41l-4.32-9.21-8,0a7.28,7.28,0,0,1-7.29-7.24l0-20.58a7.26,7.26,0,0,1,7.23-7.28l25.48-.13a7.29,7.29,0,0,1,7.28,7.24l0,20.58a7.26,7.26,0,0,1-7.23,7.28l-7.76.05-4.09,9.23a.72.72,0,0,1-.64.42Zm-4.51-11a.72.72,0,0,1,.64.41l3.85,8.21,3.64-8.23a.73.73,0,0,1,.64-.42l8.22-.05a5.85,5.85,0,0,0,5.83-5.87l0-20.58a5.86,5.86,0,0,0-5.85-5.82l-25.49.12a5.86,5.86,0,0,0-5.83,5.87l0,20.58a5.86,5.86,0,0,0,5.85,5.83l8.49,0Z"/><path class="cls-6" d="M346.63,139.87a.7.7,0,0,1-.64-1,3.16,3.16,0,0,0,.06-2.24,3.21,3.21,0,0,0-1.92-1.69c-.82-.33-1.63-.6-2.41-.87-2-.67-3.6-1.21-4.07-2.44a2.53,2.53,0,0,1,.31-2.2c.37-.66.71-1.17,1-1.62.91-1.37,1.37-2.06,1.12-4.88a3.75,3.75,0,0,0-3.73-3.43h0a3.78,3.78,0,0,0-3.83,3.31c-.34,2.8.1,3.51,1,4.91.28.46.6,1,.95,1.65a2.53,2.53,0,0,1,.25,2.21c-.52,1.22-2.13,1.7-4.16,2.31-.78.24-1.6.48-2.43.79a2.83,2.83,0,0,0-2,3.87.7.7,0,0,1-1.3.54,4.21,4.21,0,0,1,2.8-5.73c.87-.33,1.75-.59,2.52-.82,1.54-.46,3-.9,3.26-1.51a1.3,1.3,0,0,0-.2-1c-.32-.62-.63-1.12-.9-1.56-1-1.52-1.57-2.52-1.17-5.82a5.22,5.22,0,0,1,10.38.17c.29,3.31-.36,4.29-1.35,5.78-.29.43-.61.92-.95,1.53a1.29,1.29,0,0,0-.24,1c.24.62,1.69,1.1,3.21,1.62.77.25,1.63.54,2.49.9a4.21,4.21,0,0,1,2.61,5.82A.69.69,0,0,1,346.63,139.87Z"/><path class="cls-6" d="M537.5,96.78a1,1,0,0,1-1-1V79.28a1,1,0,1,1,2.09,0V95.73A1,1,0,0,1,537.5,96.78Z"/><path class="cls-6" d="M545.73,88.55H529.27a1,1,0,0,1,0-2.09h16.46a1,1,0,0,1,0,2.09Z"/><path class="cls-6" d="M566.27,205h-.09l-31.66-2.11a1.41,1.41,0,0,1-1.23-.93,7.31,7.31,0,0,1,.29-5.27,7.18,7.18,0,0,1,4.55-3.55c1.34-.42,2.67-.75,3.85-1,2.06-.51,4.4-1.08,4.77-1.83.15-.31-.08-.9-.23-1.23-.43-.94-.85-1.7-1.22-2.37-1.45-2.64-2.17-4.24-1.34-9s4.83-6.7,8.25-6.7h.34a8,8,0,0,1,7.62,7.78c.19,4.87-.74,6.36-2.53,8.78-.45.61-1,1.31-1.52,2.19-.19.3-.5.86-.39,1.19.26.78,2.5,1.66,4.48,2.44,1.13.44,2.4.94,3.68,1.54a7.22,7.22,0,0,1,4,4.13,7.31,7.31,0,0,1-.41,5.26A1.41,1.41,0,0,1,566.27,205Zm-30.51-4.85,29.55,2a4,4,0,0,0,0-2.26,4.49,4.49,0,0,0-2.56-2.46c-1.2-.56-2.38-1-3.52-1.47-3-1.2-5.44-2.15-6.12-4.19a4.15,4.15,0,0,1,.68-3.56c.61-1,1.16-1.71,1.64-2.37,1.47-2,2.14-2.88,2-7-.17-4.7-4.8-5.06-5-5.07h-.15a5.15,5.15,0,0,0-5.48,4.37c-.7,4.06-.16,5,1,7.2.4.71.84,1.53,1.32,2.57a4.16,4.16,0,0,1,.19,3.62c-.93,1.93-3.44,2.55-6.62,3.33-1.19.29-2.42.59-3.68,1a4.57,4.57,0,0,0-2.87,2.1A4,4,0,0,0,535.76,200.12Z"/><path class="cls-6" d="M336.23,243.33h-16.8a1,1,0,0,1,0-2.1h16.8a1.05,1.05,0,0,1,0,2.1Z"/><path class="cls-6" d="M336.23,248.91h-16.8a1,1,0,1,1,0-2.09h16.8a1,1,0,0,1,0,2.09Z"/><path class="cls-6" d="M336.23,254.5h-16.8a1,1,0,1,1,0-2.09h16.8a1,1,0,0,1,0,2.09Z"/><path class="cls-6" d="M470.57,77.38a.73.73,0,0,1-.35-.09.71.71,0,0,1-.36-.61V57.18a.71.71,0,0,1,.36-.61.73.73,0,0,1,.7,0l16.89,9.75a.71.71,0,0,1,.35.61.69.69,0,0,1-.35.61l-16.89,9.75A.73.73,0,0,1,470.57,77.38Zm.7-19v17L486,66.93Z"/><path class="cls-6" d="M555.51,253.72a3.39,3.39,0,0,1-1.56-.38l-7.16-3.77-7.17,3.76a3.39,3.39,0,0,1-3.51-.25,3.29,3.29,0,0,1-1.33-3.26l1.37-8-5.8-5.65a3.32,3.32,0,0,1-.84-3.42,3.29,3.29,0,0,1,2.69-2.27l8-1.17,3.58-7.26a3.37,3.37,0,0,1,3-1.86,3.31,3.31,0,0,1,3,1.86l3.58,7.26,8,1.17a3.33,3.33,0,0,1,1.84,5.69l-5.79,5.65,1.36,8a3.34,3.34,0,0,1-1.32,3.26A3.31,3.31,0,0,1,555.51,253.72Zm-8.72-6.38a1,1,0,0,1,.48.12l7.66,4a1.24,1.24,0,0,0,1.8-1.31l-1.46-8.52a1.07,1.07,0,0,1,.3-.93l6.19-6a1.22,1.22,0,0,0,.32-1.28,1.25,1.25,0,0,0-1-.85l-8.55-1.24a1,1,0,0,1-.79-.57L547.9,223a1.24,1.24,0,0,0-1.11-.7,1.27,1.27,0,0,0-1.12.7l-3.83,7.75a1,1,0,0,1-.78.57l-8.56,1.24a1.25,1.25,0,0,0-1,.85,1.24,1.24,0,0,0,.31,1.28l6.19,6a1,1,0,0,1,.3.93l-1.46,8.52a1.24,1.24,0,0,0,.5,1.22,1.26,1.26,0,0,0,1.31.09l7.65-4A1,1,0,0,1,546.79,247.34Z"/><path class="cls-6" d="M550.53,293.53c-1.38,0-2.44-1.36-3-2.65a10.89,10.89,0,0,1-2.66-1,5.59,5.59,0,0,1-2.36.61,2.46,2.46,0,0,1-1.71-.6c-1-1-.84-2.7-.31-4.05a11.3,11.3,0,0,1-1.19-2.57c-1.37-.48-2.83-1.46-2.88-2.87s1.31-2.51,2.64-3.09a11.21,11.21,0,0,1,1-2.66c-.64-1.3-1-3,0-4.06a2.55,2.55,0,0,1,2-.75,5.83,5.83,0,0,1,2.09.43,11.75,11.75,0,0,1,2.57-1.19c.48-1.37,1.46-2.82,2.87-2.88h.08c1.37,0,2.44,1.35,3,2.65a11.29,11.29,0,0,1,2.66,1,5.59,5.59,0,0,1,2.36-.61,2.49,2.49,0,0,1,1.71.6c1,1,.84,2.71.31,4.06a11.34,11.34,0,0,1,1.19,2.57c1.37.47,2.83,1.45,2.88,2.87s-1.32,2.5-2.64,3.08a10.89,10.89,0,0,1-1,2.66c.63,1.31,1,3,0,4.07a2.62,2.62,0,0,1-2,.74h0a5.83,5.83,0,0,1-2.09-.43,10.54,10.54,0,0,1-2.57,1.19c-.47,1.37-1.45,2.83-2.86,2.89Zm-5.66-5.13a.72.72,0,0,1,.34.09,9.77,9.77,0,0,0,3,1.09.67.67,0,0,1,.52.44c.44,1.18,1.24,2.1,1.84,2.1h0c.6,0,1.34-1,1.68-2.24a.73.73,0,0,1,.49-.49,9.79,9.79,0,0,0,2.86-1.32.71.71,0,0,1,.69-.05,4.85,4.85,0,0,0,1.86.45h0a1.28,1.28,0,0,0,.93-.29c.41-.44.24-1.65-.39-2.77a.71.71,0,0,1,0-.69,9.64,9.64,0,0,0,1.09-3,.73.73,0,0,1,.45-.53c1.2-.45,2.12-1.26,2.09-1.86s-1-1.34-2.23-1.68a.71.71,0,0,1-.49-.49,10.05,10.05,0,0,0-1.32-2.86.71.71,0,0,1-.06-.69c.54-1.16.61-2.39.17-2.79a1.16,1.16,0,0,0-.75-.22,4.51,4.51,0,0,0-2,.61.69.69,0,0,1-.68,0,9.87,9.87,0,0,0-3-1.09.7.7,0,0,1-.52-.45c-.44-1.17-1.25-2.09-1.84-2.09s-1.36,1-1.71,2.24a.7.7,0,0,1-.49.48,9.73,9.73,0,0,0-2.85,1.32.71.71,0,0,1-.69.06,4.68,4.68,0,0,0-1.87-.45,1.29,1.29,0,0,0-.93.28c-.4.44-.23,1.66.39,2.78a.71.71,0,0,1,0,.69,10,10,0,0,0-1.09,3,.7.7,0,0,1-.44.53c-1.2.44-2.12,1.26-2.1,1.85s1,1.34,2.24,1.69a.71.71,0,0,1,.49.49,9.61,9.61,0,0,0,1.32,2.85.68.68,0,0,1,0,.69c-.53,1.17-.6,2.39-.16,2.8a1.16,1.16,0,0,0,.75.22,4.47,4.47,0,0,0,2-.61A.73.73,0,0,1,544.87,288.4Zm5.19-.61a7.92,7.92,0,1,1,5.82-2.54A7.89,7.89,0,0,1,550.06,287.79Zm0-14.43a6.52,6.52,0,1,0,4.41,1.73A6.44,6.44,0,0,0,550.06,273.36Z"/><path class="cls-6" d="M550.06,283.6h0a3.74,3.74,0,1,1,2.74-1.2A3.71,3.71,0,0,1,550.06,283.6Zm0-6.05a2.32,2.32,0,0,0-1.71.75,2.33,2.33,0,0,0,.13,3.28,2.35,2.35,0,0,0,1.58.61,2.32,2.32,0,0,0,0-4.64Z"/><path class="cls-6" d="M337.05,228.68a1,1,0,0,1-1.05-1V211.18a1,1,0,0,1,2.09,0v16.46A1,1,0,0,1,337.05,228.68Z"/><path class="cls-6" d="M345.27,220.46H328.82a1,1,0,1,1,0-2.09h16.45a1,1,0,1,1,0,2.09Z"/><path class="cls-6" d="M523.08,196H506.27a1,1,0,0,1,0-2.09h16.81a1,1,0,0,1,0,2.09Z"/><path class="cls-6" d="M523.08,201.55H506.27a1,1,0,0,1,0-2.09h16.81a1,1,0,0,1,0,2.09Z"/><path class="cls-6" d="M523.08,207.14H506.27a1,1,0,0,1,0-2.09h16.81a1,1,0,0,1,0,2.09Z"/><path class="cls-6" d="M383.08,119H366.27a1,1,0,0,1,0-2.09h16.81a1,1,0,0,1,0,2.09Z"/><path class="cls-6" d="M383.08,124.55H366.27a1,1,0,0,1,0-2.09h16.81a1,1,0,0,1,0,2.09Z"/><path class="cls-6" d="M383.08,130.14H366.27a1,1,0,0,1,0-2.09h16.81a1,1,0,0,1,0,2.09Z"/></g><path class="cls-6" d="M46.7,129.37h4.85q3.45,0,7.15-.23t7.2-.67l.7,5.3a77.54,77.54,0,0,1-7.75.75q-4.2.19-8.8.2h-9.6v-18.9h15v-7.6h-15v-5.35H61.7V121h-15Zm29.65,16.4H70V99.27h6.35Z"/><path class="cls-6" d="M85.5,101.17h22.55v5.2H91.7v9.15c1.76,0,3.47,0,5.1,0s3.25,0,4.85-.1,3.21-.13,4.82-.25,3.28-.26,5-.42l.55,5.1c-1.57.2-3.23.36-5,.47s-3.68.21-5.8.28-4.46.11-7,.12-5.47,0-8.67,0Zm36.05,23.2v13.3h-23v3.55H123v5H92.4v-13.3h23v-3.55H92.15v-5Zm0-1.9h-6.3V99.27h6.3Z"/><path class="cls-6" d="M44.58,164.4a15.82,15.82,0,0,1-.11,1.84,16.38,16.38,0,0,1-.3,1.75,10.09,10.09,0,0,0,.83,2,12.32,12.32,0,0,0,1.27,1.87,12.09,12.09,0,0,0,1.6,1.6,8.54,8.54,0,0,0,1.78,1.15c.09,0,.14.11.13.19a1,1,0,0,1-.06.25l-.48.8a.55.55,0,0,1-.17.17c-.07,0-.17,0-.31-.08a7.09,7.09,0,0,1-1.46-1,17.34,17.34,0,0,1-1.48-1.39,16.19,16.19,0,0,1-1.36-1.62,12.58,12.58,0,0,1-1-1.66,14.2,14.2,0,0,1-2.15,3.57,14,14,0,0,1-3.13,2.8.79.79,0,0,1-.27.1.24.24,0,0,1-.23-.1l-.61-.8a.28.28,0,0,1,0-.24.38.38,0,0,1,.17-.22,10.8,10.8,0,0,0,2.36-2,13.08,13.08,0,0,0,1.83-2.62,13.51,13.51,0,0,0,1.15-3.06,13.29,13.29,0,0,0,.37-3.33c0-.26.1-.39.29-.39l1.13.07C44.49,164.06,44.58,164.17,44.58,164.4Zm11.09,20.72a.46.46,0,0,1-.24.08h-12a1.86,1.86,0,0,1-1.48-.43,2.24,2.24,0,0,1-.35-1.41V178.6a.3.3,0,0,1,.34-.34h1a.31.31,0,0,1,.34.34v4.63c0,.23,0,.37.1.43a.89.89,0,0,0,.45.08H55.43a.4.4,0,0,1,.24.09.23.23,0,0,1,.12.2v.88A.22.22,0,0,1,55.67,185.12Zm-.94-5.69h-1a.3.3,0,0,1-.34-.34V163.62a.3.3,0,0,1,.34-.34h1a.3.3,0,0,1,.34.34v15.47A.3.3,0,0,1,54.73,179.43Z"/><path class="cls-6" d="M78.83,174.83a.29.29,0,0,1,.12.24v.82a.29.29,0,0,1-.12.22.4.4,0,0,1-.24.09H58.19a.37.37,0,0,1-.25-.09.28.28,0,0,1-.11-.22v-.82a.28.28,0,0,1,.11-.24.41.41,0,0,1,.25-.08h5.45v-3.9a5.83,5.83,0,0,1-1.94-1.29,3,3,0,0,1,0-4,5.41,5.41,0,0,1,1.87-1.26,10.21,10.21,0,0,1,2.43-.66,16.31,16.31,0,0,1,2.41-.19,14.32,14.32,0,0,1,2.43.22,10.24,10.24,0,0,1,2.43.7,5.68,5.68,0,0,1,1.86,1.27,2.87,2.87,0,0,1,0,3.89,5.63,5.63,0,0,1-1.95,1.29v3.95h5.47A.46.46,0,0,1,78.83,174.83Zm-3,7a2.75,2.75,0,0,1-.77,2,5.21,5.21,0,0,1-1.9,1.21,10.29,10.29,0,0,1-2.43.6,21.11,21.11,0,0,1-2.39.15c-.48,0-1,0-1.55-.07a15.58,15.58,0,0,1-1.65-.23,8.41,8.41,0,0,1-1.6-.45,5.38,5.38,0,0,1-1.36-.74,3.74,3.74,0,0,1-.94-1.05,2.76,2.76,0,0,1-.36-1.43,2.68,2.68,0,0,1,.76-2,5.51,5.51,0,0,1,1.9-1.2,10.26,10.26,0,0,1,2.44-.6,17.33,17.33,0,0,1,2.36-.17,21.11,21.11,0,0,1,2.39.15,10.59,10.59,0,0,1,2.45.6,5.09,5.09,0,0,1,1.89,1.21A2.71,2.71,0,0,1,75.83,181.83Zm-1.75,0a1.51,1.51,0,0,0-.65-1.27,4.91,4.91,0,0,0-1.56-.74,9.85,9.85,0,0,0-1.89-.35c-.64-.06-1.19-.09-1.64-.09s-1,0-1.67.09a9.51,9.51,0,0,0-1.87.35,4.9,4.9,0,0,0-1.54.74,1.59,1.59,0,0,0,0,2.53,4.5,4.5,0,0,0,1.54.74,10.3,10.3,0,0,0,1.87.34c.65.06,1.21.09,1.67.09s1,0,1.66-.09a10.41,10.41,0,0,0,1.88-.34,4.55,4.55,0,0,0,1.55-.74A1.5,1.5,0,0,0,74.08,181.85ZM68.39,165c-.51,0-1.1,0-1.75.09a9,9,0,0,0-1.86.39,4.6,4.6,0,0,0-1.49.8,1.71,1.71,0,0,0,0,2.62,4.42,4.42,0,0,0,1.49.8,9,9,0,0,0,1.86.39c.65.06,1.24.09,1.75.09s1.07,0,1.73-.09a9.4,9.4,0,0,0,1.87-.39,4.47,4.47,0,0,0,1.5-.8,1.71,1.71,0,0,0,0-2.62,4.66,4.66,0,0,0-1.5-.8,9.4,9.4,0,0,0-1.87-.39C69.46,165,68.88,165,68.39,165Zm0,6.69q-.7,0-1.5-.06a9.7,9.7,0,0,1-1.6-.26v3.42h6.17v-3.44a9.82,9.82,0,0,1-1.58.26C69.35,171.62,68.85,171.65,68.39,171.65Z"/><path class="cls-6" d="M80.77,171.09l1.49,0,1.5,0,1.37-.05,1.07-.05.39,0,.54,0,.59,0a3.45,3.45,0,0,0,.52-.07,15.47,15.47,0,0,0,.79-3.56c0-.25,0-.41-.1-.5a.67.67,0,0,0-.48-.13H81.13c-.19,0-.29-.11-.29-.32v-.85a.26.26,0,0,1,.29-.29h7.78a1.92,1.92,0,0,1,1.49.43,1.85,1.85,0,0,1,.31,1.32,14.51,14.51,0,0,1-.82,4.06A15.75,15.75,0,0,1,88,174.67a18.06,18.06,0,0,1-3,3.3A21,21,0,0,1,81,180.69c-.21.11-.36.09-.46-.07l-.53-.85c-.11-.2-.08-.33.1-.41a19.75,19.75,0,0,0,4.47-3.18,14.59,14.59,0,0,0,2.94-3.93,3.71,3.71,0,0,1-.67.06l-.55,0-1.28,0-1.44,0-1.47.05-1.38,0c-.21,0-.31-.1-.31-.29v-.83C80.46,171.19,80.56,171.09,80.77,171.09Zm15.84,14.54h-1a.3.3,0,0,1-.34-.34V163.62a.3.3,0,0,1,.34-.34h1a.3.3,0,0,1,.34.34v8.56h3.31a.37.37,0,0,1,.25.09.27.27,0,0,1,.11.23v.82a.31.31,0,0,1-.11.22.37.37,0,0,1-.25.1H97v11.65A.3.3,0,0,1,96.61,185.63Z"/><path class="cls-6" d="M121.55,180.43a.28.28,0,0,1,.12.23v.83a.29.29,0,0,1-.12.22.4.4,0,0,1-.24.09h-20.4a.37.37,0,0,1-.25-.09.28.28,0,0,1-.11-.22v-.83a.27.27,0,0,1,.11-.23.41.41,0,0,1,.25-.08h20.4A.46.46,0,0,1,121.55,180.43ZM118.69,175c0,.22-.1.34-.31.34h-13A2.22,2.22,0,0,1,104,175a1.84,1.84,0,0,1-.38-1.37v-7a1.84,1.84,0,0,1,.38-1.37,2.22,2.22,0,0,1,1.44-.35h12.79a.28.28,0,0,1,.31.32v.8c0,.22-.1.33-.31.33H105.83a.6.6,0,0,0-.46.14.74.74,0,0,0-.12.49v6.28a.78.78,0,0,0,.12.49.6.6,0,0,0,.46.14h12.55a.28.28,0,0,1,.31.32Z"/><path class="cls-6" d="M126.06,181.8c.21,0,.31,0,.31.11a.66.66,0,0,1-.05.26l-1.58,4.34a.59.59,0,0,1-.18.25.44.44,0,0,1-.25.06h-1c-.21,0-.29-.11-.24-.34l1.13-4.26a1,1,0,0,1,.14-.28.43.43,0,0,1,.36-.14Z"/><path class="cls-6" d="M145.12,166.34a12.71,12.71,0,0,1-3,6.31,18,18,0,0,1-6.68,4.57,1,1,0,0,1-.3.05c-.11,0-.18-.06-.23-.19l-.36-.8a.29.29,0,0,1,0-.32.47.47,0,0,1,.2-.17,18.37,18.37,0,0,0,3.23-1.72,15.46,15.46,0,0,0,2.59-2.16,12.2,12.2,0,0,0,1.84-2.47,8.86,8.86,0,0,0,1-2.69c.09-.45-.1-.68-.58-.68h-7.39c-.19,0-.29-.1-.29-.31v-.85a.25.25,0,0,1,.29-.29h7.94a2.23,2.23,0,0,1,1.56.41A1.48,1.48,0,0,1,145.12,166.34Zm7.1,18.78a.46.46,0,0,1-.24.08H139.76a1.85,1.85,0,0,1-1.47-.43,2.18,2.18,0,0,1-.35-1.41V178.7a.3.3,0,0,1,.34-.34h1a.31.31,0,0,1,.34.34v4.53c0,.23,0,.37.1.43a.89.89,0,0,0,.45.08H152a.4.4,0,0,1,.24.09.23.23,0,0,1,.12.2v.88A.22.22,0,0,1,152.22,185.12Zm-1.3-5.59h-1a.3.3,0,0,1-.34-.34V163.62a.3.3,0,0,1,.34-.34h1a.3.3,0,0,1,.34.34v7h3.31a.41.41,0,0,1,.25.08.27.27,0,0,1,.11.23v.83a.28.28,0,0,1-.11.22.37.37,0,0,1-.25.09h-3.31v7.11A.3.3,0,0,1,150.92,179.53Z"/><path class="cls-6" d="M168.71,173.93a.51.51,0,0,1,.29,0,.48.48,0,0,1,.12.21l.14.8a.3.3,0,0,1,0,.22.49.49,0,0,1-.29.12,27.67,27.67,0,0,1-3,.35l-3.43.21c-.45,0-1,.05-1.54.06l-1.77,0h-1.8c-.6,0-1.12,0-1.59,0a.35.35,0,0,1-.25-.1.28.28,0,0,1-.11-.22v-.77a.27.27,0,0,1,.11-.23.38.38,0,0,1,.25-.09h2.76v-8.41h-2.59a.35.35,0,0,1-.23-.09.34.34,0,0,1-.11-.25V165a.3.3,0,0,1,.11-.24.32.32,0,0,1,.23-.1h11.81c.24,0,.36.11.36.32v.8c0,.21-.12.31-.36.31h-2v8.2c.51,0,1-.08,1.51-.14S168.24,174,168.71,173.93Zm5.37,11.19a.46.46,0,0,1-.24.08h-12a1.89,1.89,0,0,1-1.48-.43,2.24,2.24,0,0,1-.34-1.41V178.6a.3.3,0,0,1,.33-.34h1a.3.3,0,0,1,.33.34v4.63a.58.58,0,0,0,.11.43.85.85,0,0,0,.44.08h11.64a.4.4,0,0,1,.24.09.23.23,0,0,1,.12.2v.88A.22.22,0,0,1,174.08,185.12Zm-11.66-10.71h.86l.84,0v-8.29h-4v8.39c.42,0,.82,0,1.2,0S162.1,174.43,162.42,174.41Zm9.38-7.17v-3.62a.31.31,0,0,1,.34-.34h1a.3.3,0,0,1,.34.34v15.47a.3.3,0,0,1-.34.34h-1a.3.3,0,0,1-.34-.34v-6.4h-3.67c-.21,0-.31-.1-.31-.29v-.85c0-.19.1-.29.31-.29h3.67v-2.59h-3.67c-.21,0-.31-.1-.31-.3v-.84c0-.2.1-.29.31-.29Z"/><path class="cls-6" d="M187.83,177.1c.26,0,.4,0,.41.17l.15.85c0,.19-.07.31-.31.34-.88.14-1.76.27-2.63.37s-1.9.19-3.06.26c-.9,0-1.85.08-2.87.08s-2,0-2.94,0a.33.33,0,0,1-.25-.1.26.26,0,0,1-.11-.22V178a.27.27,0,0,1,.11-.23.41.41,0,0,1,.25-.08c.37,0,.75,0,1.15,0H179v-11h-2.17a.3.3,0,0,1-.22-.1.3.3,0,0,1-.11-.24v-.75a.3.3,0,0,1,.11-.24.3.3,0,0,1,.22-.1h10.28c.24,0,.36.11.36.32v.8c0,.21-.12.31-.36.31h-1.56v10.71c.36,0,.74-.08,1.11-.14Zm-5.49.56.79,0,.74,0V166.75h-3.28v11l.87,0Zm7.44-6.47V164a.3.3,0,0,1,.34-.34H191c.22,0,.33.11.33.34v20.33c0,.23-.11.34-.33.34h-.91a.3.3,0,0,1-.34-.34V172.64h-2.66c-.21,0-.32-.1-.32-.29v-.87c0-.2.11-.29.32-.29Zm5.83,14.1c0,.23-.11.34-.33.34h-.92c-.22,0-.33-.11-.33-.34V163.62a.3.3,0,0,1,.33-.34h.92a.3.3,0,0,1,.33.34Z"/><path class="cls-6" d="M210.56,172.52a12.27,12.27,0,0,1-.32,2.74,8.53,8.53,0,0,1-1,2.5,6,6,0,0,1-1.79,1.83,4.74,4.74,0,0,1-2.63.71,4.81,4.81,0,0,1-2.67-.7,5.41,5.41,0,0,1-1.76-1.83,8.2,8.2,0,0,1-.94-2.51,12.83,12.83,0,0,1-.29-2.74,13.37,13.37,0,0,1,.29-2.82,8,8,0,0,1,.94-2.51,5.23,5.23,0,0,1,1.76-1.8,5,5,0,0,1,2.67-.68,4.9,4.9,0,0,1,2.63.68,5.67,5.67,0,0,1,1.79,1.79,8.15,8.15,0,0,1,1,2.49A12.9,12.9,0,0,1,210.56,172.52Zm-1.7,0a11.63,11.63,0,0,0-.23-2.26,7.51,7.51,0,0,0-.71-2.05,4.3,4.3,0,0,0-1.25-1.48,3,3,0,0,0-1.87-.56,3.09,3.09,0,0,0-1.91.56,4.31,4.31,0,0,0-1.21,1.48,7.47,7.47,0,0,0-.65,2.05,14.46,14.46,0,0,0-.19,2.26,13.85,13.85,0,0,0,.18,2.19,7.09,7.09,0,0,0,.64,2.06,4.29,4.29,0,0,0,1.22,1.53,3.07,3.07,0,0,0,1.92.59,3,3,0,0,0,1.87-.59,4.48,4.48,0,0,0,1.25-1.53,7.83,7.83,0,0,0,.71-2.06A11.17,11.17,0,0,0,208.86,172.5Zm7,13.13h-1a.3.3,0,0,1-.34-.34V163.62a.3.3,0,0,1,.34-.34h1a.3.3,0,0,1,.34.34v21.67A.3.3,0,0,1,215.84,185.63Z"/><path class="cls-6" d="M245.46,174.33a.26.26,0,0,1,.12.23v.82a.29.29,0,0,1-.12.22.42.42,0,0,1-.24.1h-20.4a.37.37,0,0,1-.25-.1.28.28,0,0,1-.11-.22v-.82a.25.25,0,0,1,.11-.23.37.37,0,0,1,.25-.09h20.4A.4.4,0,0,1,245.46,174.33Zm-3,7.3a2.86,2.86,0,0,1-.36,1.45,4,4,0,0,1-1,1.09,5.78,5.78,0,0,1-1.38.79,10,10,0,0,1-1.61.49,15.51,15.51,0,0,1-1.66.27c-.55.05-1.06.08-1.52.08s-.95,0-1.5-.08a16.37,16.37,0,0,1-1.66-.27,9.86,9.86,0,0,1-1.6-.49,5.78,5.78,0,0,1-1.38-.79,4,4,0,0,1-1-1.09,2.86,2.86,0,0,1-.36-1.45,2.74,2.74,0,0,1,.36-1.41,3.53,3.53,0,0,1,1-1.08,5.76,5.76,0,0,1,1.38-.78,11,11,0,0,1,1.6-.51,13.88,13.88,0,0,1,1.65-.28c.54,0,1-.08,1.51-.08s1,0,1.52.08a16.12,16.12,0,0,1,1.67.27,9.42,9.42,0,0,1,1.61.5,6.24,6.24,0,0,1,1.37.77,3.68,3.68,0,0,1,1,1.09A2.84,2.84,0,0,1,242.46,181.63Zm-.05-10.3c0,.23-.1.34-.31.34H229.71a2.22,2.22,0,0,1-1.44-.35,1.87,1.87,0,0,1-.38-1.37v-4.46a1.88,1.88,0,0,1,.38-1.37,2.22,2.22,0,0,1,1.44-.35h12.22a.27.27,0,0,1,.31.31v.8c0,.23-.1.34-.31.34H230.12a.59.59,0,0,0-.45.14.74.74,0,0,0-.12.49v3.74a.77.77,0,0,0,.12.48.55.55,0,0,0,.45.15h12a.27.27,0,0,1,.31.31Zm-1.7,10.33a1.7,1.7,0,0,0-.65-1.36,5.1,5.1,0,0,0-1.57-.84,10.21,10.21,0,0,0-1.9-.41,15.84,15.84,0,0,0-1.62-.11,15.65,15.65,0,0,0-1.64.11,9.67,9.67,0,0,0-1.88.41,5.05,5.05,0,0,0-1.54.84,1.67,1.67,0,0,0-.65,1.36,1.61,1.61,0,0,0,.65,1.34,4.81,4.81,0,0,0,1.54.82,10.46,10.46,0,0,0,1.88.4,13.33,13.33,0,0,0,3.26,0,11.06,11.06,0,0,0,1.9-.4,4.87,4.87,0,0,0,1.57-.82A1.63,1.63,0,0,0,240.71,181.66Z"/><path class="cls-6" d="M50.82,206.6a.34.34,0,0,1-.31.42c-.59.14-1.34.28-2.25.41s-1.85.24-2.85.34-2,.17-3,.22-1.83.06-2.55,0a1.9,1.9,0,0,1-1.48-.5A2.41,2.41,0,0,1,38,206V195.6a1.84,1.84,0,0,1,.38-1.36,2.29,2.29,0,0,1,1.44-.34h8.26c.21,0,.31.1.31.29v.88c0,.19-.1.29-.31.29H40.17c-.23,0-.37,0-.41.08a.81.81,0,0,0-.08.45v10a.73.73,0,0,0,.12.49.71.71,0,0,0,.46.14c.77,0,1.58,0,2.44,0s1.72-.11,2.59-.19,1.73-.2,2.57-.32,1.63-.25,2.39-.4q.38-.08.45.27Zm3.07,7.83h-1a.3.3,0,0,1-.34-.34V192.42a.3.3,0,0,1,.34-.34h1a.3.3,0,0,1,.34.34v8.83h3.31a.41.41,0,0,1,.25.08.27.27,0,0,1,.11.23v.83a.25.25,0,0,1-.11.21.33.33,0,0,1-.25.1H54.23v11.39A.3.3,0,0,1,53.89,214.43Z"/><path class="cls-6" d="M70.43,198.44a5.69,5.69,0,0,1-.43,2.21,5.44,5.44,0,0,1-1.19,1.74,5.75,5.75,0,0,1-1.8,1.14,6.54,6.54,0,0,1-4.53,0,5.3,5.3,0,0,1-1.78-1.13,5,5,0,0,1-1.18-1.74,5.83,5.83,0,0,1-.42-2.23,6.11,6.11,0,0,1,.42-2.32,4.88,4.88,0,0,1,1.18-1.75,5.37,5.37,0,0,1,1.78-1.09,6.54,6.54,0,0,1,2.24-.37,6.36,6.36,0,0,1,2.18.37,5.59,5.59,0,0,1,1.81,1.08A5.17,5.17,0,0,1,70,196.1,5.59,5.59,0,0,1,70.43,198.44Zm-1.68,0a4.17,4.17,0,0,0-.33-1.71,3.43,3.43,0,0,0-.87-1.23,3.64,3.64,0,0,0-1.29-.76,4.93,4.93,0,0,0-3.1,0,3.39,3.39,0,0,0-1.25.76,3.47,3.47,0,0,0-.83,1.23,4.93,4.93,0,0,0,0,3.36,3.92,3.92,0,0,0,.8,1.26,3.34,3.34,0,0,0,1.24.81,4.32,4.32,0,0,0,1.61.28,4.17,4.17,0,0,0,1.54-.28,3.62,3.62,0,0,0,1.29-.81,4,4,0,0,0,1.2-2.91Zm7.13,11.68a3.27,3.27,0,0,1-.56,1.87,4.38,4.38,0,0,1-1.5,1.39,7.67,7.67,0,0,1-2.2.88,11.63,11.63,0,0,1-2.7.3,12.44,12.44,0,0,1-2.84-.3,7.31,7.31,0,0,1-2.18-.88A4.2,4.2,0,0,1,62.48,212a3.56,3.56,0,0,1-.5-1.87,3.49,3.49,0,0,1,.5-1.83,4.37,4.37,0,0,1,1.42-1.38,7.31,7.31,0,0,1,2.18-.87,12.44,12.44,0,0,1,2.84-.3,11.63,11.63,0,0,1,2.7.3,8,8,0,0,1,2.2.86,4.43,4.43,0,0,1,1.5,1.37A3.21,3.21,0,0,1,75.88,210.09Zm-1.71.08a2,2,0,0,0-.43-1.29,3.5,3.5,0,0,0-1.16-.93,7.07,7.07,0,0,0-1.7-.58,9.26,9.26,0,0,0-2-.21,9.86,9.86,0,0,0-2.11.21,6,6,0,0,0-1.64.58,3,3,0,0,0-1.07.93,2.19,2.19,0,0,0-.39,1.29,2.11,2.11,0,0,0,.39,1.25,2.91,2.91,0,0,0,1.07.9,5.73,5.73,0,0,0,1.64.56,10.58,10.58,0,0,0,2.11.2,10,10,0,0,0,2-.2,6.65,6.65,0,0,0,1.7-.56,3.44,3.44,0,0,0,1.16-.9A2,2,0,0,0,74.17,210.17Zm1.08-4.75h-1a.3.3,0,0,1-.34-.34V192.42a.3.3,0,0,1,.34-.34h1a.3.3,0,0,1,.34.34v3.93H78.9a.37.37,0,0,1,.25.09.27.27,0,0,1,.11.23v.8a.28.28,0,0,1-.11.21.33.33,0,0,1-.25.1H75.59v2.91H78.9a.41.41,0,0,1,.25.08.3.3,0,0,1,.11.23v.8a.28.28,0,0,1-.11.22.33.33,0,0,1-.25.1H75.59v3A.3.3,0,0,1,75.25,205.42Z"/><path class="cls-6" d="M93.21,197.47H80a.37.37,0,0,1-.23-.1.34.34,0,0,1-.11-.24v-.78a.3.3,0,0,1,.11-.24A.32.32,0,0,1,80,196H93.21c.23,0,.35.11.35.32v.82C93.56,197.36,93.44,197.47,93.21,197.47Zm-1.66,5.35a3.77,3.77,0,0,1-.38,1.65,4.48,4.48,0,0,1-1,1.36,4.77,4.77,0,0,1-1.57.91,6.22,6.22,0,0,1-3.94,0,4.77,4.77,0,0,1-1.57-.91,4.26,4.26,0,0,1-1-1.36,3.76,3.76,0,0,1-.37-1.65,3.64,3.64,0,0,1,.37-1.63,4.19,4.19,0,0,1,1-1.34,4.73,4.73,0,0,1,1.57-.89,6,6,0,0,1,3.94,0,4.73,4.73,0,0,1,1.57.89,4.4,4.4,0,0,1,1,1.34A3.65,3.65,0,0,1,91.55,202.82Zm-1.85-8.65H83.12a.44.44,0,0,1-.22-.07.25.25,0,0,1-.11-.22V193a.32.32,0,0,1,.09-.24.3.3,0,0,1,.22-.1h6.6c.24,0,.36.11.36.34v.82C90.06,194.06,89.94,194.17,89.7,194.17Zm.22,8.65a2.52,2.52,0,0,0-.25-1.08,2.88,2.88,0,0,0-.7-.86,3.47,3.47,0,0,0-1.06-.57,4.36,4.36,0,0,0-1.33-.2,4.25,4.25,0,0,0-1.32.2,3.53,3.53,0,0,0-1.05.57,2.64,2.64,0,0,0-.71.86,2.48,2.48,0,0,0,0,2.17,2.61,2.61,0,0,0,.71.88,3.79,3.79,0,0,0,1.05.58,4,4,0,0,0,1.32.22,4.08,4.08,0,0,0,1.33-.22,3.71,3.71,0,0,0,1.06-.58,2.84,2.84,0,0,0,.7-.88A2.53,2.53,0,0,0,89.92,202.82Zm8,11.18a.44.44,0,0,1-.24.07H85.29a1.9,1.9,0,0,1-1.48-.42,2.29,2.29,0,0,1-.35-1.42v-3.35a.3.3,0,0,1,.34-.34h1a.31.31,0,0,1,.34.34v3.25c0,.23,0,.36.1.41a.89.89,0,0,0,.45.08h12a.38.38,0,0,1,.24.08.26.26,0,0,1,.12.21v.87A.24.24,0,0,1,97.91,214Zm-1.3-4.68h-1a.3.3,0,0,1-.34-.34V192.42a.3.3,0,0,1,.34-.34h1a.3.3,0,0,1,.34.34v8h3.31a.41.41,0,0,1,.25.08.3.3,0,0,1,.11.23v.83a.28.28,0,0,1-.11.21.33.33,0,0,1-.25.1H97V209A.3.3,0,0,1,96.61,209.32Z"/><path class="cls-6" d="M118.16,194.65a4.78,4.78,0,0,1-.12.57c0,.19-.09.37-.14.55H123v-3.35a.3.3,0,0,1,.34-.34h1a.3.3,0,0,1,.34.34V203.6a.3.3,0,0,1-.34.34h-1a.3.3,0,0,1-.34-.34v-2.18h-6.12c-.21,0-.31-.1-.31-.29v-.85c0-.2.1-.29.31-.29H123V197.2h-5.59a9.33,9.33,0,0,1-1.19,2.07,11.34,11.34,0,0,1-1.8,1.89,17.33,17.33,0,0,1-2.52,1.76,30.2,30.2,0,0,1-3.32,1.65.36.36,0,0,1-.53-.15l-.36-.8c-.06-.14-.08-.25,0-.31a.48.48,0,0,1,.23-.17,18.92,18.92,0,0,0,6-3.66,8,8,0,0,0,2.46-4.39c.1-.47-.09-.7-.57-.7h-7.25c-.19,0-.29-.11-.29-.32v-.85a.26.26,0,0,1,.29-.29h7.8a2.28,2.28,0,0,1,1.57.41A1.38,1.38,0,0,1,118.16,194.65Zm7,19.57a.23.23,0,0,1-.11.2.32.32,0,0,1-.2.09H112.79a1.92,1.92,0,0,1-1.48-.43,2.3,2.3,0,0,1-.35-1.44v-1.82a1.75,1.75,0,0,1,.42-1.37,2.42,2.42,0,0,1,1.5-.35h9.6a.64.64,0,0,0,.44-.1.73.73,0,0,0,.09-.46v-1.38a.88.88,0,0,0-.08-.46.63.63,0,0,0-.42-.1H111.25a.41.41,0,0,1-.23-.07.22.22,0,0,1-.1-.19v-.88a.22.22,0,0,1,.1-.19.41.41,0,0,1,.23-.07h11.52a4.69,4.69,0,0,1,.94.08,1.27,1.27,0,0,1,.57.28,1,1,0,0,1,.3.55,3.49,3.49,0,0,1,.09.86v1.82a1.76,1.76,0,0,1-.42,1.37,2.42,2.42,0,0,1-1.5.35h-9.63a.64.64,0,0,0-.42.09.88.88,0,0,0-.08.46v1.48a.67.67,0,0,0,.1.45.58.58,0,0,0,.43.11h11.69a.36.36,0,0,1,.22.07.22.22,0,0,1,.11.2Z"/><path class="cls-6" d="M137.27,196a24.47,24.47,0,0,1-.89,2.75,25.25,25.25,0,0,1-1.22,2.65,14.37,14.37,0,0,0,.85,1.49,17,17,0,0,0,1.07,1.49,17.92,17.92,0,0,0,1.18,1.37,12.47,12.47,0,0,0,1.22,1.13.28.28,0,0,1,.1.24.32.32,0,0,1-.1.22l-.58.66a.5.5,0,0,1-.19.12c-.07,0-.16,0-.29-.15-.35-.31-.72-.66-1.1-1.06s-.76-.84-1.13-1.29-.72-.91-1.06-1.37-.63-.91-.89-1.34a23.12,23.12,0,0,1-2.47,3.17,23.6,23.6,0,0,1-3.05,2.76.8.8,0,0,1-.25.11.16.16,0,0,1-.2-.06l-.63-.75a.28.28,0,0,1-.06-.24.39.39,0,0,1,.16-.2,23.34,23.34,0,0,0,4.9-5.18,20.25,20.25,0,0,0,2.8-6.4.69.69,0,0,0,0-.49c-.06-.09-.2-.14-.42-.14h-6.1c-.19,0-.29-.11-.29-.32v-.85c0-.19.11-.29.34-.29h6.69q1.26,0,1.56.42C137.45,194.71,137.46,195.23,137.27,196Zm3.72,4.19v-7.34c0-.23.11-.34.33-.34h.92c.22,0,.33.11.33.34v20.33c0,.23-.11.34-.33.34h-.92c-.22,0-.33-.11-.33-.34V201.63h-3.46a.38.38,0,0,1-.25-.09.31.31,0,0,1-.11-.22v-.82a.27.27,0,0,1,.11-.23.38.38,0,0,1,.25-.09Zm5.83,13.91a.3.3,0,0,1-.34.34h-.91c-.22,0-.33-.11-.33-.34V192.42a.3.3,0,0,1,.33-.34h.91a.3.3,0,0,1,.34.34Z"/><path class="cls-6" d="M158.77,214.29a.28.28,0,0,1-.21-.11.35.35,0,0,1-.1-.26V206h-9.31a.37.37,0,0,1-.25-.09.28.28,0,0,1-.11-.22v-.83a.27.27,0,0,1,.11-.23.41.41,0,0,1,.25-.08h20.4a.46.46,0,0,1,.24.08.28.28,0,0,1,.12.23v.83a.29.29,0,0,1-.12.22.4.4,0,0,1-.24.09h-9.43v7.9a.39.39,0,0,1-.09.26.27.27,0,0,1-.23.11Zm1.42-21.67a5.31,5.31,0,0,1-.12.6c0,.2-.1.38-.15.56s.11.34.17.5.14.3.22.45a6.65,6.65,0,0,0,1.2,1.61,12.68,12.68,0,0,0,1.82,1.53,15.56,15.56,0,0,0,2.23,1.27A13.77,13.77,0,0,0,168,200a.3.3,0,0,1,.19.19.42.42,0,0,1,0,.27l-.39.83a.65.65,0,0,1-.15.17.59.59,0,0,1-.33,0,15.28,15.28,0,0,1-4.84-2.31,13.36,13.36,0,0,1-2-1.67,10.08,10.08,0,0,1-1.43-1.82,11.22,11.22,0,0,1-2.95,3.41,19.64,19.64,0,0,1-4.82,2.68c-.26.09-.42.06-.49-.1l-.45-.85a.41.41,0,0,1,0-.27.25.25,0,0,1,.18-.19,14,14,0,0,0,3-1.42,14.23,14.23,0,0,0,2.5-2,10.15,10.15,0,0,0,1.74-2.23,5.33,5.33,0,0,0,.73-2.3.28.28,0,0,1,.31-.29l1.08.12a.54.54,0,0,1,.22.09A.23.23,0,0,1,160.19,192.62Z"/><path class="cls-6" d="M184.69,203.26c.05.21-.05.35-.29.41a21.76,21.76,0,0,1-2.3.39c-.9.11-1.83.21-2.81.28s-1.94.12-2.9.16-1.81,0-2.55,0a1.9,1.9,0,0,1-1.47-.51,2.3,2.3,0,0,1-.4-1.5v-7.35a1.8,1.8,0,0,1,.38-1.35,2.23,2.23,0,0,1,1.44-.34H182c.21,0,.31.09.31.29v.87c0,.19-.1.29-.31.29h-7.87c-.23,0-.36,0-.41.09a.78.78,0,0,0-.07.44v6.94a.69.69,0,0,0,.12.48.74.74,0,0,0,.45.15c.74,0,1.53,0,2.37,0s1.69-.07,2.55-.13,1.72-.15,2.56-.26,1.64-.23,2.41-.37a.38.38,0,0,1,.33,0,.64.64,0,0,1,.13.22Zm4.18,10.66a.46.46,0,0,1-.24.08H176.34a1.88,1.88,0,0,1-1.48-.44,2.33,2.33,0,0,1-.35-1.43v-4.44a.3.3,0,0,1,.34-.33h1c.23,0,.34.11.34.33V212a.58.58,0,0,0,.11.43.85.85,0,0,0,.44.08h11.91a.4.4,0,0,1,.24.09.23.23,0,0,1,.12.2v.88A.22.22,0,0,1,188.87,213.92Zm-1.3-5.45h-1a.3.3,0,0,1-.34-.34V192.42a.3.3,0,0,1,.34-.34h1a.31.31,0,0,1,.34.34v6.91h3.31a.38.38,0,0,1,.25.09.27.27,0,0,1,.11.23v.82a.31.31,0,0,1-.11.22.39.39,0,0,1-.25.1h-3.31v7.34A.3.3,0,0,1,187.57,208.47Z"/><path class="cls-6" d="M204.87,193.66c0,1.07,0,2.09-.13,3.07a24.82,24.82,0,0,1-.42,2.82,11,11,0,0,0,.75,2,18.13,18.13,0,0,0,1.18,2.14,18.92,18.92,0,0,0,1.54,2.08,14.64,14.64,0,0,0,1.81,1.8.33.33,0,0,1,.13.24.35.35,0,0,1-.06.25l-.6.75c-.14.18-.31.18-.5,0a13.12,13.12,0,0,1-1.38-1.4c-.47-.54-.93-1.11-1.37-1.7s-.85-1.22-1.23-1.85a17.44,17.44,0,0,1-1-1.81,17.67,17.67,0,0,1-2,4.06,20.48,20.48,0,0,1-3,3.45c-.16.13-.3.14-.41,0l-.72-.75a.21.21,0,0,1-.06-.19.41.41,0,0,1,.13-.24,19.94,19.94,0,0,0,2.55-3,15.07,15.07,0,0,0,1.76-3.35,18.86,18.86,0,0,0,1-3.9,30.06,30.06,0,0,0,.32-4.63.32.32,0,0,1,.09-.25.25.25,0,0,1,.2-.09l1.13,0C204.79,193.32,204.87,193.43,204.87,193.66Zm9.58,20.77h-1a.3.3,0,0,1-.34-.34V192.42a.3.3,0,0,1,.34-.34h1a.31.31,0,0,1,.34.34v8.83h3.31a.44.44,0,0,1,.25.08.3.3,0,0,1,.11.23v.83a.28.28,0,0,1-.11.21.35.35,0,0,1-.25.1h-3.31v11.39A.3.3,0,0,1,214.45,214.43Z"/><path class="cls-6" d="M239.39,203.63a.29.29,0,0,1,.12.24v.82a.29.29,0,0,1-.12.22.4.4,0,0,1-.24.09h-20.4a.41.41,0,0,1-.26-.09.3.3,0,0,1-.1-.22v-.82a.3.3,0,0,1,.1-.24.47.47,0,0,1,.26-.08h5.44v-3.9a5.89,5.89,0,0,1-1.93-1.29,2.78,2.78,0,0,1-.78-2,2.75,2.75,0,0,1,.76-2,5.41,5.41,0,0,1,1.87-1.26,10.12,10.12,0,0,1,2.42-.66,16.54,16.54,0,0,1,2.42-.19,14.32,14.32,0,0,1,2.43.22,10.37,10.37,0,0,1,2.43.7,5.68,5.68,0,0,1,1.86,1.27,2.87,2.87,0,0,1,0,3.89,5.58,5.58,0,0,1-2,1.29v4h5.48A.46.46,0,0,1,239.39,203.63Zm-3,7a2.75,2.75,0,0,1-.77,2,5.29,5.29,0,0,1-1.9,1.21,10.29,10.29,0,0,1-2.43.6,21.25,21.25,0,0,1-2.39.15c-.48,0-1,0-1.55-.07a16.13,16.13,0,0,1-1.66-.23,9.35,9.35,0,0,1-1.59-.45,5.22,5.22,0,0,1-1.36-.74,3.78,3.78,0,0,1-1-1.05,2.76,2.76,0,0,1-.36-1.43,2.68,2.68,0,0,1,.77-2,5.41,5.41,0,0,1,1.9-1.2,10.29,10.29,0,0,1,2.43-.6,17.47,17.47,0,0,1,2.37-.17,21.25,21.25,0,0,1,2.39.15,10.5,10.5,0,0,1,2.44.6,5.13,5.13,0,0,1,1.9,1.21A2.76,2.76,0,0,1,236.39,210.63Zm-1.76,0a1.49,1.49,0,0,0-.64-1.27,5.12,5.12,0,0,0-1.56-.74,9.85,9.85,0,0,0-1.89-.35c-.65-.06-1.19-.09-1.64-.09s-1,0-1.67.09a9.51,9.51,0,0,0-1.87.35,4.9,4.9,0,0,0-1.54.74,1.59,1.59,0,0,0,0,2.53,4.5,4.5,0,0,0,1.54.74,10.3,10.3,0,0,0,1.87.34c.65.06,1.2.09,1.67.09s1,0,1.65-.09a10.36,10.36,0,0,0,1.89-.34,4.64,4.64,0,0,0,1.55-.74A1.49,1.49,0,0,0,234.63,210.65ZM229,193.76c-.52,0-1.1,0-1.76.09a9.3,9.3,0,0,0-1.86.39,4.55,4.55,0,0,0-1.48.8,1.69,1.69,0,0,0,0,2.62,4.37,4.37,0,0,0,1.48.8,9.3,9.3,0,0,0,1.86.39c.66.06,1.24.09,1.76.09s1.07,0,1.72-.09a9.5,9.5,0,0,0,1.88-.39,4.47,4.47,0,0,0,1.5-.8,1.71,1.71,0,0,0,0-2.62,4.66,4.66,0,0,0-1.5-.8,9.5,9.5,0,0,0-1.88-.39C230,193.79,229.44,193.76,229,193.76Zm0,6.69q-.7,0-1.5-.06a9.7,9.7,0,0,1-1.6-.26v3.42H232v-3.44a9.76,9.76,0,0,1-1.59.26C229.91,200.42,229.41,200.45,229,200.45Z"/><path class="cls-6" d="M251.19,195.65a15.22,15.22,0,0,1-.81,4.09,16.73,16.73,0,0,1-1.93,3.85,18.58,18.58,0,0,1-3,3.39,20.26,20.26,0,0,1-3.95,2.75c-.21.11-.36.09-.45-.07l-.53-.85c-.11-.19-.08-.33.09-.41a18.79,18.79,0,0,0,3.62-2.44,16.23,16.23,0,0,0,2.68-3,14.29,14.29,0,0,0,2.58-7,.56.56,0,0,0-.09-.5.71.71,0,0,0-.48-.13H241.5c-.19,0-.29-.11-.29-.32v-.85a.26.26,0,0,1,.29-.29h7.89a1.9,1.9,0,0,1,1.49.43A1.81,1.81,0,0,1,251.19,195.65Zm6,18.78h-1a.3.3,0,0,1-.34-.34V192.42a.3.3,0,0,1,.34-.34h1a.31.31,0,0,1,.34.34V201h3.31a.38.38,0,0,1,.25.09.28.28,0,0,1,.11.23v.82a.28.28,0,0,1-.11.22.35.35,0,0,1-.25.1h-3.31v11.63A.3.3,0,0,1,257.17,214.43Z"/><path class="cls-6" d="M282.11,203.05a.28.28,0,0,1,.12.23v.83a.29.29,0,0,1-.12.22.4.4,0,0,1-.24.09h-20.4a.41.41,0,0,1-.26-.09.3.3,0,0,1-.1-.22v-.83a.29.29,0,0,1,.1-.23.47.47,0,0,1,.26-.08h20.4A.46.46,0,0,1,282.11,203.05Zm-3,7.38a2.86,2.86,0,0,1-.36,1.45,4,4,0,0,1-1,1.09,5.76,5.76,0,0,1-1.38.78,10,10,0,0,1-1.61.5,15.93,15.93,0,0,1-1.66.27c-.55,0-1.06.08-1.52.08s-.95,0-1.5-.08a15.93,15.93,0,0,1-1.66-.27,10,10,0,0,1-1.61-.5,5.76,5.76,0,0,1-1.38-.78,4,4,0,0,1-1-1.09,2.86,2.86,0,0,1-.36-1.45,2.74,2.74,0,0,1,.36-1.41,3.53,3.53,0,0,1,1-1.08,5.76,5.76,0,0,1,1.38-.78,11.16,11.16,0,0,1,1.61-.51,13.54,13.54,0,0,1,1.65-.28c.54-.05,1-.08,1.51-.08s1,0,1.52.08a16.56,16.56,0,0,1,1.67.27,9.42,9.42,0,0,1,1.61.5,6.24,6.24,0,0,1,1.37.77,3.68,3.68,0,0,1,1,1.09A2.84,2.84,0,0,1,279.11,210.43Zm0-10.08a.44.44,0,0,1-.24.07H266.46c-.75,0-1.25-.15-1.48-.47a2.48,2.48,0,0,1-.35-1.47v-5.79a.3.3,0,0,1,.34-.34h1a.3.3,0,0,1,.34.34v5.75a.6.6,0,0,0,.11.43.66.66,0,0,0,.44.1h12.07a.46.46,0,0,1,.24.08.26.26,0,0,1,.12.21v.87A.24.24,0,0,1,279.15,200.35Zm-1.8,10.11a1.69,1.69,0,0,0-.64-1.36,5.16,5.16,0,0,0-1.58-.84,9.94,9.94,0,0,0-1.89-.41,12.21,12.21,0,0,0-3.27,0,9.74,9.74,0,0,0-1.87.41,5.23,5.23,0,0,0-1.55.84,1.69,1.69,0,0,0-.64,1.36,1.63,1.63,0,0,0,.64,1.34,5,5,0,0,0,1.55.82,10.54,10.54,0,0,0,1.87.4,15.64,15.64,0,0,0,1.65.1,15.44,15.44,0,0,0,1.62-.1,10.76,10.76,0,0,0,1.89-.4,4.92,4.92,0,0,0,1.58-.82A1.63,1.63,0,0,0,277.35,210.46Z"/></g></g></svg>