<svg xmlns="http://www.w3.org/2000/svg" viewBox="0 0 599.83 350"><defs><style>.cls-1{isolation:isolate;}.cls-2{fill:#fdb71c;}.cls-3{fill:#656666;}.cls-4{fill:#777879;}.cls-5{fill:#747575;}.cls-6{fill:#b9b9ba;}.cls-7{fill:#e7e7e7;}.cls-8{fill:#d3d3d3;}.cls-9{fill:none;}.cls-10{fill:#a7a7a8;}.cls-11{fill:#8a8b8b;}.cls-12{fill:#767779;opacity:0.2;mix-blend-mode:multiply;}.cls-13{fill:#939393;}.cls-14{fill:#f2f2f2;}.cls-15{fill:#d7d7d8;}.cls-16{fill:#1a252a;}.cls-17{fill:#2a3942;}.cls-18{fill:#fff;}.cls-19{fill:#d6e0e9;}.cls-20{fill:#204751;}.cls-21{fill:#09a7bc;}.cls-22{fill:#ed6832;}.cls-23{opacity:0.5;}.cls-24{fill:#2b2f38;}</style></defs><g class="cls-1"><g id="레이어_2" data-name="레이어 2"><g id="Banners"><rect class="cls-2" width="599.83" height="350"/><path class="cls-3" d="M213.4,322.3v-8.11a9.73,9.73,0,0,0-9.72-9.73H183.41a9.73,9.73,0,0,0-9.73,9.73v8.11Z"/><path class="cls-4" d="M206.11,322.3v-8.11c0-5.37-3.56-9.73-7.94-9.73H181.63c-4.39,0-7.95,4.36-7.95,9.73v8.11Z"/><path class="cls-3" d="M84.11,322.3v-8.11a9.73,9.73,0,0,0-9.72-9.73H54.12a9.73,9.73,0,0,0-9.73,9.73v8.11Z"/><path class="cls-4" d="M76.82,322.3v-8.11c0-5.37-3.56-9.73-7.94-9.73H52.33c-4.38,0-7.94,4.36-7.94,9.73v8.11Z"/><path class="cls-5" d="M232.66,295.41c0,7-6.35,12.69-14.18,12.69H33.11c-7.83,0-14.18-5.68-14.18-12.69V97.57c0-7,6.35-12.69,14.18-12.69H218.48c7.83,0,14.18,5.68,14.18,12.69Z"/><path class="cls-6" d="M40.68,84H206.58a12.68,12.68,0,0,1,12.68,12.68V294.51a12.68,12.68,0,0,1-12.68,12.68H40.69A12.69,12.69,0,0,1,28,294.51V96.66A12.68,12.68,0,0,1,40.68,84Z"/><path class="cls-7" d="M51.6,97.12H195.66a12.7,12.7,0,0,1,12.7,12.7V281.64a12.7,12.7,0,0,1-12.7,12.7H51.6a12.71,12.71,0,0,1-12.71-12.71V109.82A12.71,12.71,0,0,1,51.6,97.12Z"/><path class="cls-8" d="M195.66,98.81a11,11,0,0,1,11,11V281.63a11,11,0,0,1-11,11H51.6a11,11,0,0,1-11-11V109.82a11,11,0,0,1,11-11Zm0-3.38H51.6a14.41,14.41,0,0,0-14.4,14.39V281.63A14.42,14.42,0,0,0,51.6,296H195.66a14.42,14.42,0,0,0,14.4-14.4V109.82a14.41,14.41,0,0,0-14.4-14.39Z"/><rect class="cls-9" x="28" y="83.98" width="191.26" height="223.22" rx="12.69"/><path class="cls-10" d="M211.32,125.14a3.81,3.81,0,0,1-3.81,3.8H188.09a3.81,3.81,0,0,1-3.81-3.8h0a3.81,3.81,0,0,1,3.81-3.8h19.42a3.81,3.81,0,0,1,3.81,3.8Z"/><path class="cls-10" d="M211.32,136.54a3.82,3.82,0,0,1-3.81,3.81H188.09a3.82,3.82,0,0,1-3.81-3.81h0a3.81,3.81,0,0,1,3.81-3.8h19.42a3.81,3.81,0,0,1,3.81,3.8Z"/><path class="cls-10" d="M211.32,258.77a3.81,3.81,0,0,1-3.81,3.8H188.09a3.81,3.81,0,0,1-3.81-3.8h0a3.81,3.81,0,0,1,3.81-3.8h19.42a3.81,3.81,0,0,1,3.81,3.8Z"/><path class="cls-10" d="M211.32,270.17a3.82,3.82,0,0,1-3.81,3.81H188.09a3.82,3.82,0,0,1-3.81-3.81h0a3.81,3.81,0,0,1,3.81-3.8h19.42a3.81,3.81,0,0,1,3.81,3.8Z"/><path class="cls-11" d="M134.63,132.74a11,11,0,1,1-11-11A11,11,0,0,1,134.63,132.74Z"/><path class="cls-7" d="M129,132.74a5.39,5.39,0,1,1-5.39-5.38A5.39,5.39,0,0,1,129,132.74Z"/><path class="cls-12" d="M206.57,307.2a12.69,12.69,0,0,0,12.69-12.69V218.27L158.2,163.71,91.44,233.45l79.32,73.75Z"/><path class="cls-13" d="M97,231.59c-2.28,2.3-5.81,2.51-7.88.46h0c-2.08-2.06-1.9-5.59.37-7.89l60.79-61.37c2.28-2.3,5.81-2.51,7.88-.46h0a5.61,5.61,0,0,1-.38,7.89Z"/><path class="cls-13" d="M158,223.83c2.3,2.28,2.51,5.81.45,7.88h0c-2,2.07-5.58,1.9-7.88-.38L89.22,170.55c-2.29-2.28-2.5-5.81-.45-7.88h0c2-2.07,5.59-1.9,7.89.38Z"/><path class="cls-14" d="M138,211.41a20.21,20.21,0,1,1-.13-28.57A20.2,20.2,0,0,1,138,211.41Z"/><path class="cls-15" d="M129.91,203.41a8.84,8.84,0,1,1-.06-12.5A8.83,8.83,0,0,1,129.91,203.41Z"/><path class="cls-13" d="M134.63,197.36a11,11,0,1,1-10.83-11.17A11,11,0,0,1,134.63,197.36Z"/><path class="cls-7" d="M130.66,195.66h-5.45v-5.44a1.81,1.81,0,1,0-3.62,0v5.44h-5.44a1.82,1.82,0,1,0,0,3.63h5.44v5.44a1.81,1.81,0,0,0,3.62,0v-5.44h5.45a1.82,1.82,0,0,0,0-3.63Z"/><path class="cls-16" d="M299,195.09H211.49v71.27a4,4,0,0,0,4,4.05H294.9a4,4,0,0,0,4.06-4.05Z"/><path class="cls-17" d="M296.42,195.09H214V263.6a3.92,3.92,0,0,0,1.13,2.76,3.75,3.75,0,0,0,2.69,1.14H292.6a3.76,3.76,0,0,0,2.7-1.14,4,4,0,0,0,1.12-2.76Z"/><path class="cls-18" d="M299,160.21a4.06,4.06,0,0,0-4.06-4.06H215.54a4.06,4.06,0,0,0-4,4.06v34.88H299Z"/><path class="cls-19" d="M221.19,188.09a2.41,2.41,0,0,1-2.4-2.39V165.55a2.41,2.41,0,0,1,2.4-2.39h68.67a2.37,2.37,0,0,1,2.39,2.39V185.7a2.39,2.39,0,0,1-2.39,2.39Z"/><path class="cls-20" d="M221.19,164.85a.68.68,0,0,0-.5.2.69.69,0,0,0-.21.5V185.7a.72.72,0,0,0,.71.71h68.67a.7.7,0,0,0,.5-.21.72.72,0,0,0,.2-.5V165.55a.72.72,0,0,0-.2-.5.69.69,0,0,0-.5-.2Z"/><rect class="cls-16" x="211.49" y="196.26" width="87.47" height="4.95"/><rect class="cls-18" x="221.84" y="205.75" width="10.14" height="8.28"/><rect class="cls-18" x="240.71" y="205.75" width="10.14" height="8.28"/><rect class="cls-21" x="259.59" y="205.75" width="10.14" height="8.28"/><rect class="cls-22" x="278.47" y="205.75" width="10.14" height="8.28"/><rect class="cls-18" x="221.84" y="220.63" width="10.14" height="8.27"/><rect class="cls-18" x="240.71" y="220.63" width="10.14" height="8.27"/><rect class="cls-18" x="259.59" y="220.63" width="10.14" height="8.27"/><rect class="cls-18" x="278.47" y="220.63" width="10.14" height="8.27"/><rect class="cls-18" x="221.84" y="235.49" width="10.14" height="8.27"/><rect class="cls-18" x="240.71" y="235.49" width="10.14" height="8.27"/><rect class="cls-18" x="259.59" y="235.49" width="10.14" height="8.27"/><rect class="cls-18" x="221.84" y="250.36" width="10.14" height="8.28"/><rect class="cls-18" x="240.71" y="250.36" width="10.14" height="8.28"/><rect class="cls-18" x="259.59" y="250.36" width="10.14" height="8.28"/><rect class="cls-18" x="278.47" y="235.49" width="10.14" height="23.14"/><g class="cls-23"><path class="cls-18" d="M263.4,149.4l-.27,0c-1.85-.19-3-2.18-3.53-4a14.57,14.57,0,0,1-3.27-1.77,8.16,8.16,0,0,1-2.41.4,3.56,3.56,0,0,1-2.88-1.14c-1.17-1.44-.59-3.67.35-5.33a14.33,14.33,0,0,1-1.07-3.56c-1.69-.87-3.4-2.42-3.21-4.26s2.17-3,4-3.53a14.79,14.79,0,0,1,1.77-3.27c-.59-1.81-.7-4.12.73-5.29a3.11,3.11,0,0,1,2-.65,7,7,0,0,1,3.32,1,14.53,14.53,0,0,1,3.57-1.07c.86-1.66,2.44-3.39,4.26-3.21s3,2.18,3.52,4a14.86,14.86,0,0,1,3.28,1.77,7.77,7.77,0,0,1,2.41-.41,3.53,3.53,0,0,1,2.87,1.15c1.18,1.43.6,3.67-.34,5.33a14.74,14.74,0,0,1,1.06,3.56c1.7.87,3.41,2.42,3.22,4.26s-2.18,3-4,3.52a14.86,14.86,0,0,1-1.77,3.28c.58,1.81.7,4.12-.74,5.29a3.08,3.08,0,0,1-2,.64h0a7,7,0,0,1-3.33-1,14.9,14.9,0,0,1-3.56,1.07C266.57,147.75,265.12,149.4,263.4,149.4Zm-6.91-7.76a1,1,0,0,1,.56.19,12.7,12.7,0,0,0,3.64,2,1,1,0,0,1,.6.68c.35,1.64,1.24,3,2,3.07s1.93-1.06,2.61-2.59a1,1,0,0,1,.73-.55,12.51,12.51,0,0,0,4-1.18,1,1,0,0,1,.91.05,5.61,5.61,0,0,0,2.77,1h0a1.26,1.26,0,0,0,.83-.23c.61-.5.61-2.11,0-3.68a.92.92,0,0,1,.13-.9,12.64,12.64,0,0,0,2-3.63.94.94,0,0,1,.68-.6c1.64-.36,3-1.25,3.07-2s-1.06-1.92-2.59-2.6a1,1,0,0,1-.55-.73,12.92,12.92,0,0,0-1.18-4,.93.93,0,0,1,.05-.9c.91-1.41,1.23-3,.74-3.6a1.85,1.85,0,0,0-1.44-.47,6.27,6.27,0,0,0-2.24.46.94.94,0,0,1-.89-.13,13.11,13.11,0,0,0-3.64-2,.92.92,0,0,1-.6-.67c-.36-1.64-1.25-3-2-3.07s-1.92,1.06-2.6,2.59a.93.93,0,0,1-.73.54,12.85,12.85,0,0,0-4,1.19.91.91,0,0,1-.9-.06c-1.37-.88-3-1.22-3.61-.73s-.61,2.11,0,3.68a.94.94,0,0,1-.13.89,13.11,13.11,0,0,0-2,3.64.92.92,0,0,1-.68.6c-1.64.36-3,1.24-3.06,2s1.06,1.93,2.59,2.61a.91.91,0,0,1,.54.73,12.79,12.79,0,0,0,1.19,4,.92.92,0,0,1-.06.91c-.91,1.41-1.23,3-.73,3.6a1.84,1.84,0,0,0,1.44.46,6.42,6.42,0,0,0,2.23-.45A1,1,0,0,1,256.49,141.64Zm8.47.29a10.39,10.39,0,1,1,6.56-2.33A10.45,10.45,0,0,1,265,141.93ZM265,123a8.55,8.55,0,1,0,6.63,3.15A8.54,8.54,0,0,0,265,123Z"/><path class="cls-18" d="M265,136.43h0a4.9,4.9,0,1,1,3.09-1.1A4.91,4.91,0,0,1,265,136.43Zm0-7.94a3,3,0,0,0-1.92.68,3,3,0,1,0,5,2.67,3,3,0,0,0-.66-2.23A3.07,3.07,0,0,0,265,128.49Z"/><path class="cls-18" d="M296.32,130.31c-1.81,0-3.21-1.77-3.95-3.47a14.35,14.35,0,0,1-3.49-1.29,7.39,7.39,0,0,1-3.1.8,3.27,3.27,0,0,1-2.25-.78c-1.36-1.26-1.1-3.55-.41-5.32a15,15,0,0,1-1.56-3.38c-1.8-.62-3.71-1.91-3.78-3.76s1.73-3.3,3.47-4.06a15.08,15.08,0,0,1,1.28-3.49c-.83-1.71-1.27-4,0-5.34a3.37,3.37,0,0,1,2.58-1,7.6,7.6,0,0,1,2.74.57,14.19,14.19,0,0,1,3.38-1.56c.62-1.8,1.91-3.72,3.76-3.79h.11c1.8,0,3.2,1.77,4,3.47a14.66,14.66,0,0,1,3.49,1.29,7.35,7.35,0,0,1,3.09-.8,3.26,3.26,0,0,1,2.25.78c1.36,1.26,1.1,3.55.41,5.33a14.34,14.34,0,0,1,1.56,3.37c1.8.62,3.71,1.91,3.79,3.77s-1.73,3.29-3.47,4a14.66,14.66,0,0,1-1.29,3.49c.83,1.71,1.28,4,0,5.34a3.4,3.4,0,0,1-2.59,1h0a7.6,7.6,0,0,1-2.74-.57,14.31,14.31,0,0,1-3.37,1.56c-.63,1.8-1.92,3.72-3.77,3.79Zm-7.44-6.73a.93.93,0,0,1,.46.12,13,13,0,0,0,3.88,1.43.93.93,0,0,1,.69.58c.57,1.54,1.63,2.75,2.41,2.75h0c.78,0,1.75-1.32,2.21-2.93a.9.9,0,0,1,.64-.64,13,13,0,0,0,3.75-1.74.92.92,0,0,1,.91-.07,6.12,6.12,0,0,0,2.44.59h0a1.74,1.74,0,0,0,1.23-.37c.53-.58.3-2.18-.52-3.64a1,1,0,0,1,0-.91,12.7,12.7,0,0,0,1.43-3.88.94.94,0,0,1,.59-.69c1.57-.59,2.78-1.66,2.75-2.44s-1.32-1.76-2.94-2.21a.94.94,0,0,1-.64-.64,12.84,12.84,0,0,0-1.73-3.76.93.93,0,0,1-.08-.9c.7-1.52.8-3.14.22-3.67a1.5,1.5,0,0,0-1-.29,5.88,5.88,0,0,0-2.65.8.9.9,0,0,1-.9,0,12.84,12.84,0,0,0-3.88-1.42.94.94,0,0,1-.69-.59c-.58-1.54-1.63-2.75-2.41-2.75s-1.79,1.32-2.25,2.94a.92.92,0,0,1-.64.64,12.78,12.78,0,0,0-3.75,1.73.91.91,0,0,1-.9.07,6.16,6.16,0,0,0-2.45-.59,1.71,1.71,0,0,0-1.22.37c-.53.58-.31,2.18.51,3.65a.9.9,0,0,1,0,.9A13.14,13.14,0,0,0,283,109.9a.9.9,0,0,1-.59.69c-1.57.58-2.78,1.66-2.74,2.44s1.32,1.76,2.93,2.21a.92.92,0,0,1,.64.64,12.92,12.92,0,0,0,1.73,3.75.93.93,0,0,1,.08.91c-.7,1.52-.8,3.14-.22,3.67a1.5,1.5,0,0,0,1,.29,5.84,5.84,0,0,0,2.65-.8A.92.92,0,0,1,288.88,123.58Zm6.82-.79a10.4,10.4,0,1,1,7.65-3.35A10.37,10.37,0,0,1,295.7,122.79Zm0-19a8.54,8.54,0,1,0,5.79,2.26A8.57,8.57,0,0,0,295.71,103.84Z"/><path class="cls-18" d="M295.7,117.28h0a4.88,4.88,0,0,1-3.32-1.3,4.9,4.9,0,0,1-.28-6.92,4.93,4.93,0,0,1,3.6-1.57,4.9,4.9,0,1,1,0,9.79Zm0-7.94a3,3,0,0,0-2.24,1,3,3,0,0,0,4.48,4.13,3,3,0,0,0-.17-4.3A3,3,0,0,0,295.7,109.34Z"/><path class="cls-18" d="M257,96.08a.81.81,0,0,1-.73-.47l-4.94-10.54-9.2.05a8.33,8.33,0,0,1-8.34-8.29l-.05-23.58a8.33,8.33,0,0,1,8.29-8.34l29.18-.14a8.34,8.34,0,0,1,8.34,8.29l.05,23.57A8.32,8.32,0,0,1,271.35,85l-8.89.06L257.78,95.6a.8.8,0,0,1-.73.48Zm-5.16-12.63a.81.81,0,0,1,.73.46L257,93.32l4.18-9.42a.78.78,0,0,1,.73-.48l9.42-.06A6.7,6.7,0,0,0,278,76.64l0-23.58a6.71,6.71,0,0,0-6.69-6.68l-29.21.15a6.69,6.69,0,0,0-6.67,6.72l0,23.58a6.7,6.7,0,0,0,6.69,6.67l9.73,0Z"/><path class="cls-18" d="M268.73,77.8a.78.78,0,0,1-.33-.07.82.82,0,0,1-.4-1.07,3.24,3.24,0,0,0-2.13-4.5c-.94-.39-1.87-.7-2.76-1-2.3-.77-4.12-1.38-4.67-2.8a2.89,2.89,0,0,1,.37-2.52c.42-.75.81-1.34,1.15-1.85,1.05-1.58,1.57-2.37,1.29-5.59A4.29,4.29,0,0,0,257,54.47h0a4.31,4.31,0,0,0-4.39,3.79c-.39,3.21.11,4,1.11,5.62.32.53.69,1.13,1.09,1.9a2.89,2.89,0,0,1,.28,2.53c-.59,1.39-2.43,1.94-4.76,2.64-.9.27-1.83.55-2.79.91a3.71,3.71,0,0,0-2.26,1.86,3.66,3.66,0,0,0,0,2.57.81.81,0,0,1-1.49.62,4.84,4.84,0,0,1,3.2-6.57c1-.37,2-.67,2.89-.93,1.77-.54,3.44-1,3.73-1.74a1.43,1.43,0,0,0-.23-1.15c-.37-.71-.72-1.28-1-1.79-1.08-1.74-1.79-2.89-1.33-6.67a6,6,0,0,1,11.89.19c.33,3.8-.42,4.92-1.55,6.63-.33.49-.7,1.05-1.09,1.75a1.47,1.47,0,0,0-.27,1.15c.27.71,1.93,1.26,3.68,1.85.87.29,1.86.63,2.85,1a5.21,5.21,0,0,1,3.1,2.85,5.26,5.26,0,0,1-.11,3.82A.81.81,0,0,1,268.73,77.8Z"/><path class="cls-18" d="M201.07,68.61a.93.93,0,0,1-.93-.93V53.11a.93.93,0,0,1,1.85,0V67.68A.92.92,0,0,1,201.07,68.61Z"/><path class="cls-18" d="M208.35,61.33H193.78a.93.93,0,0,1,0-1.86h14.57a.93.93,0,1,1,0,1.86Z"/><path class="cls-18" d="M263.7,301.47a.93.93,0,0,1-.93-.92V286a.93.93,0,1,1,1.85,0v14.57A.92.92,0,0,1,263.7,301.47Z"/><path class="cls-18" d="M271,294.19H256.41a.93.93,0,0,1,0-1.85H271a.93.93,0,1,1,0,1.85Z"/><path class="cls-18" d="M172.33,60.54a5.19,5.19,0,1,1,5.19-5.19A5.2,5.2,0,0,1,172.33,60.54Zm0-8.53a3.34,3.34,0,1,0,3.34,3.34A3.35,3.35,0,0,0,172.33,52Z"/><path class="cls-18" d="M17.5,72.11A7.47,7.47,0,1,1,25,64.65,7.47,7.47,0,0,1,17.5,72.11Zm0-12.26a4.8,4.8,0,1,0,4.8,4.8A4.8,4.8,0,0,0,17.5,59.85Z"/><path class="cls-18" d="M84.59,68.68a.91.91,0,0,1-.65-.27l-6.27-6.27A.93.93,0,0,1,79,60.83l6.26,6.27a.93.93,0,0,1-.65,1.58Z"/><path class="cls-18" d="M87.37,65.9a1,1,0,0,1-.66-.27l-6.26-6.27a.93.93,0,0,1,1.31-1.31L88,64.32a.93.93,0,0,1-.65,1.58Z"/><path class="cls-18" d="M90.15,63.12a.93.93,0,0,1-.66-.27l-6.26-6.27a.93.93,0,1,1,1.31-1.31l6.26,6.27a.93.93,0,0,1,0,1.31A.91.91,0,0,1,90.15,63.12Z"/><path class="cls-18" d="M324.9,145.89H303.67a.93.93,0,1,1,0-1.85H324.9a.93.93,0,1,1,0,1.85Z"/><path class="cls-18" d="M324.9,153H303.67a.93.93,0,1,1,0-1.85H324.9a.93.93,0,1,1,0,1.85Z"/><path class="cls-18" d="M324.9,160H303.67a.93.93,0,1,1,0-1.85H324.9a.93.93,0,1,1,0,1.85Z"/><path class="cls-18" d="M109.54,78.78a.86.86,0,0,1-.75-.46L94.66,50.37a.84.84,0,0,1,.07-.89.87.87,0,0,1,.84-.32l15.17,2.92a.85.85,0,0,1,.69.86l-1,25a.85.85,0,0,1-.67.79ZM96.94,51.15l11.89,23.51.88-21.06Z"/><path class="cls-18" d="M151.4,57.61a.8.8,0,0,1-.47-.15l-20.78-14a.84.84,0,0,1-.29-1.06l6.64-13.95a.85.85,0,0,1,.75-.49.87.87,0,0,1,.77.47l14.13,27.94a.84.84,0,0,1-.75,1.23ZM131.7,42.47l17.48,11.78L137.29,30.74Z"/><path class="cls-18" d="M111,42.93a.83.83,0,0,1-.75-.46.75.75,0,0,1-.1-.38.83.83,0,0,1,.47-.75l4.5-2.28a.85.85,0,0,1,1.13.37.88.88,0,0,1,.09.38.86.86,0,0,1-.46.76l-4.5,2.27A.73.73,0,0,1,111,42.93Z"/><path class="cls-18" d="M109.54,78.78a.86.86,0,0,1-.84-.88l1-25a.85.85,0,0,1,.32-.63.83.83,0,0,1,.68-.16L124,54.63l5.82-12.22a.83.83,0,0,1,.54-.46.84.84,0,0,1,.69.12l20.78,14a.84.84,0,0,1,.37.75.86.86,0,0,1-.46.71L109.93,78.69A.86.86,0,0,1,109.54,78.78Zm1.84-24.86-.93,22.61,39.28-19.87L131,44,125.28,56a.83.83,0,0,1-.92.46Z"/><path class="cls-18" d="M124.52,56.43l-.16,0L95.25,50.82A.84.84,0,0,1,95,49.24l41.85-21.18a.85.85,0,0,1,1,.15.84.84,0,0,1,.17,1L125.28,56A.85.85,0,0,1,124.52,56.43ZM98,49.63l26,5,11.4-23.94Z"/><path class="cls-18" d="M58.08,78.63a1,1,0,0,1-.35-.07c-.87-.37-21.25-9-25.18-15.36a14.11,14.11,0,1,1,24-14.83c3.94,6.38,2.5,28.46,2.44,29.39a.92.92,0,0,1-.44.73A1,1,0,0,1,58.08,78.63ZM44.55,43.52a12.27,12.27,0,0,0-10.43,18.7c3.12,5,18.64,12.14,23.12,14.11.24-4.89.87-21.94-2.24-27A12.2,12.2,0,0,0,44.55,43.52Z"/><path class="cls-18" d="M44.57,62.79a7,7,0,0,1-3.69-13,7,7,0,0,1,3.67-1,7,7,0,0,1,3.69,13A7,7,0,0,1,44.57,62.79Zm0-12.16a5.16,5.16,0,0,0-5,4,5.16,5.16,0,0,0,5,6.34,5.16,5.16,0,1,0,0-10.31Z"/><path class="cls-18" d="M337.9,215.8a.89.89,0,0,1-.62-.24L320,199.91,317,203.29a.92.92,0,0,1-.88.29,1,1,0,0,1-.69-.63l-5.26-16.43a.92.92,0,0,1,.19-.9.9.9,0,0,1,.88-.28L328.06,189a.91.91,0,0,1,.68.62.92.92,0,0,1-.19.9l-3.07,3.39,17.25,15.65a.92.92,0,0,1,.06,1.31l-4.2,4.64a.94.94,0,0,1-.64.3ZM320,197.67a.94.94,0,0,1,.62.24l17.26,15.66,3-3.27-17.25-15.65a.92.92,0,0,1-.07-1.31l2.62-2.88-13.73-3,4.29,13.37,2.61-2.88a1,1,0,0,1,.65-.31Z"/></g><path class="cls-24" d="M363.21,213.85v-2h20.31v2h-9v1.94a11.44,11.44,0,0,1,2.38.45,6.12,6.12,0,0,1,1.8.84,3.72,3.72,0,0,1,1.14,1.17,2.69,2.69,0,0,1,.4,1.43v.82a2.76,2.76,0,0,1-.48,1.56,4.21,4.21,0,0,1-1.38,1.25,7.88,7.88,0,0,1-2.19.82,13.83,13.83,0,0,1-5.73,0,7.88,7.88,0,0,1-2.19-.82,4.21,4.21,0,0,1-1.38-1.25,2.76,2.76,0,0,1-.48-1.56v-.82a3.09,3.09,0,0,1,1.53-2.61,8.47,8.47,0,0,1,4.18-1.28v-1.94Zm10.13-6.41a1.22,1.22,0,0,1-.41.42,6.41,6.41,0,0,1-.74.47c-.29.16-.59.31-.89.46l-.84.38c-.81.32-1.6.62-2.36.9l-2.29.83-.89-1.92c1-.31,1.8-.59,2.52-.85s1.4-.54,2.06-.81a6.75,6.75,0,0,0,1.94-1.13,1.78,1.78,0,0,0,.72-1.39v-.33h-6.31v-2h15v2h-6.34v.33a1.75,1.75,0,0,0,.71,1.36,8.5,8.5,0,0,0,1.95,1.14q1,.4,2.07.81c.73.28,1.57.56,2.52.87l-.86,1.92c-.81-.27-1.58-.55-2.33-.83s-1.52-.58-2.28-.9l-.87-.38c-.32-.15-.62-.3-.91-.46s-.54-.32-.76-.47a1.37,1.37,0,0,1-.42-.42Zm0,10.25a9.52,9.52,0,0,0-1.84.17,5.66,5.66,0,0,0-1.44.47,2.93,2.93,0,0,0-.94.68,1.25,1.25,0,0,0-.33.82v.52a1.25,1.25,0,0,0,.33.82,2.93,2.93,0,0,0,.94.68,5.66,5.66,0,0,0,1.44.47,10.1,10.1,0,0,0,3.69,0,5.66,5.66,0,0,0,1.44-.47,3,3,0,0,0,.94-.68,1.26,1.26,0,0,0,.34-.82v-.52a1.26,1.26,0,0,0-.34-.82,3,3,0,0,0-.94-.68,5.66,5.66,0,0,0-1.44-.47A9.55,9.55,0,0,0,373.36,217.69Z"/><path class="cls-24" d="M392,205.88h-6.15v-2h8.47v3.24h3.17v-4.94h2.33v20.59h-2.33v-7.87h-3.24v-2.07h3.24v-3.64h-3.19a13.21,13.21,0,0,1-.16,1.74,6.26,6.26,0,0,1-.45,1.53,8.09,8.09,0,0,1-.87,1.47,11.64,11.64,0,0,1-1.39,1.52,25.41,25.41,0,0,1-2.05,1.69c-.8.6-1.74,1.26-2.83,2l-1.32-1.85c1.12-.72,2.07-1.37,2.84-2a18.6,18.6,0,0,0,1.92-1.65,7.48,7.48,0,0,0,1.17-1.44,5.33,5.33,0,0,0,.58-1.34,6.22,6.22,0,0,0,.22-1.37c0-.47,0-1,0-1.52Zm12.33,17.93H402V201.68h2.33Z"/><path class="cls-24" d="M416,223.81V216.2h-9v-2h20.31v2h-8.95v7.61ZM419.9,210a13,13,0,0,1-1.81-1.06,3.09,3.09,0,0,1-.85-.86h0a2.79,2.79,0,0,1-.84.87,12.17,12.17,0,0,1-1.82,1.07q-1,.48-2.31,1.08c-.88.4-1.81.79-2.8,1.18l-.94-2c.9-.33,1.81-.71,2.74-1.11s1.77-.82,2.54-1.24a8.38,8.38,0,0,0,1-.67,3.17,3.17,0,0,0,.71-.76,3,3,0,0,0,.4-.93,5.32,5.32,0,0,0,.12-1.19v-2h2.37v2a5.32,5.32,0,0,0,.12,1.19,3,3,0,0,0,.39.93,3,3,0,0,0,.68.76,7.23,7.23,0,0,0,1,.67c.77.42,1.62.83,2.55,1.24s1.84.78,2.73,1.11l-.91,1.92c-1-.38-1.93-.77-2.81-1.17S420.56,210.31,419.9,210Z"/><path class="cls-24" d="M438,223.81V216.2h-9v-2h20.3v2h-8.95v7.61ZM441.84,210a13.22,13.22,0,0,1-1.82-1.06,3.24,3.24,0,0,1-.85-.86h0a3,3,0,0,1-.84.87,12.92,12.92,0,0,1-1.83,1.07c-.65.32-1.42.68-2.3,1.08s-1.82.79-2.81,1.18l-.93-2c.89-.33,1.8-.71,2.73-1.11s1.78-.82,2.55-1.24a8.38,8.38,0,0,0,1-.67,3.38,3.38,0,0,0,.71-.76,3,3,0,0,0,.39-.93,5.32,5.32,0,0,0,.12-1.19v-2h2.38v2a5.32,5.32,0,0,0,.12,1.19,3.19,3.19,0,0,0,.38.93,3.28,3.28,0,0,0,.69.76,6.71,6.71,0,0,0,1,.67c.77.42,1.62.83,2.54,1.24s1.84.78,2.74,1.11l-.91,1.92c-1-.38-1.93-.77-2.81-1.17S442.49,210.31,441.84,210Z"/><path class="cls-24" d="M453.81,215.05v-6.84H466v-2.76H453.72v-2h14.59v6.8H456.16V213h12.68v2h-3.17v3.79h5.59v2H451v-2h5.78v-3.79Zm5.26,3.79h4.27v-3.79h-4.27Z"/><path class="cls-24" d="M479.59,207.63a5,5,0,0,1,1.37-3.36,5.5,5.5,0,0,1,1.72-1.22,6.47,6.47,0,0,1,4.89,0,5.71,5.71,0,0,1,1.74,1.22,5.13,5.13,0,0,1,1,1.65,5,5,0,0,1,.34,1.71v1.25a5.07,5.07,0,0,1-1.37,3.36,5.57,5.57,0,0,1-1.74,1.23,6.47,6.47,0,0,1-4.89,0,5.37,5.37,0,0,1-1.72-1.23,4.85,4.85,0,0,1-1-1.64,5,5,0,0,1-.33-1.72Zm8.81.1a3.24,3.24,0,0,0-.2-1.1,3,3,0,0,0-.58-1,2.9,2.9,0,0,0-1-.72,3.65,3.65,0,0,0-1.48-.28,3.77,3.77,0,0,0-1.49.28,2.94,2.94,0,0,0-1,.72,2.85,2.85,0,0,0-.57,1,3.47,3.47,0,0,0-.18,1.1v1.06a3.31,3.31,0,0,0,.19,1.1,2.91,2.91,0,0,0,.59,1,3.13,3.13,0,0,0,1,.72,4.19,4.19,0,0,0,3,0,3.18,3.18,0,0,0,1-.72,3,3,0,0,0,.58-1,3.33,3.33,0,0,0,.2-1.1Zm-3.08,13.78h11.74v2.06H483v-7.34h2.37Zm14.28-11.57h-3.14v7.53h-2.35V201.68h2.35v6.19h3.14Z"/><path class="cls-24" d="M508.05,210.39a3.18,3.18,0,0,1-.59.84,12.45,12.45,0,0,1-1,1c-.51.46-1.08.94-1.71,1.42s-1.29,1-2,1.43l-1.39-1.7c.77-.55,1.49-1.08,2.18-1.61a21,21,0,0,0,1.66-1.39,6,6,0,0,0,.73-.82,3.78,3.78,0,0,0,.48-.85,4.19,4.19,0,0,0,.26-1,7.08,7.08,0,0,0,.09-1.18v-1.46h-4.66v-2h11.43v2h-4.37v1.37a6.37,6.37,0,0,0,.24,1.9,3.16,3.16,0,0,0,1,1.43q.85.76,1.8,1.47c.62.46,1.28.92,2,1.39l-1.35,1.73c-.62-.44-1.2-.86-1.75-1.28s-1.1-.86-1.68-1.34a11.78,11.78,0,0,1-.9-.8,2.4,2.4,0,0,1-.47-.62Zm-.1,11.12h11.91v2.06H505.58v-7.39H508Zm9.1-4.06v-8.09H513v-2h4.08v-5.64h2.35v15.77Z"/><path class="cls-24" d="M537.64,204.63h-7v-2H540v2.93a6.42,6.42,0,0,1-.42,2.44,4.8,4.8,0,0,1-1.5,1.88,13.56,13.56,0,0,1-2.91,1.69q-1.85.82-4.65,1.89l-.81-1.92c1.13-.44,2.11-.83,3-1.18s1.54-.68,2.13-1a10.47,10.47,0,0,0,1.46-.9,3.67,3.67,0,0,0,.87-.9,2.94,2.94,0,0,0,.43-1,5,5,0,0,0,.12-1.14ZM533.73,224v-6h11.38v-2.07h-11.5v-2h13.83v6H536.06V222h12v2Zm11.38-11.11v-2.45h-4.27v-2h4.27v-2.18h-3.92v-2h3.92v-2.55h2.33v11.16Z"/><path class="cls-24" d="M556.51,213a3.11,3.11,0,0,1-.4.76c-.18.26-.4.54-.64.83-.48.57-1,1.18-1.6,1.82s-1.21,1.29-1.85,1.95l-1.61-1.61c.72-.69,1.39-1.36,2-2a23.64,23.64,0,0,0,1.7-2,5.22,5.22,0,0,0,1-1.85,7.58,7.58,0,0,0,.24-1.94v-3.17h-3.79v-2h9.65v2h-3.56V209a6.55,6.55,0,0,0,.28,1.92,5.81,5.81,0,0,0,1,1.82c.51.66,1,1.28,1.58,1.87s1.18,1.24,1.9,1.92l-1.61,1.59c-.64-.64-1.22-1.24-1.74-1.79s-1-1.12-1.5-1.69c-.24-.29-.45-.57-.63-.83a3.37,3.37,0,0,1-.38-.76Zm6.93-10.89h2.33v20.59h-2.33V211h-3.36v-2.06h3.36Zm6.72,21.67h-2.33V201.68h2.33Z"/><path class="cls-24" d="M475.52,165.07h5.82q4.14,0,8.58-.27t8.64-.81l.84,6.36a88.43,88.43,0,0,1-9.3.9q-5,.24-10.56.24H468V148.81h18v-9.12H468v-6.42h25.5V155h-18Zm35.58,19.68h-7.62V129h7.62Z"/><path class="cls-24" d="M522.08,131.23h27.06v6.24H529.52v11q3.18,0,6.12,0t5.82-.12q2.88-.09,5.79-.3t6-.51l.66,6.12q-2.82.36-6,.57t-7,.33q-3.81.12-8.46.15t-10.41,0Zm43.26,27.84v16H537.68v4.26H567v6H530.36v-16H558v-4.26h-28v-6Zm0-2.28h-7.56V129h7.56Z"/></g></g></g></svg>