<svg xmlns="http://www.w3.org/2000/svg" xmlns:xlink="http://www.w3.org/1999/xlink" viewBox="0 0 600 350"><defs><style>.cls-1,.cls-11,.cls-15{fill:#221d1e;}.cls-2{isolation:isolate;}.cls-3{fill:#96aec0;}.cls-4{fill:#dbdcdd;}.cls-5{fill:#bbbdbe;}.cls-6{fill:#1c1e1e;}.cls-7{fill:#9c9ea1;}.cls-8{fill:#d9dbdc;}.cls-9{fill:#6a566f;}.cls-10{fill:#504546;}.cls-11{opacity:0.3;}.cls-11,.cls-15{mix-blend-mode:multiply;}.cls-12{clip-path:url(#clip-path);}.cls-13{fill:#42393a;}.cls-14{fill:#64a751;}.cls-15,.cls-23{opacity:0.2;}.cls-16{fill:#e2ac71;}.cls-17{fill:#f6ce9d;}.cls-18{fill:#fff;}.cls-19{fill:#494948;}.cls-20{fill:#2a2a29;}.cls-21{fill:#fbc90b;}.cls-22{fill:#d5a429;}.cls-23{fill:#fdfeff;}</style><clipPath id="clip-path"><polygon class="cls-1" points="284.49 197.4 94.01 197.4 106.76 131.2 274.33 131.93 284.49 197.4"/></clipPath></defs><g class="cls-2"><g id="레이어_2" data-name="레이어 2"><g id="Banners"><rect class="cls-3" width="600" height="350"/><polygon class="cls-4" points="106.13 198.06 105.79 319.77 274.09 319.6 274.09 199.09 106.13 198.06"/><rect class="cls-5" x="128.83" y="222.22" width="45.06" height="69.81"/><rect class="cls-6" x="132.08" y="225.72" width="38.9" height="52.51"/><rect class="cls-7" x="150.57" y="225.77" width="2.54" height="52.45"/><rect class="cls-8" x="132.05" y="239.39" width="39" height="3.5"/><rect class="cls-5" x="204.91" y="222.22" width="45.07" height="69.81"/><rect class="cls-6" x="208.17" y="225.72" width="38.89" height="52.51"/><rect class="cls-7" x="226.65" y="225.77" width="2.54" height="52.45"/><rect class="cls-8" x="208.13" y="239.39" width="39" height="3.5"/><rect class="cls-5" x="106.13" y="308.98" width="168.13" height="5.16"/><rect class="cls-9" x="105.53" y="196.62" width="168.47" height="3.84"/><rect class="cls-10" x="99.98" y="314.14" width="178.54" height="7.85"/><polygon class="cls-11" points="109.11 198.53 274.26 314.14 274.11 198.53 109.11 198.53"/><polygon class="cls-10" points="284.49 197.4 94.01 197.4 106.76 131.2 274.33 131.93 284.49 197.4"/><polygon class="cls-1" points="284.49 197.4 94.01 197.4 106.76 131.2 274.33 131.93 284.49 197.4"/><g class="cls-12"><rect class="cls-13" x="90.65" y="142.37" width="202.79" height="5.58"/><rect class="cls-13" x="90.65" y="154.17" width="202.79" height="5.58"/><rect class="cls-13" x="90.65" y="165.96" width="202.79" height="5.58"/><rect class="cls-13" x="90.65" y="177.75" width="202.79" height="5.59"/></g><rect class="cls-1" x="79.11" y="277.14" width="4.4" height="44.66"/><path class="cls-14" d="M99.81,272.06a18.5,18.5,0,0,1-18.5,18.5h0a18.5,18.5,0,0,1-18.5-18.5V240.42a18.5,18.5,0,0,1,18.5-18.5h0a18.5,18.5,0,0,1,18.5,18.5Z"/><path class="cls-15" d="M91,224.71A18.44,18.44,0,0,1,92.56,232v31.64a18.48,18.48,0,0,1-28.24,15.71,18.5,18.5,0,0,0,35.49-7.32V240.42A18.46,18.46,0,0,0,91,224.71Z"/><rect class="cls-1" x="296.56" y="277.33" width="4.4" height="44.66"/><path class="cls-14" d="M317.27,272.24a18.51,18.51,0,0,1-18.51,18.51h0a18.51,18.51,0,0,1-18.5-18.51V240.61a18.5,18.5,0,0,1,18.5-18.5h0a18.51,18.51,0,0,1,18.51,18.5Z"/><path class="cls-15" d="M308.49,224.9a18.23,18.23,0,0,1,1.52,7.32v31.64a18.46,18.46,0,0,1-28.24,15.7,18.5,18.5,0,0,0,35.5-7.32V240.61A18.47,18.47,0,0,0,308.49,224.9Z"/><path class="cls-16" d="M140.79,94.17l-10.57,2.92a6.75,6.75,0,0,0-4.73,8.33,5.83,5.83,0,0,0,.38,1.06,6.74,6.74,0,0,0,7.95,3.68l10.57-2.91a6.8,6.8,0,0,0,4.74-8.34,6.48,6.48,0,0,0-.38-1A6.76,6.76,0,0,0,140.79,94.17Z"/><polygon class="cls-16" points="135.63 57.1 126.48 89.23 184.43 98.48 190.5 54.24 135.63 57.1"/><path class="cls-16" d="M161.52,112.77a7.31,7.31,0,0,0,5.11-9h0a7.31,7.31,0,0,0-9-5.1l-10.58,2.91a7.31,7.31,0,0,0-5.1,9h0a7.3,7.3,0,0,0,9,5.11Z"/><path class="cls-16" d="M180.33,109.31a7.31,7.31,0,0,0,1.28-10.26h0a7.31,7.31,0,0,0-10.25-1.27l-8.66,6.73a7.3,7.3,0,0,0-1.28,10.25h0a7.31,7.31,0,0,0,10.26,1.29Z"/><path class="cls-17" d="M168.62,46.25S204.48,54.56,204,58.08c-.09.69-1.3,30-1.3,30a6.63,6.63,0,0,1-7.13,6.1c-3.65-.28-4.77-3.88-4.49-7.53L191,67l-4.57-.86L185,66.09a.41.41,0,0,0-.51,0L151.68,64.2c-2.44,3.85-7.86,6.29-4.14,22.19-.4.54,4.86.66,11.79,2.63l22.41,4.64c4.41.83,7.19,3.72,6.71,7.85s-3.58,6.79-7.72,6.31l-29.84-3c-14.91.89-29.62.74-31.27,1.16,0,0-44.47-3.21-29.76-11.83L85.8,78.23C84,71.08,75.87,63.13,83,61.31l23.19-.06C120.76,54.05,166.8,39.1,168.62,46.25Z"/><rect class="cls-18" x="93.35" y="57.15" width="7.37" height="49.74" transform="translate(-1.34 1.62) rotate(-0.95)"/><polygon class="cls-19" points="2.41 57.23 95.3 57.17 96.13 106.91 2.41 106.66 2.41 57.23"/><polygon class="cls-20" points="1.95 57.19 94.85 57.16 95.67 82.13 1.95 82 1.95 57.19"/><path class="cls-18" d="M84.09,66.73a2.82,2.82,0,1,1,2.77-2.86A2.8,2.8,0,0,1,84.09,66.73Z"/><path class="cls-21" d="M230.46,102.9a22.56,22.56,0,1,0-21.52,23.57A22.56,22.56,0,0,0,230.46,102.9Z"/><path class="cls-22" d="M226.14,103.1a18.24,18.24,0,1,1-19-17.4A18.26,18.26,0,0,1,226.14,103.1Zm-2.88.13a15.36,15.36,0,1,0-14.64,16A15.37,15.37,0,0,0,223.26,103.23Z"/><path class="cls-23" d="M223.26,103.23a15.36,15.36,0,1,0-14.64,16A15.35,15.35,0,0,0,223.26,103.23Z"/><path class="cls-22" d="M213.54,108.62a4.66,4.66,0,0,1-.93,3.32,5.18,5.18,0,0,1-3.2,1.61l.07,1.51-2.17.09-.07-1.5a5.86,5.86,0,0,1-3.66-1.32,4.47,4.47,0,0,1-1.34-3.25,5.79,5.79,0,0,1,.45-2.64,5.11,5.11,0,0,1,1.26-1.85,30.78,30.78,0,0,1,2.84-2.13,3.34,3.34,0,0,0,1.45-1.55,8.35,8.35,0,0,0,.12-2.28,1.59,1.59,0,0,0-.28-.94.83.83,0,0,0-.73-.29.66.66,0,0,0-.68.5,10.85,10.85,0,0,0,0,2.36l.05,1.16-4.71.21,0-.92c-.09-2.1.31-3.59,1.21-4.48a5.68,5.68,0,0,1,3.24-1.6l-.09-1.83,2.17-.1.08,1.77a5.6,5.6,0,0,1,3.72,1.61,5.92,5.92,0,0,1,1.39,3.9,6.66,6.66,0,0,1-.33,2.65,4.53,4.53,0,0,1-1,1.68,17.72,17.72,0,0,1-2.38,1.77,16.55,16.55,0,0,0-2.46,1.85,2.13,2.13,0,0,0-.37,1.57,1.75,1.75,0,0,0,.26,1,.73.73,0,0,0,.66.3.68.68,0,0,0,.68-.42,5,5,0,0,0,.09-1.64l0-.78,4.72-.21C213.5,108.13,213.53,108.43,213.54,108.62Z"/><path class="cls-17" d="M178.78,93.22l3.26.41c4.65,1.78,6.89,3.75,6.41,7.88-.37,3.21-3,4.41-5.91,5.16Z"/><path class="cls-18" d="M350.58,196.82h3.29c1.21,0,2.45,0,3.7-.11s2.45-.2,3.57-.37l.19,1.46a35.87,35.87,0,0,1-3.92.42c-1.34.07-2.66.11-4,.11H348.9v-8.4h7.94V185.1H348.9v-1.48h9.62v7.8h-7.94Zm14.73,7h-1.7V181.84h1.7Z"/><path class="cls-18" d="M369.38,182.8h10.24v1.49h-8.56v5.9h3.35c1,0,1.86,0,2.69-.07s1.63-.09,2.38-.16,1.55-.14,2.4-.24l.19,1.47c-.93.11-1.78.2-2.58.26s-1.65.12-2.57.16-2,.06-3.16.07h-4.38ZM386,193.94v5.66H374.2v2.81h12.34v1.44h-14v-5.67H384.3V195.4H372.42v-1.46Zm0-1.3h-1.68v-10.8H386Z"/><path class="cls-18" d="M398.54,188.37a4,4,0,0,1,.57-2.12,5.52,5.52,0,0,1,1.56-1.64,7.64,7.64,0,0,1,2.29-1.05,10.18,10.18,0,0,1,2.8-.38,10,10,0,0,1,2.77.38,7.88,7.88,0,0,1,2.31,1.05,5.44,5.44,0,0,1,1.57,1.64,4,4,0,0,1,.57,2.12v1.17a4,4,0,0,1-.5,2,5.11,5.11,0,0,1-1.37,1.57,7.4,7.4,0,0,1-2,1.08,9.42,9.42,0,0,1-2.48.52v4.51h9.22v1.46H395.68v-1.46h9.22v-4.51a9.4,9.4,0,0,1-2.5-.52,7.62,7.62,0,0,1-2-1.08,5,5,0,0,1-1.35-1.57,4.14,4.14,0,0,1-.49-2Zm7.22-3.62a8.4,8.4,0,0,0-2.18.27,6.1,6.1,0,0,0-1.75.77,4,4,0,0,0-1.18,1.16,2.7,2.7,0,0,0-.43,1.49v1a2.67,2.67,0,0,0,.43,1.49,4,4,0,0,0,1.18,1.17,6.09,6.09,0,0,0,1.75.76,8.59,8.59,0,0,0,4.35,0,6.22,6.22,0,0,0,1.77-.76,4.07,4.07,0,0,0,1.17-1.17,2.67,2.67,0,0,0,.43-1.49v-1a2.7,2.7,0,0,0-.43-1.49,4,4,0,0,0-1.17-1.16,6.23,6.23,0,0,0-1.77-.77A8.43,8.43,0,0,0,405.76,184.75Z"/><path class="cls-18" d="M436.78,193.63v1.46H416.62v-1.46Zm-2.37-10.73v1.39h-3.15v5.4h3.24v1.39H418.9v-1.39h3.24v-5.4H419V182.9ZM421.3,202h13v1.49H419.6v-6.24h1.7Zm2.52-12.33h5.76v-5.4h-5.76Z"/><path class="cls-18" d="M445.59,197.42q2.76-1.59,4.39-2.73a13.45,13.45,0,0,0,2.48-2.13,5.26,5.26,0,0,0,1.09-2,10.14,10.14,0,0,0,.25-2.35v-2.76h-8V183.9h9.63v4.32a13.43,13.43,0,0,1-.13,2,6.33,6.33,0,0,1-.46,1.68,6.88,6.88,0,0,1-1,1.53,12.22,12.22,0,0,1-1.62,1.56,26,26,0,0,1-2.43,1.74c-1,.62-2.07,1.3-3.37,2.06Zm16.92,6.36h-1.7V181.84h1.7Z"/><path class="cls-18" d="M468.29,183v8.57l3.07,0q1.32,0,2.49-.09c.77,0,1.54-.09,2.29-.16s1.58-.18,2.49-.31l.2,1.52c-.95.13-1.81.23-2.6.31s-1.61.14-2.49.18-1.89.07-3,.08-2.51,0-4.14,0V183Zm1.49,12.55h13.44v8.19H469.78Zm1.63,6.68h10.18v-5.16H471.41Zm10.15-18.15v-2.23h1.66v12.41h-1.66V189h-6.62v-1.47h6.62v-2h-6.62v-1.47Z"/><path class="cls-18" d="M505,192a7,7,0,0,1-1.43,4.7,5.59,5.59,0,0,1-8,0,7.06,7.06,0,0,1-1.43-4.7v-2.28a7,7,0,0,1,1.43-4.7,5.61,5.61,0,0,1,8,0,7,7,0,0,1,1.43,4.7Zm-1.65-2a8.69,8.69,0,0,0-.28-2.33,4.35,4.35,0,0,0-.77-1.57,2.9,2.9,0,0,0-1.19-.9,4,4,0,0,0-1.53-.29,4.06,4.06,0,0,0-1.54.29,3,3,0,0,0-1.19.9,4.51,4.51,0,0,0-.76,1.57,8.3,8.3,0,0,0-.28,2.33v1.68a8.43,8.43,0,0,0,.28,2.34,4.39,4.39,0,0,0,.76,1.58,3,3,0,0,0,1.19.9,3.88,3.88,0,0,0,1.54.29,3.79,3.79,0,0,0,1.53-.29,2.9,2.9,0,0,0,1.19-.9,4.24,4.24,0,0,0,.77-1.58,8.82,8.82,0,0,0,.28-2.34Zm7.7,13.73h-1.7V181.84H511Z"/><path class="cls-18" d="M528.29,196.91h-1.66V189h-3.38v4.78h-8.5V183.16h1.66V187h5.18v-3.84h1.66v4.32h3.38v-5.35h1.66Zm-6.7-4.65v-3.77h-5.18v3.77ZM520.25,202H533v1.49H518.54v-7.1h1.71Zm12.24-4.58h-1.66v-15.6h1.66Z"/><path class="cls-18" d="M555,199.22v1.46H534.88v-1.46Zm-2.69-4.2H537.83V183.64h14.33v1.44H539.49v3.53H552v1.44H539.49v3.53h12.86Z"/><path class="cls-18" d="M356.52,150.36H361c2.11,0,4.31-.07,6.58-.21s4.47-.34,6.62-.62l.64,4.88a71.62,71.62,0,0,1-7.13.69q-3.85.18-8.09.18h-8.83V137.89h13.8v-7h-13.8V126h19.55v16.65h-13.8Zm27.27,15.09H378V122.67h5.84Z"/><path class="cls-18" d="M389.73,124.41h20.74v4.79h-15v8.42c1.63,0,3.19,0,4.69,0s3,0,4.46-.09,3-.12,4.44-.23,3-.24,4.58-.39l.51,4.69c-1.44.19-3,.33-4.58.44s-3.39.19-5.34.25-4.11.1-6.48.12l-8,0Zm33.16,21.35V158h-21.2v3.27h22.49v4.6h-28.1V153.62h21.2v-3.26H395.84v-4.6Zm0-1.75H417.1V122.67h5.79Z"/><path class="cls-18" d="M449.3,155.37a12.37,12.37,0,0,1-5-.92,8.9,8.9,0,0,1-3.43-2.57,10.65,10.65,0,0,1-1.95-3.91,18.48,18.48,0,0,1-.62-5v-5.11a18.41,18.41,0,0,1,.62-4.94,10.63,10.63,0,0,1,1.95-3.94,8.9,8.9,0,0,1,3.43-2.57,14.24,14.24,0,0,1,10.07,0,8.9,8.9,0,0,1,3.43,2.57,10.8,10.8,0,0,1,2,3.94,18.82,18.82,0,0,1,.62,4.94V143a18.89,18.89,0,0,1-.62,5,10.82,10.82,0,0,1-2,3.91,8.9,8.9,0,0,1-3.43,2.57A12.32,12.32,0,0,1,449.3,155.37Zm0-24.75a4.57,4.57,0,0,0-4.21,2,11.24,11.24,0,0,0-1.27,5.93v3.73a11.22,11.22,0,0,0,1.27,5.93,5.38,5.38,0,0,0,8.42,0,11.32,11.32,0,0,0,1.26-5.93v-3.73a11.35,11.35,0,0,0-1.26-5.93A4.59,4.59,0,0,0,449.3,130.62Zm22.81,34.83h-5.84V122.67h5.84Z"/><path class="cls-18" d="M494.05,125.1v8.1h4.24v-10h5.47v28.93h-5.47v-14h-4.24v8.14H476.8V125.1h5.48v6.35h6.3V125.1Zm-5.47,16.47v-5.43h-6.3v5.43ZM489.64,160h23.14v5h-29V151h5.85Zm22.49-6.86h-5.52V122.67h5.52Z"/><path class="cls-18" d="M554.41,155.14v4.92h-39.2v-4.92Zm-5-5.84H520.27V125.84h28.66v4.88H526v4.41h22.54V140H526v4.41h23.37Z"/></g></g></g></svg>