<svg xmlns="http://www.w3.org/2000/svg" viewBox="0 0 214.13 42.66"><g data-name="레이어 2"><path d="M15.85 27.57h-5.57v15.09H0V0h16.79q7.59 0 11.86 3.37t4.28 9.51a13.85 13.85 0 01-1.8 7.37A12.78 12.78 0 0125.49 25l8.9 17.23v.44h-11zm-5.57-7.91h6.51a5.88 5.88 0 004.41-1.54 6 6 0 001.48-4.31 6 6 0 00-1.5-4.33 5.76 5.76 0 00-4.39-1.57h-6.51zm55.32 4.89H49.42v10.2h19.11v7.91H39.14V0h29.44v7.94H49.42v9H65.6zm7.11 18.11V0h13.75a20.21 20.21 0 0110.16 2.56 18 18 0 017 7.24 21.86 21.86 0 012.56 10.47v2a21.88 21.88 0 01-2.48 10.5 18 18 0 01-7 7.26 19.75 19.75 0 01-10 2.66zM83 7.94v26.81h3.57a8 8 0 006.8-3.15q2.37-3.15 2.37-9.36v-1.85q0-6.18-2.37-9.32a8.13 8.13 0 00-6.91-3.13zm55 16.61h-16.21v10.2h19.1v7.91H111.5V0H141v7.94h-19.21v9H138zm31.31 10.14h-14.1l-2.46 8h-11L157.41 0h9.67l15.76 42.66h-11zm-11.63-7.94h9.17L162.25 12zm38.55 8h17.9v7.91H186V0h10.28z" data-name="레이어 1"/></g></svg>